<svg id="图层_1" data-name="图层 1" xmlns="http://www.w3.org/2000/svg" xmlns:xlink="http://www.w3.org/1999/xlink" viewBox="0 0 120 120"><defs><style>.cls-1{fill:url(#未命名的渐变_14);}.cls-2{fill:url(#未命名的渐变_9);}.cls-3{isolation:isolate;}.cls-4{fill:#6e7ca5;}</style><linearGradient id="未命名的渐变_14" x1="104.35" y1="-1124.48" x2="15.63" y2="-1124.48" gradientTransform="matrix(1, 0, 0, -1, 0, -1052.17)" gradientUnits="userSpaceOnUse"><stop offset="0" stop-color="#d1d8ef"/><stop offset="0.4" stop-color="#d8e1fb"/><stop offset="0.61" stop-color="#b5bed9"/><stop offset="1" stop-color="#b4bdd8"/></linearGradient><linearGradient id="未命名的渐变_9" x1="58.28" y1="-1058.5" x2="61.72" y2="-1114.9" gradientTransform="matrix(1, 0, 0, -1, 0, -1052.17)" gradientUnits="userSpaceOnUse"><stop offset="0" stop-color="#edf1fd"/><stop offset="1" stop-color="#e1e5f1"/></linearGradient></defs><title>资产图标</title><path class="cls-1" d="M104.34,34.5H15.63v50h0c0,4.39,6.12,7.93,18.37,15s18.37,10.61,26,10.61,13.73-3.54,26-10.61,18.37-10.61,18.37-15a2.62,2.62,0,0,0,0-.28Z"/><path class="cls-2" d="M34,19.5C46.27,12.43,52.39,8.89,60,8.89S73.73,12.43,86,19.5s18.37,10.61,18.37,15S98.23,42.43,86,49.5,67.61,60.11,60,60.11,46.27,56.57,34,49.5s-18.37-10.61-18.37-15S21.77,26.57,34,19.5Z"/><g class="cls-3"><path class="cls-4" d="M68.52,18.75c3.8,2.2,3.87,5.72.17,7.87s-9.78,2.12-13.58-.07-3.89-5.73-.18-7.88S64.71,16.56,68.52,18.75Z"/></g><g class="cls-3"><path class="cls-4" d="M78.76,30c3.16,1.82,3.22,4.74.15,6.53a12.43,12.43,0,0,1-11.28-.07c-3.15-1.82-3.22-4.75-.15-6.53A12.43,12.43,0,0,1,78.76,30Z"/></g><g class="cls-3"><path class="cls-4" d="M56,29.67a8.2,8.2,0,0,1,3,2.78c-4.47-.54-9.26.17-12.68,2.16l-.46.27A3.74,3.74,0,0,0,44.61,36l-5.49-3.17c-4.91-2.83-8.89-5.13-6.93-6.27l.55-.32c4.78-2.78,12.64-2.73,17.55.1Z"/><path class="cls-4" d="M68.4,39c4.08,2.35,4.16,6.13.19,8.43l-.46.27c-1.56.91-4.92-1-9-3.32l-4.76-2.75c-4.08-2.35-7.38-4.26-5.77-5.2l.47-.27c4-2.31,10.49-2.27,14.57.08Z"/></g></svg>