<svg id="图层_1" data-name="图层 1" xmlns="http://www.w3.org/2000/svg" xmlns:xlink="http://www.w3.org/1999/xlink" viewBox="0 0 120 120"><defs><style>.cls-1{fill:none;}.cls-2{clip-path:url(#clip-path);}.cls-3{fill:url(#未命名的渐变_13);}.cls-4{fill:url(#未命名的渐变_11);}.cls-5{fill:url(#未命名的渐变_11-2);}.cls-6{fill:#7587ba;}.cls-7{fill:url(#未命名的渐变_10);}.cls-8{fill:url(#未命名的渐变_9);}.cls-9{fill:url(#未命名的渐变_11-3);}.cls-10{fill:url(#未命名的渐变_11-4);}.cls-11{fill:url(#未命名的渐变_10-2);}.cls-12{isolation:isolate;}.cls-13{fill:#088aff;}</style><clipPath id="clip-path"><rect class="cls-1" width="120" height="120"/></clipPath><linearGradient id="未命名的渐变_13" x1="60" y1="-507.08" x2="60" y2="-585.21" gradientTransform="matrix(1, 0, 0, -1, 0, -483.74)" gradientUnits="userSpaceOnUse"><stop offset="0" stop-color="#9da4b9"/><stop offset="1" stop-color="#808bab"/></linearGradient><linearGradient id="未命名的渐变_11" x1="30.36" y1="-568.11" x2="10.85" y2="-557.96" gradientTransform="matrix(1, 0, 0, -1, 0, -483.74)" gradientUnits="userSpaceOnUse"><stop offset="0" stop-color="#cad1e7"/><stop offset="1" stop-color="#b4bdd8"/></linearGradient><linearGradient id="未命名的渐变_11-2" x1="53.31" y1="-593.12" x2="45.69" y2="-567.63" xlink:href="#未命名的渐变_11"/><linearGradient id="未命名的渐变_10" x1="97.89" y1="-558.84" x2="80.4" y2="-588.5" gradientTransform="matrix(1, 0, 0, -1, 0, -483.74)" gradientUnits="userSpaceOnUse"><stop offset="0" stop-color="#cfd8ef"/><stop offset="1" stop-color="#d5dae9"/></linearGradient><linearGradient id="未命名的渐变_9" x1="74.99" y1="-489.92" x2="44.98" y2="-554.17" gradientTransform="matrix(1, 0, 0, -1, 0, -483.74)" gradientUnits="userSpaceOnUse"><stop offset="0" stop-color="#edf1fd"/><stop offset="1" stop-color="#e1e5f1"/></linearGradient><linearGradient id="未命名的渐变_11-3" x1="30.36" y1="-543.91" x2="10.85" y2="-533.76" xlink:href="#未命名的渐变_11"/><linearGradient id="未命名的渐变_11-4" x1="53.31" y1="-568.92" x2="45.69" y2="-543.42" xlink:href="#未命名的渐变_11"/><linearGradient id="未命名的渐变_10-2" x1="97.89" y1="-534.63" x2="80.4" y2="-564.3" xlink:href="#未命名的渐变_10"/></defs><title>资产图标</title><g class="cls-2"><path class="cls-3" d="M93.89,42.91l12.4,26.73L72.4,89.2,26.11,82,13.7,55.31,47.6,35.75Z"/><path class="cls-4" d="M13.8,55.27l12.34,26.6v20.8L13.8,76.07Z"/><path class="cls-5" d="M26.14,82l46.23,6.84v20.8l-46.23-6.84Z"/><path class="cls-6" d="M30.51,95.81l24.62,3.64v4L30.51,99.79Z"/><path class="cls-7" d="M106.27,69.64,72.37,88.83v20.8l33.9-19.19Z"/><ellipse class="cls-6" cx="101.1" cy="86.99" rx="3.67" ry="2.12" transform="translate(-24.79 131.05) rotate(-60)"/><path class="cls-8" d="M93.89,18.71l12.4,26.72L72.4,65,26.11,57.84,13.7,31.11,47.6,11.54Z"/><path class="cls-9" d="M13.8,31.06,26.14,57.67v20.8L13.8,51.87Z"/><path class="cls-10" d="M26.14,57.79l46.23,6.83v20.8L26.14,78.59Z"/><path class="cls-6" d="M30.51,71.35,55.13,75v4L30.51,75.33Z"/><path class="cls-11" d="M106.27,45.44,72.37,64.62v20.8l33.9-19.18Z"/><ellipse class="cls-6" cx="101.1" cy="62.97" rx="3.67" ry="2.12" transform="translate(-3.99 119.04) rotate(-60)"/></g><g class="cls-12"><path class="cls-13" d="M61.29,18.4c.3.17.4.44.22.68l-3.57,4.7.41.23a18,18,0,0,1,8,11.3,13,13,0,0,1,.14,3.14c-.75-.38-1.48-.78-2.14-1.17C62.33,36.09,60.81,35,60.78,35a1.93,1.93,0,0,0-1.73-.09c-.53.26-.6.7-.17,1,.12.09,1.62,1.13,3.7,2.33,1.13.66,2.45,1.36,3.79,2-.07.72-.17,1.47-.29,2.22-.66-.21-1.35-.48-2.08-.79a34.73,34.73,0,0,1-3.27-1.61,1.93,1.93,0,0,0-1.75,0c-.48.28-.49.73,0,1A32.27,32.27,0,0,0,65.84,44a59.25,59.25,0,0,0-1.09,7.75c0,3,.41,3.85-1.06,4.36a89.64,89.64,0,0,1-7.58-13.64c-3.48-8.08,1.1-16.55,1.15-16.65.15-.28,0-.55-.3-.73a1.87,1.87,0,0,0-.49-.17,1.65,1.65,0,0,0-1.56.44c-.2.37-4.86,8.94-1.19,17.44a90.06,90.06,0,0,0,7.43,13.45A16.75,16.75,0,0,1,57,54.43C52,51.59,45.61,45.77,43.59,37.51,40.53,25,55.2,23.39,56,23.31l3.6-4.72A1.47,1.47,0,0,1,61,18.28,1.18,1.18,0,0,1,61.29,18.4Z"/></g></svg>