<svg id="图层_1" data-name="图层 1" xmlns="http://www.w3.org/2000/svg" xmlns:xlink="http://www.w3.org/1999/xlink" viewBox="0 0 120 120"><defs><style>.cls-1{fill:url(#未命名的渐变_19);}.cls-2{fill:url(#未命名的渐变_6);}</style><linearGradient id="未命名的渐变_19" x1="107.95" y1="-1743.87" x2="11.95" y2="-1743.87" gradientTransform="matrix(1, 0, 0, -1, 0, -1673.57)" gradientUnits="userSpaceOnUse"><stop offset="0" stop-color="#d2d9f0"/><stop offset="0.28" stop-color="#d9dff1"/><stop offset="0.44" stop-color="#c3cbe1"/><stop offset="1" stop-color="#b4bdd8"/></linearGradient><linearGradient id="未命名的渐变_6" x1="58.13" y1="-1688.15" x2="61.48" y2="-1745.49" gradientTransform="matrix(1, 0, 0, -1, 0, -1673.57)" gradientUnits="userSpaceOnUse"><stop offset="0" stop-color="#edf1fd"/><stop offset="1" stop-color="#e1e5f1"/></linearGradient></defs><title>资产图标</title><path class="cls-1" d="M106.69,95.15c-.34,3.67-2.94,7.28-7.79,10.08-10.45,6-27.38,6-37.83,0l-41.65-24c-4.24-2.45-6.44-5.62-6.61-8.83h0a5.34,5.34,0,0,1,0-.8V30.85H60.5v22.8h46.21V93.71a8,8,0,0,1,0,1.2v.24Z"/><path class="cls-2" d="M19.42,40.68c-8.83-5.1-8.83-13.36,0-18.46,7.16-4.14,17.94-4.92,26.47-2.34,13.39-4.43,30.76-3.35,42.2,3.25,8.91,5.14,12,12.37,9.32,19,.51.26,1,.52,1.49.8,10.44,6,10.44,15.81,0,21.84s-27.38,6-37.83,0l-22.5-13h0Z"/></svg>