<svg id="图层_1" data-name="图层 1" xmlns="http://www.w3.org/2000/svg" xmlns:xlink="http://www.w3.org/1999/xlink" viewBox="0 0 120 120"><defs><style>.cls-1{fill:none;}.cls-2{clip-path:url(#clip-path);}.cls-3{fill:url(#未命名的渐变_12);}.cls-4{fill:#7587ba;}.cls-5,.cls-7{fill-rule:evenodd;}.cls-5{fill:url(#未命名的渐变_13);}.cls-6{fill:url(#未命名的渐变_12-2);}.cls-7{fill:url(#未命名的渐变_9);}.cls-8{isolation:isolate;}.cls-9{fill:#5691f7;}</style><clipPath id="clip-path"><rect class="cls-1" width="120" height="120"/></clipPath><linearGradient id="未命名的渐变_12" x1="104.95" y1="-3544.95" x2="15.74" y2="-3544.95" gradientTransform="matrix(1, 0, 0, -1, 0, -3461.04)" gradientUnits="userSpaceOnUse"><stop offset="0" stop-color="#e8ecf8"/><stop offset="0.22" stop-color="#d9dfee"/><stop offset="0.86" stop-color="#b4bdd8"/><stop offset="1" stop-color="#bec5dc"/></linearGradient><linearGradient id="未命名的渐变_13" x1="57.59" y1="-3493.09" x2="62.14" y2="-3565.1" gradientTransform="matrix(1, 0, 0, -1, 0, -3461.04)" gradientUnits="userSpaceOnUse"><stop offset="0" stop-color="#9da4b9"/><stop offset="1" stop-color="#808bab"/></linearGradient><linearGradient id="未命名的渐变_12-2" x1="104.95" y1="-3523.95" x2="15.75" y2="-3523.95" xlink:href="#未命名的渐变_12"/><linearGradient id="未命名的渐变_9" x1="75.45" y1="-3476.62" x2="46.01" y2="-3543.05" gradientTransform="matrix(1, 0, 0, -1, 0, -3461.04)" gradientUnits="userSpaceOnUse"><stop offset="0" stop-color="#edf1fd"/><stop offset="1" stop-color="#e1e5f1"/></linearGradient></defs><title>资产图标</title><g class="cls-2"><path class="cls-3" d="M95,66.67a3.81,3.81,0,0,0-1.59-.91L52,58.35a6.35,6.35,0,0,0-4.74.39L32,67.53a45.82,45.82,0,0,0-7.13,5H15.5v16.6c-.43,5.44,1.49,11,5.92,16.1a3.71,3.71,0,0,0,1.79,1c21.79,6.29,48.11,3.83,65.33-6.12l15.24-8.79A2.12,2.12,0,0,0,104.92,90h0v-.1a1.6,1.6,0,0,0,0-.31v-17H97.5Z"/><path class="cls-4" d="M88.79,88.83l9-5.17v4.75l-9,5.17a66,66,0,0,1-14.54,6.07V94.9A66,66,0,0,0,88.79,88.83Z"/><path class="cls-4" d="M62.25,97.46a97,97,0,0,1-10,.88v4.75a99.85,99.85,0,0,0,10-.88Z"/><path class="cls-5" d="M93.37,48.51a3.81,3.81,0,0,1,1.59.91l9.5,22c.85.9.57,2-.68,2.74L88.54,82.92C71.32,92.87,45,95.33,23.21,89a3.71,3.71,0,0,1-1.79-1C10.52,75.43,14.79,60.23,32,50.28l15.23-8.79A6.35,6.35,0,0,1,52,41.1Z"/><path class="cls-6" d="M95,45.67a3.81,3.81,0,0,0-1.59-.91L52,37.35a6.35,6.35,0,0,0-4.74.39L32,46.53a45.82,45.82,0,0,0-7.13,5H15.5v16.6c-.43,5.44,1.49,11,5.92,16.1a3.71,3.71,0,0,0,1.79,1C45,91.58,71.32,89.12,88.54,79.17l15.24-8.79A2.12,2.12,0,0,0,104.92,69h0v-.1a1.6,1.6,0,0,0,0-.31v-17H97.5Z"/><path class="cls-7" d="M92.42,27.34a6.14,6.14,0,0,1,1.76.5,2.37,2.37,0,0,1,1.08,1.3l8.31,19.21a5.42,5.42,0,0,1,.72,3.42c-.19,1.34.67.18.33.64a2.75,2.75,0,0,1-.84.72L88.54,61.92C71.32,71.87,45,74.33,23.21,68a3.71,3.71,0,0,1-1.79-1C10.52,54.43,14.79,39.23,32,29.28l15.23-8.79a5.35,5.35,0,0,1,2-.62c.65-.08-1,.12.84.16a26.21,26.21,0,0,1,4.63.56Z"/><path class="cls-4" d="M77.63,73.09a89.44,89.44,0,0,1-25.38,4.5v4.75a89.44,89.44,0,0,0,25.38-4.5Z"/><path class="cls-4" d="M89.63,72.35l8.12-4.69V62.91L89.63,67.6Z"/></g><g class="cls-8"><path class="cls-9" d="M41.15,39.41c-.67,3,.79,6.8,3.65,9.52L34,50.6a47.59,47.59,0,0,0,.19-4.79c-1.52-1.54-3.09-3.07-4.73-4.59Z"/><path class="cls-9" d="M78.36,33.62c7.52,4.34,7.56,11.8.07,16.15s-20.36,4.35-27.87,0-7.93-11.58-.44-15.93S70.84,29.29,78.36,33.62ZM73.14,46c1.17,0,2.15-.59,2.17-1.28a1.12,1.12,0,0,0-.45-.75l-2.67-2.1c-.5-.33-.63-.76-.36-1.16l1.61-2.59c.28-.48.07-1-.54-1.33a3.6,3.6,0,0,0-2.31-.31l-4.5.94a3,3,0,0,1-1.93-.2L60.52,35.7a3.41,3.41,0,0,0-3.07.25,1.31,1.31,0,0,0-.44.75l-.13,2.93c0,.35-.29.66-.76.88L52,42.24c-1,.4-1.17,1.22-.47,1.77l.23.15a2.74,2.74,0,0,0,.94.33l4.19.74a2.41,2.41,0,0,1,1,.31,1.18,1.18,0,0,1,.5.49l1.33,2.49a1.36,1.36,0,0,0,.55.54,3.51,3.51,0,0,0,2.21.33,2.43,2.43,0,0,0,1.12-.46l2.86-2.31.06,0a2.54,2.54,0,0,1,1.68-.53l5-.05"/><path class="cls-9" d="M68.19,55l-2.75,7s-3.64-1.57-7.21-2.74c-3.87,0-8.75.12-9,.13l2.88-6.26A42.18,42.18,0,0,0,68.19,55Z"/></g></svg>