<svg id="图层_1" data-name="图层 1" xmlns="http://www.w3.org/2000/svg" xmlns:xlink="http://www.w3.org/1999/xlink" viewBox="0 0 120 120"><defs><style>.cls-1{fill:url(#未命名的渐变_19);}.cls-2{fill:url(#未命名的渐变_13);}.cls-3{fill:url(#未命名的渐变_19-2);}.cls-4{fill:#7587ba;fill-rule:evenodd;}.cls-5{fill:url(#未命名的渐变_6);}.cls-6{isolation:isolate;}.cls-7{fill:#6e7ca5;}</style><linearGradient id="未命名的渐变_19" x1="107.95" y1="-2909" x2="11.95" y2="-2909" gradientTransform="matrix(1, 0, 0, -1, 0, -2828.7)" gradientUnits="userSpaceOnUse"><stop offset="0" stop-color="#d2d9f0"/><stop offset="0.28" stop-color="#d9dff1"/><stop offset="0.44" stop-color="#c3cbe1"/><stop offset="1" stop-color="#b4bdd8"/></linearGradient><linearGradient id="未命名的渐变_13" x1="38.46" y1="-2851.68" x2="82.5" y2="-2931.19" gradientTransform="matrix(1, 0, 0, -1, 0, -2828.7)" gradientUnits="userSpaceOnUse"><stop offset="0" stop-color="#9da4b9"/><stop offset="1" stop-color="#808bab"/></linearGradient><linearGradient id="未命名的渐变_19-2" x1="107.95" y1="-2885" x2="11.95" y2="-2885" xlink:href="#未命名的渐变_19"/><linearGradient id="未命名的渐变_6" x1="58.13" y1="-2839.28" x2="61.48" y2="-2896.62" gradientTransform="matrix(1, 0, 0, -1, 0, -2828.7)" gradientUnits="userSpaceOnUse"><stop offset="0" stop-color="#edf1fd"/><stop offset="1" stop-color="#e1e5f1"/></linearGradient></defs><title>资产图标</title><path class="cls-1" d="M106.69,95.15c-.34,3.67-2.94,7.28-7.79,10.08-10.45,6-27.38,6-37.83,0l-41.65-24c-4.24-2.45-6.44-5.62-6.61-8.83h0a5.34,5.34,0,0,1,0-.8V50.85H60.5v6.92c9.88-.46,20,1.5,27.59,5.86,4.94,2.85,8.1,6.35,9.47,10h9.15V93.71a8,8,0,0,1,0,1.2v.24Z"/><path class="cls-2" d="M19.42,60.68c-8.83-5.1-8.83-13.36,0-18.46,7.16-4.14,17.94-4.92,26.47-2.34,13.39-4.43,30.76-3.35,42.2,3.25,8.91,5.14,12,12.37,9.32,19,.51.26,1,.52,1.49.8,10.44,6,10.44,15.81,0,21.84s-27.38,6-37.83,0l-22.5-13h0Z"/><path class="cls-3" d="M106.69,71.15c-.34,3.67-2.94,7.28-7.79,10.08-10.45,6-27.38,6-37.83,0L19.42,57.18c-4.24-2.45-6.44-5.62-6.61-8.83h0a5.34,5.34,0,0,1,0-.8V26.85H60.5v6.92c9.88-.46,20,1.5,27.59,5.86,4.94,2.85,8.1,6.35,9.47,10h9.15V69.71a8,8,0,0,1,0,1.2v.24Z"/><path class="cls-4" d="M19.6,50c1.43.83,2.6.16,2.6-1.5A5.76,5.76,0,0,0,19.6,44c-1.44-.83-2.6-.16-2.6,1.5A5.73,5.73,0,0,0,19.6,50Zm7,4c1.43.83,2.6.16,2.6-1.5A5.76,5.76,0,0,0,26.6,48c-1.44-.83-2.6-.16-2.6,1.5A5.73,5.73,0,0,0,26.6,54Z"/><path class="cls-5" d="M19.42,36.68c-8.83-5.1-8.83-13.36,0-18.46,7.16-4.14,17.94-4.92,26.47-2.34,13.39-4.43,30.76-3.35,42.2,3.25,8.91,5.14,12,12.37,9.32,19,.51.26,1,.52,1.49.8,10.44,6,10.44,15.81,0,21.84s-27.38,6-37.83,0l-22.5-13h0Z"/><g class="cls-6"><path class="cls-7" d="M81.3,31.11c.89.52.89,1.3,0,1.81l-27,15.67a3.35,3.35,0,0,1-3.11,0l-7.31-4.22a1,1,0,0,1,0-1.81l1-.6-2.09-1.21-1,.61a3.37,3.37,0,0,1-3.12,0l-7.3-4.22a1,1,0,0,1,0-1.81l27-15.66a3.31,3.31,0,0,1,3.12,0l7.31,4.21a1,1,0,0,1,0,1.81L44.94,39.55,47,40.75,70.87,26.9a3.36,3.36,0,0,1,3.13,0ZM63.07,26l2.08-1.2-5.22-3L57.85,23l5.22,3m12.52,7.23L77.67,32l-5.22-3-2.08,1.21,5.22,3M49.65,44.67l2.07-1.2-2.08-1.21-2.07,1.2,2.08,1.21M37.13,37.44l2.07-1.2L37.12,35l-2.07,1.21,2.08,1.2"/></g><g class="cls-6"><path class="cls-7" d="M88.14,35.06a.93.93,0,0,1,0,1.75L61.09,52.53a3.32,3.32,0,0,1-3,0,.92.92,0,0,1,0-1.74L85.12,35.06A3.35,3.35,0,0,1,88.14,35.06Z"/></g></svg>