<svg id="图层_1" data-name="图层 1" xmlns="http://www.w3.org/2000/svg" xmlns:xlink="http://www.w3.org/1999/xlink" viewBox="0 0 120 120"><defs><style>.cls-1{fill:url(#未命名的渐变_19);}.cls-2{fill:url(#未命名的渐变_13);}.cls-3{fill:url(#未命名的渐变_19-2);}.cls-4{fill:#7587ba;fill-rule:evenodd;}.cls-5{fill:url(#未命名的渐变_9);}</style><linearGradient id="未命名的渐变_19" x1="107.95" y1="-1753.87" x2="11.95" y2="-1753.87" gradientTransform="matrix(1, 0, 0, -1, 0, -1673.57)" gradientUnits="userSpaceOnUse"><stop offset="0" stop-color="#d2d9f0"/><stop offset="0.28" stop-color="#d9dff1"/><stop offset="0.44" stop-color="#c3cbe1"/><stop offset="1" stop-color="#b4bdd8"/></linearGradient><linearGradient id="未命名的渐变_13" x1="38.46" y1="-1696.55" x2="82.5" y2="-1776.06" gradientTransform="matrix(1, 0, 0, -1, 0, -1673.57)" gradientUnits="userSpaceOnUse"><stop offset="0" stop-color="#9da4b9"/><stop offset="1" stop-color="#808bab"/></linearGradient><linearGradient id="未命名的渐变_19-2" x1="107.95" y1="-1729.87" x2="11.95" y2="-1729.87" xlink:href="#未命名的渐变_19"/><linearGradient id="未命名的渐变_9" x1="58.13" y1="-1684.15" x2="61.48" y2="-1741.49" gradientTransform="matrix(1, 0, 0, -1, 0, -1673.57)" gradientUnits="userSpaceOnUse"><stop offset="0" stop-color="#edf1fd"/><stop offset="1" stop-color="#e1e5f1"/></linearGradient></defs><title>资产图标</title><path class="cls-1" d="M106.69,95.15c-.34,3.67-2.94,7.28-7.79,10.08-10.45,6-27.38,6-37.83,0l-41.65-24c-4.24-2.45-6.44-5.62-6.61-8.83h0a5.34,5.34,0,0,1,0-.8V50.85H60.5v6.92c9.88-.46,20,1.5,27.59,5.86,4.94,2.85,8.1,6.35,9.47,10h9.15V93.71a8,8,0,0,1,0,1.2v.24Z"/><path class="cls-2" d="M19.42,60.68c-8.83-5.1-8.83-13.36,0-18.46,7.16-4.14,17.94-4.92,26.47-2.34,13.39-4.43,30.76-3.35,42.2,3.25,8.91,5.14,12,12.37,9.32,19,.51.26,1,.52,1.49.8,10.44,6,10.44,15.81,0,21.84s-27.38,6-37.83,0l-22.5-13h0Z"/><path class="cls-3" d="M106.69,71.15c-.34,3.67-2.94,7.28-7.79,10.08-10.45,6-27.38,6-37.83,0L19.42,57.18c-4.24-2.45-6.44-5.62-6.61-8.83h0a5.34,5.34,0,0,1,0-.8V26.85H60.5v6.92c9.88-.46,20,1.5,27.59,5.86,4.94,2.85,8.1,6.35,9.47,10h9.15V69.71a8,8,0,0,1,0,1.2v.24Z"/><path class="cls-4" d="M19.6,50c1.43.83,2.6.16,2.6-1.5A5.76,5.76,0,0,0,19.6,44c-1.44-.83-2.6-.16-2.6,1.5A5.73,5.73,0,0,0,19.6,50Zm7,4c1.43.83,2.6.16,2.6-1.5A5.76,5.76,0,0,0,26.6,48c-1.44-.83-2.6-.16-2.6,1.5A5.73,5.73,0,0,0,26.6,54Z"/><path class="cls-5" d="M19.42,36.68c-8.83-5.1-8.83-13.36,0-18.46,7.16-4.14,17.94-4.92,26.47-2.34,13.39-4.43,30.76-3.35,42.2,3.25,8.91,5.14,12,12.37,9.32,19,.51.26,1,.52,1.49.8,10.44,6,10.44,15.81,0,21.84s-27.38,6-37.83,0l-22.5-13h0Z"/></svg>