<svg id="图层_1" data-name="图层 1" xmlns="http://www.w3.org/2000/svg" xmlns:xlink="http://www.w3.org/1999/xlink" viewBox="0 0 120 120"><defs><style>.cls-1{fill:url(#未命名的渐变_19);}.cls-2{fill:url(#未命名的渐变_13);}.cls-3{fill:url(#未命名的渐变_19-2);}.cls-4{fill:#7587ba;fill-rule:evenodd;}.cls-5{fill:url(#未命名的渐变_6);}.cls-6{isolation:isolate;}.cls-7{fill:#5691f7;}</style><linearGradient id="未命名的渐变_19" x1="107.95" y1="-1753.87" x2="11.95" y2="-1753.87" gradientTransform="matrix(1, 0, 0, -1, 0, -1673.57)" gradientUnits="userSpaceOnUse"><stop offset="0" stop-color="#d2d9f0"/><stop offset="0.28" stop-color="#d9dff1"/><stop offset="0.44" stop-color="#c3cbe1"/><stop offset="1" stop-color="#b4bdd8"/></linearGradient><linearGradient id="未命名的渐变_13" x1="38.46" y1="-1696.55" x2="82.5" y2="-1776.06" gradientTransform="matrix(1, 0, 0, -1, 0, -1673.57)" gradientUnits="userSpaceOnUse"><stop offset="0" stop-color="#9da4b9"/><stop offset="1" stop-color="#808bab"/></linearGradient><linearGradient id="未命名的渐变_19-2" x1="107.95" y1="-1729.87" x2="11.95" y2="-1729.87" xlink:href="#未命名的渐变_19"/><linearGradient id="未命名的渐变_6" x1="58.13" y1="-1684.15" x2="61.48" y2="-1741.49" gradientTransform="matrix(1, 0, 0, -1, 0, -1673.57)" gradientUnits="userSpaceOnUse"><stop offset="0" stop-color="#edf1fd"/><stop offset="1" stop-color="#e1e5f1"/></linearGradient></defs><title>资产图标</title><path class="cls-1" d="M106.69,95.15c-.34,3.67-2.94,7.28-7.79,10.08-10.45,6-27.38,6-37.83,0l-41.65-24c-4.24-2.45-6.44-5.62-6.61-8.83h0a5.34,5.34,0,0,1,0-.8V50.85H60.5v6.92c9.88-.46,20,1.5,27.59,5.86,4.94,2.85,8.1,6.35,9.47,10h9.15V93.71a8,8,0,0,1,0,1.2v.24Z"/><path class="cls-2" d="M19.42,60.68c-8.83-5.1-8.83-13.36,0-18.46,7.16-4.14,17.94-4.92,26.47-2.34,13.39-4.43,30.76-3.35,42.2,3.25,8.91,5.14,12,12.37,9.32,19,.51.26,1,.52,1.49.8,10.44,6,10.44,15.81,0,21.84s-27.38,6-37.83,0l-22.5-13h0Z"/><path class="cls-3" d="M106.69,71.15c-.34,3.67-2.94,7.28-7.79,10.08-10.45,6-27.38,6-37.83,0L19.42,57.18c-4.24-2.45-6.44-5.62-6.61-8.83h0a5.34,5.34,0,0,1,0-.8V26.85H60.5v6.92c9.88-.46,20,1.5,27.59,5.86,4.94,2.85,8.1,6.35,9.47,10h9.15V69.71a8,8,0,0,1,0,1.2v.24Z"/><path class="cls-4" d="M19.6,50c1.43.83,2.6.16,2.6-1.5A5.76,5.76,0,0,0,19.6,44c-1.44-.83-2.6-.16-2.6,1.5A5.73,5.73,0,0,0,19.6,50Zm7,4c1.43.83,2.6.16,2.6-1.5A5.76,5.76,0,0,0,26.6,48c-1.44-.83-2.6-.16-2.6,1.5A5.73,5.73,0,0,0,26.6,54Z"/><path class="cls-5" d="M19.42,36.68c-8.83-5.1-8.83-13.36,0-18.46,7.16-4.14,17.94-4.92,26.47-2.34,13.39-4.43,30.76-3.35,42.2,3.25,8.91,5.14,12,12.37,9.32,19,.51.26,1,.52,1.49.8,10.44,6,10.44,15.81,0,21.84s-27.38,6-37.83,0l-22.5-13h0Z"/><g class="cls-6"><path class="cls-7" d="M89.26,35c1.19.69,1.28,1.79.18,2.54L83,41.27,52.77,23.81l6.43-3.73a4.85,4.85,0,0,1,4.3.05L89.18,35ZM67.61,28.9l2.52-1.47-7.57-4.36-2.51,1.46,7.56,4.37m8,4.6a2.74,2.74,0,0,0,2.48-.09.79.79,0,0,0,.34-.93,1.12,1.12,0,0,0-.52-.54,2.93,2.93,0,0,0-1.81-.31,1.57,1.57,0,0,0-1.26.73c-.1.39.13.77.6,1l0,0,.12.07m4.19,2.42a2.94,2.94,0,0,0,2.51-.05c.6-.45.52-1.09-.17-1.5h0a3,3,0,0,0-2.58,0c-.61.45-.53,1.1.17,1.5l.1.05"/></g><g class="cls-6"><path class="cls-7" d="M50.12,25.17,80.37,42.63l-8.51,4.95L41.73,30.18Zm6.49,10.12,2.49-1.45-7.56-4.37L49,30.92l7.57,4.37m9.12,4.81a1.89,1.89,0,0,0,1.62-.63c.23-.4.05-.84-.46-1.14l0,0a3,3,0,0,0-2.6,0c-.48.32-.59.78-.27,1.16a1.47,1.47,0,0,0,.38.31,3,3,0,0,0,1.37.36m3,2.22a3,3,0,0,0,2.58,0c.6-.44.53-1.08-.17-1.48l0,0a2.92,2.92,0,0,0-2.58,0c-.6.45-.52,1.09.17,1.49l0,0"/></g><g class="cls-6"><path class="cls-7" d="M42,32.66,69.91,48.78l-7,4.07a3.46,3.46,0,0,1-3.06,0l-27-15.59-.08,0c-.86-.5-.87-1.28,0-1.77l7-4.07Zm4.1,8.74L48.59,40,41,35.58,38.53,37l7.56,4.37m12.17,7a2.84,2.84,0,0,0,2.54,0c.67-.39.7-1,.07-1.42l-.07,0a2.77,2.77,0,0,0-2.45,0c-.74.37-.8,1-.15,1.45l0,0h0M54,45.94a2.81,2.81,0,0,0,2.54,0c.67-.39.7-1,.07-1.42l-.07,0a2.81,2.81,0,0,0-2.45,0c-.74.38-.8,1-.15,1.46l0,0h0"/></g></svg>