<svg id="图层_1" data-name="图层 1" xmlns="http://www.w3.org/2000/svg" xmlns:xlink="http://www.w3.org/1999/xlink" viewBox="0 0 120 120"><defs><style>.cls-1{fill:url(#未命名的渐变_12);}.cls-2{fill:url(#未命名的渐变_6);}.cls-3{isolation:isolate;}.cls-4{fill:#5691f7;}</style><linearGradient id="未命名的渐变_12" x1="100" y1="-1123.25" x2="20.27" y2="-1123.25" gradientTransform="matrix(1, 0, 0, -1, 0, -1052.17)" gradientUnits="userSpaceOnUse"><stop offset="0" stop-color="#e8ecf8"/><stop offset="0.22" stop-color="#d9dfee"/><stop offset="0.86" stop-color="#b4bdd8"/><stop offset="1" stop-color="#bec5dc"/></linearGradient><linearGradient id="未命名的渐变_6" x1="58.45" y1="-1059.36" x2="61.55" y2="-1110.22" gradientTransform="matrix(1, 0, 0, -1, 0, -1052.17)" gradientUnits="userSpaceOnUse"><stop offset="0" stop-color="#edf1fd"/><stop offset="1" stop-color="#e1e5f1"/></linearGradient></defs><title>资产图标</title><path class="cls-1" d="M100,32H20V86.47h0c-.25,6.09,3.65,12.22,11.7,16.87,15.62,9,40.94,9,56.56,0,8-4.65,12-10.78,11.7-16.87h0Z"/><path class="cls-2" d="M31.72,16.26c15.62-9,40.94-9,56.56,0s15.62,23.64,0,32.66-40.94,9-56.56,0S16.1,25.28,31.72,16.26Z"/><g class="cls-3"><path class="cls-4" d="M70,22.83,43.31,38.32,33.06,32.4c-2.12-1.23-2.13-3.21,0-4.43l19-11.06a8.39,8.39,0,0,1,7.65,0Z"/></g><g class="cls-3"><polygon class="cls-4" points="77.91 25.21 47.45 42.91 43.42 40.58 73.88 22.88 77.91 25.21"/></g><g class="cls-3"><polygon class="cls-4" points="54.04 42.31 50.23 44.52 49.46 44.07 53.26 41.86 54.04 42.31"/></g><g class="cls-3"><polygon class="cls-4" points="57.15 44.1 53.35 46.32 51.79 45.42 55.6 43.2 57.15 44.1"/></g><g class="cls-3"><polygon class="cls-4" points="80.7 26.82 79.74 27.37 76.89 29.03 76.11 28.58 79.92 26.37 80.7 26.82"/></g><g class="cls-3"><polygon class="cls-4" points="83.81 28.61 80 30.83 78.45 29.93 82.25 27.71 83.81 28.61"/></g><g class="cls-3"><path class="cls-4" d="M86.15,30a7.09,7.09,0,0,1,1,.71L86,31.11,83.8,32l-1.13.43a1.47,1.47,0,0,0-.33-.23l-.78-.45,3.81-2.22Z"/><path class="cls-4" d="M88.38,32.37a2.77,2.77,0,0,1,0,1.82L87.06,34l-2.65-.3-1.32-.15a1,1,0,0,0,0-.61l1.33-.16,2.64-.3Z"/><path class="cls-4" d="M87.18,35.89a6.6,6.6,0,0,1-.92.67l-1,.6L81.4,34.94l.95-.55a1.72,1.72,0,0,0,.34-.24l1.12.44,2.25.87Z"/></g><g class="cls-3"><polygon class="cls-4" points="83.33 38.26 81.42 39.37 77.59 37.16 79.5 36.05 83.33 38.26"/></g><g class="cls-3"><polygon class="cls-4" points="79.52 40.47 77.62 41.58 73.78 39.37 75.69 38.26 79.52 40.47"/></g><g class="cls-3"><polygon class="cls-4" points="75.71 42.69 73.81 43.79 69.98 41.58 71.88 40.47 75.71 42.69"/></g><g class="cls-3"><polygon class="cls-4" points="71.91 44.9 70 46.01 66.17 43.79 68.07 42.69 71.91 44.9"/></g><g class="cls-3"><path class="cls-4" d="M68.1,47.11l-1,.56a9.2,9.2,0,0,1-1.22.58l-.75-.65-1.51-1.3-.76-.65a3.11,3.11,0,0,0,.41-.2l1-.55Z"/><path class="cls-4" d="M59.9,45.65l-.75.65-1.49,1.3-.75.65a10,10,0,0,1-1.23-.58l-.77-.45L58.71,45l.78.45A2.6,2.6,0,0,0,59.9,45.65Z"/><path class="cls-4" d="M61.93,45.88l.28.77.52,1.53L63,49a13.91,13.91,0,0,1-3.16,0l.26-.77.51-1.53.27-.77A4.61,4.61,0,0,0,61.93,45.88Z"/></g></svg>