<svg id="图层_1" data-name="图层 1" xmlns="http://www.w3.org/2000/svg" xmlns:xlink="http://www.w3.org/1999/xlink" viewBox="0 0 120 120"><defs><style>.cls-1{fill:url(#未命名的渐变_7);}.cls-2{fill:url(#未命名的渐变_8);}.cls-3{fill:#7587ba;fill-rule:evenodd;}.cls-4{fill:url(#未命名的渐变_7-2);}.cls-5{fill:url(#未命名的渐变_6);}</style><linearGradient id="未命名的渐变_7" x1="100" y1="-569.31" x2="20.27" y2="-569.31" gradientTransform="matrix(1, 0, 0, -1, 0, -483.74)" gradientUnits="userSpaceOnUse"><stop offset="0" stop-color="#e8ecf8"/><stop offset="0.22" stop-color="#d9dfee"/><stop offset="0.86" stop-color="#b4bdd8"/><stop offset="1" stop-color="#bec5dc"/></linearGradient><linearGradient id="未命名的渐变_8" x1="40" y1="-511.19" x2="79.92" y2="-580.34" gradientTransform="matrix(1, 0, 0, -1, 0, -483.74)" gradientUnits="userSpaceOnUse"><stop offset="0" stop-color="#9da4b9"/><stop offset="1" stop-color="#808bab"/></linearGradient><linearGradient id="未命名的渐变_7-2" y1="-541.81" x2="20.27" y2="-541.81" xlink:href="#未命名的渐变_7"/><linearGradient id="未命名的渐变_6" x1="58.45" y1="-492.92" x2="61.55" y2="-543.78" gradientTransform="matrix(1, 0, 0, -1, 0, -483.74)" gradientUnits="userSpaceOnUse"><stop offset="0" stop-color="#edf1fd"/><stop offset="1" stop-color="#e1e5f1"/></linearGradient></defs><title>资产图标</title><path class="cls-1" d="M100,61.54H20V86h0c-.25,6.09,3.65,12.22,11.7,16.87,15.62,9,40.94,9,56.56,0,8-4.65,12-10.78,11.7-16.87h0Z"/><path class="cls-2" d="M31.72,45.76c15.62-9,40.94-9,56.56,0s15.62,23.64,0,32.66-40.94,9-56.56,0S16.1,54.78,31.72,45.76Z"/><path class="cls-3" d="M93.6,82.5c1.43-.83,2.6-.16,2.6,1.5a5.76,5.76,0,0,1-2.6,4.5c-1.44.83-2.6.16-2.6-1.5A5.73,5.73,0,0,1,93.6,82.5Zm-7,5c1.43-.83,2.6-.16,2.6,1.5a5.76,5.76,0,0,1-2.6,4.5c-1.44.83-2.6.16-2.6-1.5A5.73,5.73,0,0,1,86.6,87.5Z"/><path class="cls-4" d="M100,34H20V58.47h0c-.25,6.09,3.65,12.22,11.7,16.87,15.62,9,40.94,9,56.56,0,8-4.65,12-10.78,11.7-16.87h0Z"/><path class="cls-5" d="M31.72,18.26c15.62-9,40.94-9,56.56,0s15.62,23.64,0,32.66-40.94,9-56.56,0S16.1,27.28,31.72,18.26Z"/><path class="cls-3" d="M93.6,56.5c1.43-.83,2.6-.16,2.6,1.5a5.76,5.76,0,0,1-2.6,4.5c-1.44.83-2.6.16-2.6-1.5A5.73,5.73,0,0,1,93.6,56.5Zm-7,5c1.43-.83,2.6-.16,2.6,1.5a5.76,5.76,0,0,1-2.6,4.5c-1.44.83-2.6.16-2.6-1.5A5.73,5.73,0,0,1,86.6,61.5Z"/></svg>