<svg id="图层_1" data-name="图层 1" xmlns="http://www.w3.org/2000/svg" xmlns:xlink="http://www.w3.org/1999/xlink" viewBox="0 0 120 120"><defs><style>.cls-1{fill:url(#未命名的渐变_17);}.cls-2{fill:url(#未命名的渐变_16);}.cls-3{fill:url(#未命名的渐变_15);}.cls-4{fill:url(#未命名的渐变_17-2);}.cls-5{fill:url(#未命名的渐变_16-2);}.cls-6{fill:url(#未命名的渐变_15-2);}</style><linearGradient id="未命名的渐变_17" x1="34.3" y1="-1144.89" x2="39.91" y2="-1131.17" gradientTransform="matrix(1, 0, 0, -1, 0, -1052.17)" gradientUnits="userSpaceOnUse"><stop offset="0" stop-color="#618aff"/><stop offset="1" stop-color="#3261e4"/></linearGradient><linearGradient id="未命名的渐变_16" x1="80.9" y1="-1129.57" x2="85.26" y2="-1145.52" gradientTransform="matrix(1, 0, 0, -1, 0, -1052.17)" gradientUnits="userSpaceOnUse"><stop offset="0" stop-color="#7394f3"/><stop offset="1" stop-color="#7d9efc"/></linearGradient><linearGradient id="未命名的渐变_15" x1="70.56" y1="-1095.98" x2="49.44" y2="-1141.19" gradientTransform="matrix(1, 0, 0, -1, 0, -1052.17)" gradientUnits="userSpaceOnUse"><stop offset="0" stop-color="#88a7ff"/><stop offset="1" stop-color="#a3bbff"/></linearGradient><linearGradient id="未命名的渐变_17-2" x1="43.87" y1="-1122.06" x2="43.87" y2="-1084.81" xlink:href="#未命名的渐变_17"/><linearGradient id="未命名的渐变_16-2" x1="144.36" y1="-1475.15" x2="124.53" y2="-1497.07" gradientTransform="matrix(0.87, -0.5, 0, -1, -37.27, -1366.91)" xlink:href="#未命名的渐变_16"/><linearGradient id="未命名的渐变_15-2" x1="67.14" y1="-1066.54" x2="52.86" y2="-1097.12" xlink:href="#未命名的渐变_15"/></defs><title>资产图标</title><path class="cls-1" d="M12.3,66.41,60,94v16L12.3,82.43Z"/><path class="cls-2" d="M60,94l47.7-27.54v16L60,110Z"/><path class="cls-3" d="M60,38.87l47.7,27.54L60,94,12.3,66.41Z"/><path class="cls-4" d="M27.74,29.66,60,48.28V85.53L27.74,66.91Z"/><polygon class="cls-5" points="60 48.28 92.26 29.66 92.26 66.91 60 85.53 60 48.28"/><path class="cls-6" d="M60,11,92.26,29.66,60,48.28,27.74,29.66Z"/></svg>