<svg id="图层_1" data-name="图层 1" xmlns="http://www.w3.org/2000/svg" xmlns:xlink="http://www.w3.org/1999/xlink" viewBox="0 0 120 120"><defs><style>.cls-1{fill:url(#未命名的渐变_12);}.cls-2{fill:url(#未命名的渐变_9);}.cls-3{isolation:isolate;}.cls-4{fill:#1e9cef;}</style><linearGradient id="未命名的渐变_12" x1="100" y1="-1123.25" x2="20.27" y2="-1123.25" gradientTransform="matrix(1, 0, 0, -1, 0, -1052.17)" gradientUnits="userSpaceOnUse"><stop offset="0" stop-color="#e8ecf8"/><stop offset="0.22" stop-color="#d9dfee"/><stop offset="0.86" stop-color="#b4bdd8"/><stop offset="1" stop-color="#bec5dc"/></linearGradient><linearGradient id="未命名的渐变_9" x1="58.45" y1="-1059.36" x2="61.55" y2="-1110.22" gradientTransform="matrix(1, 0, 0, -1, 0, -1052.17)" gradientUnits="userSpaceOnUse"><stop offset="0" stop-color="#edf1fd"/><stop offset="1" stop-color="#e1e5f1"/></linearGradient></defs><title>资产图标</title><path class="cls-1" d="M100,32H20V86.47h0c-.25,6.09,3.65,12.22,11.7,16.87,15.62,9,40.94,9,56.56,0,8-4.65,12-10.78,11.7-16.87h0Z"/><path class="cls-2" d="M31.72,16.26c15.62-9,40.94-9,56.56,0s15.62,23.64,0,32.66-40.94,9-56.56,0S16.1,25.28,31.72,16.26Z"/><g class="cls-3"><polygon class="cls-4" points="79.11 25.73 74.8 28.23 70.11 25.53 74.42 23.03 79.11 25.73"/></g><g class="cls-3"><polygon class="cls-4" points="52.25 22.08 48.08 24.5 43.39 21.8 47.56 19.37 52.25 22.08"/><polygon class="cls-4" points="62.87 22.33 58.64 24.79 53.95 22.08 58.19 19.62 62.87 22.33"/><polygon class="cls-4" points="57.79 25.28 53.62 27.7 48.94 25 53.1 22.57 57.79 25.28"/><polygon class="cls-4" points="68.42 25.53 64.18 27.99 59.49 25.28 63.73 22.82 68.42 25.53"/><polygon class="cls-4" points="63.34 28.48 59.17 30.9 54.48 28.2 58.65 25.77 63.34 28.48"/><polygon class="cls-4" points="73.96 28.73 69.72 31.19 65.03 28.48 69.27 26.02 73.96 28.73"/><polygon class="cls-4" points="68.87 31.68 64.7 34.1 60.02 31.39 64.18 28.97 68.87 31.68"/><polygon class="cls-4" points="74.42 34.88 70.25 37.3 65.56 34.59 69.73 32.17 74.42 34.88"/><path class="cls-4" d="M83.2,35.62l.36.94A4,4,0,0,1,82,40.87a15,15,0,0,1,2,1,6,6,0,0,1,2.64,2.37l.07.86c-.35.13-1.56.33-1.77.37a13.44,13.44,0,0,1-9.64-1.89,50.88,50.88,0,0,1-37.69-5.08c-5.12-3-7.55-6.15-7.07-9.48s4.07-6.73,8.31-8.45l31,17.89A13.41,13.41,0,0,0,74,39.93c.77-2,4.37-3.7,7.62-4.11Z"/></g></svg>