<svg id="图层_1" data-name="图层 1" xmlns="http://www.w3.org/2000/svg" xmlns:xlink="http://www.w3.org/1999/xlink" viewBox="0 0 120 120"><defs><style>.cls-1{fill:url(#未命名的渐变_17);}.cls-2{fill:url(#未命名的渐变_16);}.cls-3{fill:url(#未命名的渐变_18);}.cls-4{fill:#d6e0ff;fill-rule:evenodd;}.cls-5{fill:url(#未命名的渐变_17-2);}.cls-6{fill:url(#未命名的渐变_16-2);}.cls-7{fill:url(#未命名的渐变_15);}</style><linearGradient id="未命名的渐变_17" x1="35.95" y1="-1144.79" x2="42.61" y2="-1121.71" gradientTransform="matrix(1, 0, 0, -1, 0, -1052.17)" gradientUnits="userSpaceOnUse"><stop offset="0" stop-color="#618aff"/><stop offset="1" stop-color="#3261e4"/></linearGradient><linearGradient id="未命名的渐变_16" x1="80.46" y1="-1119.13" x2="81.93" y2="-1145.79" gradientTransform="matrix(1, 0, 0, -1, 0, -1052.17)" gradientUnits="userSpaceOnUse"><stop offset="0" stop-color="#7394f3"/><stop offset="1" stop-color="#7d9efc"/></linearGradient><linearGradient id="未命名的渐变_18" x1="59.8" y1="-1087.17" x2="59.8" y2="-1137.17" gradientTransform="matrix(1, 0, 0, -1, 0, -1052.17)" gradientUnits="userSpaceOnUse"><stop offset="0" stop-color="#5983f8"/><stop offset="1" stop-color="#3258c2"/></linearGradient><linearGradient id="未命名的渐变_17-2" x1="35.95" y1="-1116.79" x2="42.61" y2="-1093.71" xlink:href="#未命名的渐变_17"/><linearGradient id="未命名的渐变_16-2" x1="80.46" y1="-1091.13" x2="81.93" y2="-1117.79" xlink:href="#未命名的渐变_16"/><linearGradient id="未命名的渐变_15" x1="69.39" y1="-1063.65" x2="50.21" y2="-1104.7" gradientTransform="matrix(1, 0, 0, -1, 0, -1052.17)" gradientUnits="userSpaceOnUse"><stop offset="0" stop-color="#88a7ff"/><stop offset="1" stop-color="#a3bbff"/></linearGradient></defs><title>资产图标</title><path class="cls-1" d="M16.5,60,59.8,85v25L16.5,85Z"/><path class="cls-2" d="M59.8,85l43.3-25V85L59.8,110Z"/><path class="cls-3" d="M59.8,35l43.3,25L59.8,85,16.5,60Z"/><path class="cls-4" d="M25.2,77.5c0,1.66-1.17,2.33-2.6,1.5A5.73,5.73,0,0,1,20,74.5c0-1.66,1.16-2.33,2.6-1.5A5.76,5.76,0,0,1,25.2,77.5Zm7,4c0,1.66-1.17,2.33-2.6,1.5A5.73,5.73,0,0,1,27,78.5c0-1.66,1.16-2.33,2.6-1.5A5.76,5.76,0,0,1,32.2,81.5Zm7,2.5c-.95-.55-1.73-.1-1.73,1a3.85,3.85,0,0,0,1.73,3L54,96.5c1,.55,1.74.1,1.74-1a3.83,3.83,0,0,0-1.74-3Z"/><path class="cls-5" d="M16.5,32,59.8,57V82L16.5,57Z"/><path class="cls-6" d="M59.8,57l43.3-25V57L59.8,82Z"/><path class="cls-7" d="M59.8,7l43.3,25L59.8,57,16.5,32Z"/><path class="cls-4" d="M25.2,50.5c0,1.66-1.17,2.33-2.6,1.5A5.73,5.73,0,0,1,20,47.5c0-1.66,1.16-2.33,2.6-1.5A5.76,5.76,0,0,1,25.2,50.5Zm7,4c0,1.66-1.17,2.33-2.6,1.5A5.73,5.73,0,0,1,27,51.5c0-1.66,1.16-2.33,2.6-1.5A5.76,5.76,0,0,1,32.2,54.5Zm7,2c-.95-.55-1.73-.1-1.73,1a3.85,3.85,0,0,0,1.73,3L54,69c1,.55,1.74.1,1.74-1A3.83,3.83,0,0,0,54,65Z"/></svg>