<svg id="图层_1" data-name="图层 1" xmlns="http://www.w3.org/2000/svg" xmlns:xlink="http://www.w3.org/1999/xlink" viewBox="0 0 120 120"><defs><style>.cls-1{fill:url(#未命名的渐变_30);}.cls-2{fill:url(#未命名的渐变_28);}.cls-3{fill:url(#未命名的渐变_27);}.cls-4{fill:url(#未命名的渐变_30-2);}.cls-5{fill:url(#未命名的渐变_28-2);}.cls-6{fill:url(#未命名的渐变_27-2);}.cls-7{fill:url(#未命名的渐变_29);}.cls-8{fill:url(#未命名的渐变_28-3);}.cls-9{fill:url(#未命名的渐变_27-3);}.cls-10{fill:#d6e0ff;fill-rule:evenodd;}</style><linearGradient id="未命名的渐变_30" x1="44.23" y1="-1348.53" x2="98.33" y2="-1413.41" gradientTransform="matrix(1, 0, 0, -1, 0, -1329.22)" gradientUnits="userSpaceOnUse"><stop offset="0" stop-color="#5983f8"/><stop offset="1" stop-color="#3258c2"/></linearGradient><linearGradient id="未命名的渐变_28" x1="279.24" y1="-2338.03" x2="265.33" y2="-2341.53" gradientTransform="matrix(0.87, -0.5, 0, -1, -137.5, -2145.61)" gradientUnits="userSpaceOnUse"><stop offset="0" stop-color="#7394f3"/><stop offset="1" stop-color="#7d9efc"/></linearGradient><linearGradient id="未命名的渐变_27" x1="79.51" y1="-1345.16" x2="73.88" y2="-1355.52" gradientTransform="matrix(1, 0, 0, -1, 0, -1329.22)" gradientUnits="userSpaceOnUse"><stop offset="0" stop-color="#88a7ff"/><stop offset="1" stop-color="#a3bbff"/></linearGradient><linearGradient id="未命名的渐变_30-2" x1="27.43" y1="-1358.28" x2="81.54" y2="-1423.16" xlink:href="#未命名的渐变_30"/><linearGradient id="未命名的渐变_28-2" x1="279.24" y1="-2338.03" x2="265.33" y2="-2341.53" gradientTransform="matrix(0.87, -0.5, 0, -1, -154.29, -2135.86)" xlink:href="#未命名的渐变_28"/><linearGradient id="未命名的渐变_27-2" x1="62.72" y1="-1354.91" x2="57.08" y2="-1365.27" xlink:href="#未命名的渐变_27"/><linearGradient id="未命名的渐变_29" x1="39.98" y1="-1418.32" x2="33.04" y2="-1364.21" gradientTransform="matrix(1, 0, 0, -1, 0, -1329.22)" gradientUnits="userSpaceOnUse"><stop offset="0" stop-color="#618aff"/><stop offset="1" stop-color="#3261e4"/></linearGradient><linearGradient id="未命名的渐变_28-3" x1="279.24" y1="-2338.03" x2="265.33" y2="-2341.53" gradientTransform="matrix(0.87, -0.5, 0, -1, -171.09, -2126.11)" xlink:href="#未命名的渐变_28"/><linearGradient id="未命名的渐变_27-3" x1="45.92" y1="-1364.66" x2="40.28" y2="-1375.02" xlink:href="#未命名的渐变_27"/></defs><title>资产图标</title><path class="cls-1" d="M51.8,13l39,22.5v55L51.8,68Z"/><polygon class="cls-2" points="90.77 35.5 101.59 29.25 101.59 84.25 90.77 90.5 90.77 35.5"/><path class="cls-3" d="M62.62,6.75l39,22.5L90.77,35.5,51.8,13Z"/><path class="cls-4" d="M35,22.75l39,22.5v55L35,77.75Z"/><polygon class="cls-5" points="73.97 45.25 84.8 39 84.8 94 73.97 100.25 73.97 45.25"/><path class="cls-6" d="M45.83,16.5,84.8,39,74,45.25,35,22.75Z"/><path class="cls-7" d="M18.2,32.5l39,22.5v55l-39-22.5Z"/><polygon class="cls-8" points="57.17 55 68 48.75 68 103.75 57.17 110 57.17 55"/><path class="cls-9" d="M29,26.25l39,22.5L57.17,55l-39-22.5Z"/><path class="cls-10" d="M23,43.75c0-.55.39-.78.87-.5l16.45,9.5a1.92,1.92,0,0,1,.87,1.5v2c0,.55-.39.78-.87.5l-16.45-9.5a1.92,1.92,0,0,1-.87-1.5Zm0,7c0-.55.39-.78.87-.5L32.09,55A1.92,1.92,0,0,1,33,56.5v2c0,.55-.39.78-.87.5l-8.22-4.75a1.92,1.92,0,0,1-.87-1.5Zm.87,6.5c-.48-.28-.87,0-.87.5v2a1.92,1.92,0,0,0,.87,1.5l22.51,13c.48.28.87,0,.87-.5v-2a1.92,1.92,0,0,0-.87-1.5Z"/></svg>