<svg id="图层_1" data-name="图层 1" xmlns="http://www.w3.org/2000/svg" xmlns:xlink="http://www.w3.org/1999/xlink" viewBox="0 0 120 120"><defs><style>.cls-1{fill:url(#未命名的渐变_12);}.cls-2{fill:url(#未命名的渐变_13);}.cls-3{fill:url(#未命名的渐变_12-2);}.cls-4{fill:url(#未命名的渐变_13-2);}.cls-5{fill:url(#未命名的渐变_12-3);}.cls-6{fill:url(#未命名的渐变_6);}.cls-7{isolation:isolate;}.cls-8{fill:#005de8;}</style><linearGradient id="未命名的渐变_12" x1="100" y1="35.19" x2="20.27" y2="35.19" gradientTransform="matrix(1, 0, 0, -1, 0, 122)" gradientUnits="userSpaceOnUse"><stop offset="0" stop-color="#e8ecf8"/><stop offset="0.22" stop-color="#d9dfee"/><stop offset="0.86" stop-color="#b4bdd8"/><stop offset="1" stop-color="#bec5dc"/></linearGradient><linearGradient id="未命名的渐变_13" x1="40" y1="86.24" x2="79.92" y2="17.1" gradientTransform="matrix(1, 0, 0, -1, 0, 122)" gradientUnits="userSpaceOnUse"><stop offset="0" stop-color="#9da4b9"/><stop offset="1" stop-color="#808bab"/></linearGradient><linearGradient id="未命名的渐变_12-2" x1="100" y1="54.29" x2="20.27" y2="54.29" xlink:href="#未命名的渐变_12"/><linearGradient id="未命名的渐变_13-2" x1="40" y1="105.34" x2="79.92" y2="36.2" xlink:href="#未命名的渐变_13"/><linearGradient id="未命名的渐变_12-3" x1="100" y1="73.39" x2="20.27" y2="73.39" xlink:href="#未命名的渐变_12"/><linearGradient id="未命名的渐变_6" x1="58.45" y1="115.22" x2="61.55" y2="64.36" gradientTransform="matrix(1, 0, 0, -1, 0, 122)" gradientUnits="userSpaceOnUse"><stop offset="0" stop-color="#edf1fd"/><stop offset="1" stop-color="#e1e5f1"/></linearGradient></defs><title>资产图标</title><path class="cls-1" d="M20,86.27h0V69.85H32.87c15.3-8.17,39-8.17,54.26,0H100V86.27h0c.25,6.09-3.65,12.22-11.7,16.87-15.62,9-40.94,9-56.56,0C23.67,98.49,19.77,92.36,20,86.27Z"/><path class="cls-2" d="M31.72,54.06c15.62-9,40.94-9,56.56,0s15.62,23.64,0,32.66-40.94,9-56.56,0S16.1,63.08,31.72,54.06Z"/><path class="cls-3" d="M20,67.17h0V50.74H32.87c15.3-8.16,39-8.16,54.26,0H100V67.17h0c.25,6.09-3.65,12.22-11.7,16.87-15.62,9-40.94,9-56.56,0C23.67,79.39,19.77,73.26,20,67.17Z"/><path class="cls-4" d="M31.72,35c15.62-9,40.94-9,56.56,0s15.62,23.64,0,32.66-40.94,9-56.56,0S16.1,44,31.72,35Z"/><path class="cls-5" d="M20,48.07h0V31.64H32.87c15.3-8.16,39-8.16,54.26,0H100V48.07h0c.25,6.09-3.65,12.22-11.7,16.87-15.62,9-40.94,9-56.56,0C23.67,60.29,19.77,54.16,20,48.07Z"/><path class="cls-6" d="M31.72,15.86c15.62-9,40.94-9,56.56,0s15.62,23.64,0,32.66-40.94,9-56.56,0S16.1,24.88,31.72,15.86Z"/><g class="cls-7"><path class="cls-8" d="M51.15,22.75c1.25.72,2,1.62,1.88,2.4.21,1-.3,1.63-1.75,2.47a7.89,7.89,0,0,1-4.47,1.14,6.94,6.94,0,0,1-4.05-1.14l-1.46-.84,8.39-4.87Z"/><path class="cls-8" d="M62.29,29.18c1.56.9.84,1.57.53,1.75a3.52,3.52,0,0,1-1.76.42c-.21.12-.94-.06-1.87-.6l-1-.6L61,28.46Z"/><path class="cls-8" d="M57.32,32.07c2.29,1.32,1.36,1.86.43,2.29a3.5,3.5,0,0,1-1.76.42,3.37,3.37,0,0,1-2-.55l-1.46-.84,3.51-2Z"/><path class="cls-8" d="M83.69,30.63c2.19,1.26,2.2,3.3-.18,4.69L64.88,46.15a8.76,8.76,0,0,1-8.1.11L31.36,31.59c-2.18-1.26-2.09-3.37.18-4.69L50.17,16.07a8.79,8.79,0,0,1,8.1-.12Zm-36.45-.18a11.27,11.27,0,0,0,6.43-1.93c1.76-1,2.69-2.16,2.47-3.49,0-1.2-1.16-2.46-2.93-3.48L49.67,19.5,37.46,26.6l3.54,2a11.6,11.6,0,0,0,6.24,1.81m9.38,6c1.35.18,2.7-.12,3.11-.72A2.38,2.38,0,0,0,61,33.93c.31-.54-.22-1-.32-1.26h1.87a4.77,4.77,0,0,0,2.49-.6,2.36,2.36,0,0,0,1.23-1.93c.1-.66-.53-1.38-1.57-2l-3.54-2L48.92,33.21l3.75,2.17a7.94,7.94,0,0,0,3.95,1.08m10.62,5-4.69-2.7,3.63.06c2.29-.25,4-.18,5.09-.43a7.08,7.08,0,0,0,2.9-.84c1-.6,1.45-1.2,1.45-2,.1-.66-.32-1.26-1.57-2a8,8,0,0,0-4.47-1.39h-.42l-2.48,1.44h1a7.34,7.34,0,0,1,3.94.85c.63.36,1.15.66,1.15,1a6.94,6.94,0,0,1-1.13,1,4.63,4.63,0,0,1-1.76.66,21.49,21.49,0,0,1-4,.24L59,37.48l-1.56.91L65,42.72l2-1.15.1.06.21-.12"/></g></svg>