<svg id="图层_1" data-name="图层 1" xmlns="http://www.w3.org/2000/svg" xmlns:xlink="http://www.w3.org/1999/xlink" viewBox="0 0 120 120"><defs><style>.cls-1{fill:url(#未命名的渐变_12);}.cls-2{fill:url(#未命名的渐变_6);}.cls-3{isolation:isolate;}.cls-4{fill:#5691f7;}</style><linearGradient id="未命名的渐变_12" x1="100" y1="-1123.25" x2="20.27" y2="-1123.25" gradientTransform="matrix(1, 0, 0, -1, 0, -1052.17)" gradientUnits="userSpaceOnUse"><stop offset="0" stop-color="#e8ecf8"/><stop offset="0.22" stop-color="#d9dfee"/><stop offset="0.86" stop-color="#b4bdd8"/><stop offset="1" stop-color="#bec5dc"/></linearGradient><linearGradient id="未命名的渐变_6" x1="58.45" y1="-1059.36" x2="61.55" y2="-1110.22" gradientTransform="matrix(1, 0, 0, -1, 0, -1052.17)" gradientUnits="userSpaceOnUse"><stop offset="0" stop-color="#edf1fd"/><stop offset="1" stop-color="#e1e5f1"/></linearGradient></defs><title>资产图标</title><path class="cls-1" d="M100,32H20V86.47h0c-.25,6.09,3.65,12.22,11.7,16.87,15.62,9,40.94,9,56.56,0,8-4.65,12-10.78,11.7-16.87h0Z"/><path class="cls-2" d="M31.72,16.26c15.62-9,40.94-9,56.56,0s15.62,23.64,0,32.66-40.94,9-56.56,0S16.1,25.28,31.72,16.26Z"/><g class="cls-3"><path class="cls-4" d="M80.21,19.89a1.07,1.07,0,0,1,.44.43l3,6.27c.16.34,0,.71-.43,1l-7.75,4.5a2.6,2.6,0,0,1-1.68.26L63,30.58a2,2,0,0,1-.75-.25,1,1,0,0,1-.43-.43l-3-6.26a.77.77,0,0,1,.44-1L67,18.17a2.63,2.63,0,0,1,1.67-.26l10.82,1.73A2.38,2.38,0,0,1,80.21,19.89Z"/><path class="cls-4" d="M54.67,23.52a1.11,1.11,0,0,1,.43.43l3,6.27c.16.34,0,.71-.44,1l-7.75,4.5a2.6,2.6,0,0,1-1.66.26L37.45,34.21a2,2,0,0,1-.74-.25,1.1,1.1,0,0,1-.45-.43l-3-6.26c-.17-.35,0-.72.43-1l7.75-4.5a2.62,2.62,0,0,1,1.67-.26l10.82,1.73A2.47,2.47,0,0,1,54.67,23.52Z"/><path class="cls-4" d="M74,34.7a1.14,1.14,0,0,1,.44.43l3,6.26c.16.35,0,.72-.44,1l-7.75,4.5a2.54,2.54,0,0,1-1.66.26L56.81,45.39a2,2,0,0,1-.74-.25,1,1,0,0,1-.44-.43l-3-6.27c-.16-.34,0-.71.44-1L60.8,33a2.68,2.68,0,0,1,1.66-.25l10.82,1.73A2.21,2.21,0,0,1,74,34.7Z"/></g></svg>