<svg id="图层_1" data-name="图层 1" xmlns="http://www.w3.org/2000/svg" xmlns:xlink="http://www.w3.org/1999/xlink" viewBox="0 0 120 120"><defs><style>.cls-1{fill:url(#未命名的渐变_12);}.cls-2{fill:url(#未命名的渐变_6);}.cls-3{isolation:isolate;}.cls-4{fill:#8486f8;}</style><linearGradient id="未命名的渐变_12" x1="100" y1="-1123.25" x2="20.27" y2="-1123.25" gradientTransform="matrix(1, 0, 0, -1, 0, -1052.17)" gradientUnits="userSpaceOnUse"><stop offset="0" stop-color="#e8ecf8"/><stop offset="0.22" stop-color="#d9dfee"/><stop offset="0.86" stop-color="#b4bdd8"/><stop offset="1" stop-color="#bec5dc"/></linearGradient><linearGradient id="未命名的渐变_6" x1="58.45" y1="-1059.36" x2="61.55" y2="-1110.22" gradientTransform="matrix(1, 0, 0, -1, 0, -1052.17)" gradientUnits="userSpaceOnUse"><stop offset="0" stop-color="#edf1fd"/><stop offset="1" stop-color="#e1e5f1"/></linearGradient></defs><title>资产图标</title><path class="cls-1" d="M100,32H20V86.47h0c-.25,6.09,3.65,12.22,11.7,16.87,15.62,9,40.94,9,56.56,0,8-4.65,12-10.78,11.7-16.87h0Z"/><path class="cls-2" d="M31.72,16.26c15.62-9,40.94-9,56.56,0s15.62,23.64,0,32.66-40.94,9-56.56,0S16.1,25.28,31.72,16.26Z"/><g class="cls-3"><path class="cls-4" d="M70.1,19.33a54.7,54.7,0,0,0-10.77,3.05L52.79,18.6A42.54,42.54,0,0,1,70.1,19.33Z"/><path class="cls-4" d="M76.88,22l-9.12,5.3-7.12-4.11A53.33,53.33,0,0,1,72.23,20,29.41,29.41,0,0,1,76.88,22Z"/></g><g class="cls-3"><path class="cls-4" d="M57.8,23a70.56,70.56,0,0,0-7.08,3.48l-8-4.59A31,31,0,0,1,50.82,19Z"/></g><g class="cls-3"><path class="cls-4" d="M66.45,28l-6.53,3.8L52,27.25a71.73,71.73,0,0,1,7.09-3.48Z"/></g><g class="cls-3"><path class="cls-4" d="M49.42,27.26a49.54,49.54,0,0,0-6,4.12l-6.95-4a15.63,15.63,0,0,1,4.95-4.71Z"/></g><g class="cls-3"><path class="cls-4" d="M58.61,32.57l-6.53,3.79-7.33-4.22a51.19,51.19,0,0,1,6-4.12Z"/></g><g class="cls-3"><path class="cls-4" d="M78.2,22.71a18.48,18.48,0,0,1,3.41,2.71,19.5,19.5,0,0,1-5.41,6.7L69.08,28Z"/><path class="cls-4" d="M82.7,26.68a9,9,0,0,1,1.16,9.86l-6.35-3.66A20.72,20.72,0,0,0,82.7,26.68Z"/></g><g class="cls-3"><path class="cls-4" d="M75.1,33a52.45,52.45,0,0,1-6,4.12l-7.89-4.55,6.54-3.8Z"/></g><g class="cls-3"><path class="cls-4" d="M67.8,37.87a65.53,65.53,0,0,1-7.08,3.48l-7.33-4.23,6.53-3.79Z"/></g><g class="cls-3"><path class="cls-4" d="M83.21,37.69a16,16,0,0,1-5,4.68l-7.79-4.49a54,54,0,0,0,6-4.11Z"/></g><g class="cls-3"><path class="cls-4" d="M76.9,43.13A31.41,31.41,0,0,1,68.79,46L62,42.11a67.54,67.54,0,0,0,7.09-3.48Z"/></g><g class="cls-3"><path class="cls-4" d="M42.34,32.26a20.06,20.06,0,0,0-5.2,6.27,9.06,9.06,0,0,1-1.33-10Z"/><path class="cls-4" d="M50.77,37.13l-9.12,5.3a18.68,18.68,0,0,1-3.4-2.66c.62-1.51,2.1-3.87,5.42-6.74Z"/></g><g class="cls-3"><path class="cls-4" d="M59.17,42a52.88,52.88,0,0,1-11.56,3.16,30.53,30.53,0,0,1-4.63-2l9.1-5.29Z"/><path class="cls-4" d="M66.85,46.41a42.26,42.26,0,0,1-17.07-.64,53.85,53.85,0,0,0,10.73-3Z"/></g></svg>