<svg id="图层_1" data-name="图层 1" xmlns="http://www.w3.org/2000/svg" xmlns:xlink="http://www.w3.org/1999/xlink" viewBox="0 0 120 120"><defs><style>.cls-1{fill:url(#未命名的渐变_12);}.cls-2{fill:url(#未命名的渐变_13);}.cls-3{fill:url(#未命名的渐变_12-2);}.cls-4{fill:url(#未命名的渐变_13-2);}.cls-5{fill:url(#未命名的渐变_12-3);}.cls-6{fill:url(#未命名的渐变_6);}.cls-7{isolation:isolate;}.cls-8{fill:#1d2582;}.cls-9{fill:#d71d1e;}</style><linearGradient id="未命名的渐变_12" x1="100" y1="-570.55" x2="20.27" y2="-570.55" gradientTransform="matrix(1, 0, 0, -1, 0, -483.74)" gradientUnits="userSpaceOnUse"><stop offset="0" stop-color="#e8ecf8"/><stop offset="0.22" stop-color="#d9dfee"/><stop offset="0.86" stop-color="#b4bdd8"/><stop offset="1" stop-color="#bec5dc"/></linearGradient><linearGradient id="未命名的渐变_13" x1="40" y1="-519.49" x2="79.92" y2="-588.64" gradientTransform="matrix(1, 0, 0, -1, 0, -483.74)" gradientUnits="userSpaceOnUse"><stop offset="0" stop-color="#9da4b9"/><stop offset="1" stop-color="#808bab"/></linearGradient><linearGradient id="未命名的渐变_12-2" x1="100" y1="-551.45" x2="20.27" y2="-551.45" xlink:href="#未命名的渐变_12"/><linearGradient id="未命名的渐变_13-2" x1="40" y1="-500.39" x2="79.92" y2="-569.54" xlink:href="#未命名的渐变_13"/><linearGradient id="未命名的渐变_12-3" x1="100" y1="-532.35" x2="20.27" y2="-532.35" xlink:href="#未命名的渐变_12"/><linearGradient id="未命名的渐变_6" x1="58.45" y1="-490.52" x2="61.55" y2="-541.38" gradientTransform="matrix(1, 0, 0, -1, 0, -483.74)" gradientUnits="userSpaceOnUse"><stop offset="0" stop-color="#edf1fd"/><stop offset="1" stop-color="#e1e5f1"/></linearGradient></defs><title>资产图标</title><path class="cls-1" d="M20,86.27h0V69.85H32.87c15.3-8.17,39-8.17,54.26,0H100V86.27h0c.25,6.09-3.65,12.22-11.7,16.87-15.62,9-40.94,9-56.56,0C23.67,98.49,19.77,92.36,20,86.27Z"/><path class="cls-2" d="M31.72,54.06c15.62-9,40.94-9,56.56,0s15.62,23.64,0,32.66-40.94,9-56.56,0S16.1,63.08,31.72,54.06Z"/><path class="cls-3" d="M20,67.17h0V50.74H32.87c15.3-8.16,39-8.16,54.26,0H100V67.17h0c.25,6.09-3.65,12.22-11.7,16.87-15.62,9-40.94,9-56.56,0C23.67,79.39,19.77,73.26,20,67.17Z"/><path class="cls-4" d="M31.72,35c15.62-9,40.94-9,56.56,0s15.62,23.64,0,32.66-40.94,9-56.56,0S16.1,44,31.72,35Z"/><path class="cls-5" d="M20,48.07h0V31.64H32.87c15.3-8.16,39-8.16,54.26,0H100V48.07h0c.25,6.09-3.65,12.22-11.7,16.87-15.62,9-40.94,9-56.56,0C23.67,60.29,19.77,54.16,20,48.07Z"/><path class="cls-6" d="M31.72,15.86c15.62-9,40.94-9,56.56,0s15.62,23.64,0,32.66-40.94,9-56.56,0S16.1,24.88,31.72,15.86Z"/><g class="cls-7"><path class="cls-8" d="M50.91,20.94a22.8,22.8,0,0,0-3.09,2.26,3.36,3.36,0,0,0-1,3.28,9,9,0,0,0,2.57,3.39,8.91,8.91,0,0,1,2.1,2.33c.31,1,.13,1.73-.51,2.15a35,35,0,0,1-8.14,3.93,21.61,21.61,0,0,1-7.14-2.73c-4.75-2.74-8.62-7-3.63-10.06S43.47,20.8,50.91,20.94Z"/><path class="cls-9" d="M58.7,21.46c-2.25,1.31-11.39,4.24-3.9,9.67,2.81,2.64,1.78,4.33-4.43,7.57-.49.27-1,.54-1.49.79a33,33,0,0,1-4.05-.81c.9-.42,8.21-3.67,7.94-5.56s-1.31-2.71-2.88-3.91a6.58,6.58,0,0,1-1.69-2.83c-.36-1,.36-2.13,1.42-3a26.28,26.28,0,0,1,3.49-2.15A39.21,39.21,0,0,1,58.7,21.46Z"/><path class="cls-9" d="M64.41,22.23c-.88.45-9.17,3.89-7.44,6.84a8.56,8.56,0,0,0,1.57,2.16c.66.63,2.57,2.11,2.5,3.22a3.23,3.23,0,0,1-.7,1.85A16.83,16.83,0,0,1,56,39.51l-1.41.83a30.86,30.86,0,0,1-4.21-.49c1-.56,5.77-3,6.78-4.55s1-2.58-.31-3.57-3-2.76-3.13-3.83a3.61,3.61,0,0,1,2.14-3.82c1.46-.85,2.91-1.65,4.33-2.4A30.53,30.53,0,0,1,64.41,22.23Z"/><path class="cls-9" d="M69.71,23.31c-1.71.88-5.81,3-7.1,4.59a2.8,2.8,0,0,0,.5,4.27c1.37,1.14,3.29,3.49,2.11,5a9.07,9.07,0,0,1-2.89,2.56l-1.53.89q-2.73,0-4.56-.18c2.64-1.54,5.14-3,5.91-4.28s.72-2.33-.83-3.81-3.45-2.84-3-4.63c.33-1.19,2-2.51,5-4l2.54-1.23C67.24,22.75,68.51,23,69.71,23.31Z"/><path class="cls-8" d="M81.14,27.78q5.37,3.09,4.64,6.71-2.27,6.27-21.27,7.06a12.29,12.29,0,0,0,1.37-1c2.71-2.43,2.89-4,1.9-5.34s-5.58-4-3-6.56a28.86,28.86,0,0,1,8-4.34A42.14,42.14,0,0,1,81.14,27.78Z"/></g></svg>