<svg id="图层_1" data-name="图层 1" xmlns="http://www.w3.org/2000/svg" xmlns:xlink="http://www.w3.org/1999/xlink" viewBox="0 0 120 120"><defs><style>.cls-1{fill:url(#未命名的渐变_12);}.cls-2{fill:url(#未命名的渐变_6);}.cls-3{isolation:isolate;}.cls-4{fill:#5691f7;}</style><linearGradient id="未命名的渐变_12" x1="100" y1="-1123.25" x2="20.27" y2="-1123.25" gradientTransform="matrix(1, 0, 0, -1, 0, -1052.17)" gradientUnits="userSpaceOnUse"><stop offset="0" stop-color="#e8ecf8"/><stop offset="0.22" stop-color="#d9dfee"/><stop offset="0.86" stop-color="#b4bdd8"/><stop offset="1" stop-color="#bec5dc"/></linearGradient><linearGradient id="未命名的渐变_6" x1="58.45" y1="-1059.36" x2="61.55" y2="-1110.22" gradientTransform="matrix(1, 0, 0, -1, 0, -1052.17)" gradientUnits="userSpaceOnUse"><stop offset="0" stop-color="#edf1fd"/><stop offset="1" stop-color="#e1e5f1"/></linearGradient></defs><title>资产图标</title><path class="cls-1" d="M100,32H20V86.47h0c-.25,6.09,3.65,12.22,11.7,16.87,15.62,9,40.94,9,56.56,0,8-4.65,12-10.78,11.7-16.87h0Z"/><path class="cls-2" d="M31.72,16.26c15.62-9,40.94-9,56.56,0s15.62,23.64,0,32.66-40.94,9-56.56,0S16.1,25.28,31.72,16.26Z"/><g class="cls-3"><path class="cls-4" d="M76,17.78l.21.13a7.55,7.55,0,0,1,.89.65,1.37,1.37,0,0,1,.28.3c.81.95.88,2.1.23,4.71L38.79,34.15a6.54,6.54,0,0,1,.38-1.06,2.79,2.79,0,0,0,.06-2.46A5.31,5.31,0,0,0,37.32,29a10.4,10.4,0,0,0-1.11-.55,8.94,8.94,0,0,0-4.76-.25c-2.17.69-3.2,2.23-2.35,3.59a3,3,0,0,0,.93.82,4.43,4.43,0,0,0,1.08.44,6.4,6.4,0,0,0,2.89,0c1.44-.33,2.23-1.3,1.67-2.19a1.53,1.53,0,0,0-.5-.43,2.53,2.53,0,0,0-.63-.26,3.22,3.22,0,0,0-1.6-.05c-.76.16-1.2.7-.88,1.16.21.3-.15.65-.72.7a1.35,1.35,0,0,1-.72-.16.83.83,0,0,1-.24-.21c-.57-1,.31-2.09,2-2.46a6.5,6.5,0,0,1,3,.07,4,4,0,0,1,1.14.44,2.54,2.54,0,0,1,.91.83c.88,1.39-.35,3-2.75,3.51A9.28,9.28,0,0,1,30.39,34a6.78,6.78,0,0,1-1.6-.65,3.89,3.89,0,0,1-1.33-1.19c-1.17-1.74,0-3.64,2.5-4.66l.2-.07A8.1,8.1,0,0,1,31.44,27l35.05-9.85C69.81,16.24,73.42,16.3,76,17.78Z"/><path class="cls-4" d="M77.4,24.48c-.12.9.17,1.64,1.06,3.15a8.5,8.5,0,0,0,.93,1.28,19.67,19.67,0,0,0,5.23,4.18,53.55,53.55,0,0,0,5.31,2.78c.16.07.42.15.6.25s.19.15.16.24L58.85,48.25a5.41,5.41,0,0,1-2,.21c-2.59-.18-7.79-1.89-12.09-4.37a25,25,0,0,1-3.54-2.44,6.81,6.81,0,0,1-2.76-4.92v-.09a5.68,5.68,0,0,1,.09-1.31Z"/></g></svg>