<svg id="图层_1" data-name="图层 1" xmlns="http://www.w3.org/2000/svg" xmlns:xlink="http://www.w3.org/1999/xlink" viewBox="0 0 120 120"><defs><style>.cls-1{fill:url(#未命名的渐变_12);}.cls-2{fill:url(#未命名的渐变_9);}.cls-3{fill:url(#未命名的渐变_12-2);}.cls-4{fill:url(#未命名的渐变_9-2);}.cls-5{fill:url(#未命名的渐变_12-3);}.cls-6{fill:url(#未命名的渐变_9-3);}</style><linearGradient id="未命名的渐变_12" x1="64.7" y1="-542.35" x2="17.22" y2="-542.35" gradientTransform="matrix(1, 0, 0, -1, 0, -483.74)" gradientUnits="userSpaceOnUse"><stop offset="0" stop-color="#e8ecf8"/><stop offset="0.22" stop-color="#d9dfee"/><stop offset="0.86" stop-color="#b4bdd8"/><stop offset="1" stop-color="#bec5dc"/></linearGradient><linearGradient id="未命名的渐变_9" x1="39.96" y1="-492.69" x2="41.8" y2="-522.98" gradientTransform="matrix(1, 0, 0, -1, 0, -483.74)" gradientUnits="userSpaceOnUse"><stop offset="0" stop-color="#edf1fd"/><stop offset="1" stop-color="#e1e5f1"/></linearGradient><linearGradient id="未命名的渐变_12-2" x1="102.94" y1="-560.25" x2="61.13" y2="-560.25" xlink:href="#未命名的渐变_12"/><linearGradient id="未命名的渐变_9-2" x1="81.15" y1="-521.75" x2="82.78" y2="-548.43" xlink:href="#未命名的渐变_9"/><linearGradient id="未命名的渐变_12-3" x1="64.7" y1="-575.37" x2="35.08" y2="-575.37" xlink:href="#未命名的渐变_12"/><linearGradient id="未命名的渐变_9-3" x1="49.27" y1="-548.1" x2="50.42" y2="-567" xlink:href="#未命名的渐变_9"/></defs><title>资产图标</title><path class="cls-1" d="M64.7,23.76H17.06V79.39h0c-.15,3.63,2.17,7.28,7,10,9.3,5.37,24.38,5.37,33.68,0,4.79-2.77,7.11-6.42,7-10h0Z"/><path class="cls-2" d="M24,14.36C33.34,9,48.42,9,57.72,14.36s9.3,14.08,0,19.45-24.38,5.37-33.68,0S14.74,19.73,24,14.36Z"/><path class="cls-3" d="M102.94,51.05H61V89.58h0c-.12,3.19,1.92,6.41,6.14,8.85,8.19,4.72,21.47,4.72,29.66,0,4.23-2.44,6.27-5.66,6.14-8.85h0Z"/><path class="cls-4" d="M67.13,42.77C75.32,38,88.6,38,96.79,42.77s8.2,12.4,0,17.13-21.47,4.73-29.66,0S58.94,47.5,67.13,42.77Z"/><path class="cls-5" d="M64.7,73.6H35v27.29h0c-.09,2.26,1.36,4.54,4.35,6.26,5.8,3.35,15.2,3.35,21,0,3-1.72,4.44-4,4.35-6.26h0Z"/><path class="cls-6" d="M39.34,67.74c5.8-3.35,15.2-3.35,21,0s5.8,8.78,0,12.13-15.2,3.35-21,0S33.53,71.09,39.34,67.74Z"/></svg>