<svg id="图层_1" data-name="图层 1" xmlns="http://www.w3.org/2000/svg" xmlns:xlink="http://www.w3.org/1999/xlink" viewBox="0 0 120 120"><defs><style>.cls-1{fill:url(#未命名的渐变_12);}.cls-2{fill:url(#未命名的渐变_13);}.cls-3{fill:url(#未命名的渐变_12-2);}.cls-4{fill:url(#未命名的渐变_13-2);}.cls-5{fill:url(#未命名的渐变_12-3);}.cls-6{fill:url(#未命名的渐变_6);}.cls-7{isolation:isolate;}.cls-8{fill:#5732cd;}</style><linearGradient id="未命名的渐变_12" x1="100" y1="35.19" x2="20.27" y2="35.19" gradientTransform="matrix(1, 0, 0, -1, 0, 122)" gradientUnits="userSpaceOnUse"><stop offset="0" stop-color="#e8ecf8"/><stop offset="0.22" stop-color="#d9dfee"/><stop offset="0.86" stop-color="#b4bdd8"/><stop offset="1" stop-color="#bec5dc"/></linearGradient><linearGradient id="未命名的渐变_13" x1="40" y1="86.24" x2="79.92" y2="17.1" gradientTransform="matrix(1, 0, 0, -1, 0, 122)" gradientUnits="userSpaceOnUse"><stop offset="0" stop-color="#9da4b9"/><stop offset="1" stop-color="#808bab"/></linearGradient><linearGradient id="未命名的渐变_12-2" x1="100" y1="54.29" x2="20.27" y2="54.29" xlink:href="#未命名的渐变_12"/><linearGradient id="未命名的渐变_13-2" x1="40" y1="105.34" x2="79.92" y2="36.2" xlink:href="#未命名的渐变_13"/><linearGradient id="未命名的渐变_12-3" x1="100" y1="73.39" x2="20.27" y2="73.39" xlink:href="#未命名的渐变_12"/><linearGradient id="未命名的渐变_6" x1="58.45" y1="115.22" x2="61.55" y2="64.36" gradientTransform="matrix(1, 0, 0, -1, 0, 122)" gradientUnits="userSpaceOnUse"><stop offset="0" stop-color="#edf1fd"/><stop offset="1" stop-color="#e1e5f1"/></linearGradient></defs><title>资产图标</title><path class="cls-1" d="M20,86.27h0V69.85H32.87c15.3-8.17,39-8.17,54.26,0H100V86.27h0c.25,6.09-3.65,12.22-11.7,16.87-15.62,9-40.94,9-56.56,0C23.67,98.49,19.77,92.36,20,86.27Z"/><path class="cls-2" d="M31.72,54.06c15.62-9,40.94-9,56.56,0s15.62,23.64,0,32.66-40.94,9-56.56,0S16.1,63.08,31.72,54.06Z"/><path class="cls-3" d="M20,67.17h0V50.74H32.87c15.3-8.16,39-8.16,54.26,0H100V67.17h0c.25,6.09-3.65,12.22-11.7,16.87-15.62,9-40.94,9-56.56,0C23.67,79.39,19.77,73.26,20,67.17Z"/><path class="cls-4" d="M31.72,35c15.62-9,40.94-9,56.56,0s15.62,23.64,0,32.66-40.94,9-56.56,0S16.1,44,31.72,35Z"/><path class="cls-5" d="M20,48.07h0V31.64H32.87c15.3-8.16,39-8.16,54.26,0H100V48.07h0c.25,6.09-3.65,12.22-11.7,16.87-15.62,9-40.94,9-56.56,0C23.67,60.29,19.77,54.16,20,48.07Z"/><path class="cls-6" d="M31.72,15.86c15.62-9,40.94-9,56.56,0s15.62,23.64,0,32.66-40.94,9-56.56,0S16.1,24.88,31.72,15.86Z"/><g class="cls-7"><path class="cls-8" d="M63.9,16.28A19.86,19.86,0,0,1,61,23.11L50.17,16.86A39.28,39.28,0,0,1,63.9,16.28Z"/><path class="cls-8" d="M77.29,20.28C83.68,24,86.38,28.93,85,33.58a18.32,18.32,0,0,1-9.69-2.19l-12-7.16c1.92-2.4,3.38-5,3.56-7.52A30.72,30.72,0,0,1,77.29,20.28Z"/></g><g class="cls-7"><path class="cls-8" d="M59.16,24.93a23.2,23.2,0,0,1-4.69,3.47,32.51,32.51,0,0,1-6,2.73L35.91,23.86a16.6,16.6,0,0,1,4.69-3.68,35.65,35.65,0,0,1,5.79-2.62Z"/></g><g class="cls-7"><path class="cls-8" d="M71,31.77c3,1.71,3,4.37-.06,6.14A11.47,11.47,0,0,1,60.33,38l-9.53-5.5a32.81,32.81,0,0,0,6-2.72,21.13,21.13,0,0,0,4.68-3.47Z"/></g><g class="cls-7"><path class="cls-8" d="M45.09,32a45.25,45.25,0,0,1-11.52,1.54,8.77,8.77,0,0,1,.69-7.79Z"/><path class="cls-8" d="M59.8,40.53c2.77,1.6,4,3.58,3.8,5.6-8,.7-17-1-23.07-4.48a18.42,18.42,0,0,1-6.3-6,57.33,57.33,0,0,0,13-2.09Z"/></g></svg>