<svg id="图层_1" data-name="图层 1" xmlns="http://www.w3.org/2000/svg" xmlns:xlink="http://www.w3.org/1999/xlink" viewBox="0 0 120 120"><defs><style>.cls-1{fill:url(#未命名的渐变_19);}.cls-2{fill:url(#未命名的渐变_13);}.cls-3{fill:url(#未命名的渐变_19-2);}.cls-4{fill:#7587ba;fill-rule:evenodd;}.cls-5{fill:url(#未命名的渐变_6);}.cls-6{isolation:isolate;}.cls-7{fill:#0065c5;}</style><linearGradient id="未命名的渐变_19" x1="107.95" y1="-1753.87" x2="11.95" y2="-1753.87" gradientTransform="matrix(1, 0, 0, -1, 0, -1673.57)" gradientUnits="userSpaceOnUse"><stop offset="0" stop-color="#d2d9f0"/><stop offset="0.28" stop-color="#d9dff1"/><stop offset="0.44" stop-color="#c3cbe1"/><stop offset="1" stop-color="#b4bdd8"/></linearGradient><linearGradient id="未命名的渐变_13" x1="38.46" y1="-1696.55" x2="82.5" y2="-1776.06" gradientTransform="matrix(1, 0, 0, -1, 0, -1673.57)" gradientUnits="userSpaceOnUse"><stop offset="0" stop-color="#9da4b9"/><stop offset="1" stop-color="#808bab"/></linearGradient><linearGradient id="未命名的渐变_19-2" x1="107.95" y1="-1729.87" x2="11.95" y2="-1729.87" xlink:href="#未命名的渐变_19"/><linearGradient id="未命名的渐变_6" x1="58.13" y1="-1684.15" x2="61.48" y2="-1741.49" gradientTransform="matrix(1, 0, 0, -1, 0, -1673.57)" gradientUnits="userSpaceOnUse"><stop offset="0" stop-color="#edf1fd"/><stop offset="1" stop-color="#e1e5f1"/></linearGradient></defs><title>资产图标</title><path class="cls-1" d="M106.69,95.15c-.34,3.67-2.94,7.28-7.79,10.08-10.45,6-27.38,6-37.83,0l-41.65-24c-4.24-2.45-6.44-5.62-6.61-8.83h0a5.34,5.34,0,0,1,0-.8V50.85H60.5v6.92c9.88-.46,20,1.5,27.59,5.86,4.94,2.85,8.1,6.35,9.47,10h9.15V93.71a8,8,0,0,1,0,1.2v.24Z"/><path class="cls-2" d="M19.42,60.68c-8.83-5.1-8.83-13.36,0-18.46,7.16-4.14,17.94-4.92,26.47-2.34,13.39-4.43,30.76-3.35,42.2,3.25,8.91,5.14,12,12.37,9.32,19,.51.26,1,.52,1.49.8,10.44,6,10.44,15.81,0,21.84s-27.38,6-37.83,0l-22.5-13h0Z"/><path class="cls-3" d="M106.69,71.15c-.34,3.67-2.94,7.28-7.79,10.08-10.45,6-27.38,6-37.83,0L19.42,57.18c-4.24-2.45-6.44-5.62-6.61-8.83h0a5.34,5.34,0,0,1,0-.8V26.85H60.5v6.92c9.88-.46,20,1.5,27.59,5.86,4.94,2.85,8.1,6.35,9.47,10h9.15V69.71a8,8,0,0,1,0,1.2v.24Z"/><path class="cls-4" d="M19.6,50c1.43.83,2.6.16,2.6-1.5A5.76,5.76,0,0,0,19.6,44c-1.44-.83-2.6-.16-2.6,1.5A5.73,5.73,0,0,0,19.6,50Zm7,4c1.43.83,2.6.16,2.6-1.5A5.76,5.76,0,0,0,26.6,48c-1.44-.83-2.6-.16-2.6,1.5A5.73,5.73,0,0,0,26.6,54Z"/><path class="cls-5" d="M19.42,36.68c-8.83-5.1-8.83-13.36,0-18.46,7.16-4.14,17.94-4.92,26.47-2.34,13.39-4.43,30.76-3.35,42.2,3.25,8.91,5.14,12,12.37,9.32,19,.51.26,1,.52,1.49.8,10.44,6,10.44,15.81,0,21.84s-27.38,6-37.83,0l-22.5-13h0Z"/><g class="cls-6"><path class="cls-7" d="M90.73,35.47a1,1,0,0,1,0,1.81L62.6,53.63a3.45,3.45,0,0,1-3.13,0L31.15,37.28a1,1,0,0,1,0-1.82L59.27,19.11a3.44,3.44,0,0,1,3.14,0Zm-26.42,6.8,1.69,1L67.25,40l5.51-.77-1.64-.94-3.74.55,0,0,1-2.16-1.65-1-1.3,3.2-5.55.74,1.65,1,3.76-.55,0,0-.93,2.18M60.14,37.6a1.66,1.66,0,0,0,.62-.54,1,1,0,0,0,.15-.58,1.24,1.24,0,0,0-.25-.61,3.23,3.23,0,0,0-.55-.64l-.48-.43-.29-.32a1.37,1.37,0,0,1-.19-.3.36.36,0,0,1,0-.27.42.42,0,0,1,.24-.23,1.18,1.18,0,0,1,.52-.16,1.71,1.71,0,0,1,.64.07,2.53,2.53,0,0,1,.67.26l0,0,.08,0a1.17,1.17,0,0,1,.53.56.53.53,0,0,1-.29.57l1.39.81a1.57,1.57,0,0,0,.75-.82,1,1,0,0,0-.17-.93,3,3,0,0,0-1-.89l-.06,0,0,0a6.09,6.09,0,0,0-1.54-.59,5.64,5.64,0,0,0-1.65-.12,3.4,3.4,0,0,0-1.42.45,1.09,1.09,0,0,0-.7,1A2,2,0,0,0,57.83,35l.53.51a4.87,4.87,0,0,1,.43.49.57.57,0,0,1,.13.38.41.41,0,0,1-.26.31,1.36,1.36,0,0,1-.57.16,2.42,2.42,0,0,1-.72-.07,3.64,3.64,0,0,1-.77-.31,1.93,1.93,0,0,1-.55-.45.57.57,0,0,1-.14-.47.81.81,0,0,1,.38-.45l-1.4-.81a1.84,1.84,0,0,0-.88.92,1,1,0,0,0,.18,1,3.41,3.41,0,0,0,1.1.93l.09.05.06,0a6.31,6.31,0,0,0,1.65.64,4.89,4.89,0,0,0,1.63.12,3.59,3.59,0,0,0,1.42-.44m-9.57-3.27,1.19-.69L48.57,31.8l1.63-.94,3,1.71,1.18-.69-2.93-1.7L53,29.24l3.15,1.81,1.19-.69-4.63-2.67-6.81,4,4.64,2.68M69.09,45l6.83-4-1.44-.84-6.82,4,1.43.83"/></g></svg>