<svg id="图层_1" data-name="图层 1" xmlns="http://www.w3.org/2000/svg" xmlns:xlink="http://www.w3.org/1999/xlink" viewBox="0 0 120 120"><defs><style>.cls-1{fill:url(#未命名的渐变_21);}.cls-2{fill:url(#未命名的渐变_21-2);}.cls-3{fill:url(#未命名的渐变_21-3);}.cls-4{fill:url(#未命名的渐变_22);}.cls-5{mask:url(#mask);}.cls-6{fill:#3f6beb;}.cls-7{fill:url(#未命名的渐变_20);}.cls-8{fill:url(#未命名的渐变_22-2);}.cls-9{mask:url(#mask-2);}.cls-10{fill:url(#未命名的渐变_20-2);}.cls-11{fill:url(#未命名的渐变_22-3);}.cls-12{mask:url(#mask-3);}.cls-13{fill:url(#未命名的渐变_20-3);}</style><linearGradient id="未命名的渐变_21" x1="53.07" y1="-3520.43" x2="14.24" y2="-3520.43" gradientTransform="matrix(1, 0, 0, -1, 0, -3461.04)" gradientUnits="userSpaceOnUse"><stop offset="0" stop-color="#d9dfee"/><stop offset="0.49" stop-color="#c7cee3"/><stop offset="1" stop-color="#b4bdd8"/></linearGradient><linearGradient id="未命名的渐变_21-2" x1="86.2" y1="-3531.38" x2="34.45" y2="-3531.38" xlink:href="#未命名的渐变_21"/><linearGradient id="未命名的渐变_21-3" x1="104.29" y1="-3550.14" x2="65.46" y2="-3550.14" xlink:href="#未命名的渐变_21"/><linearGradient id="未命名的渐变_22" x1="54.68" y1="-3520.43" x2="14.24" y2="-3520.43" gradientTransform="matrix(1, 0, 0, -1, 0, -3461.04)" gradientUnits="userSpaceOnUse"><stop offset="0" stop-color="#97b2ff"/><stop offset="0.22" stop-color="#7a9cfa"/><stop offset="0.86" stop-color="#3c69ea"/><stop offset="1" stop-color="#618bff"/></linearGradient><mask id="mask" x="14.1" y="15.96" width="40.57" height="64.29" maskUnits="userSpaceOnUse"><g id="mask0_121_353" data-name="mask0 121 353"><path class="cls-1" d="M15.27,59A23.73,23.73,0,0,1,34.36,38.52,23.79,23.79,0,0,1,53.51,59l1,7.95a7,7,0,0,1,.2,1.64c0,3-2,6-5.94,8.28-7.91,4.56-20.74,4.56-28.65,0-4-2.29-5.94-5.28-5.94-8.28H14.1Z"/></g></mask><radialGradient id="未命名的渐变_20" cx="-1623.33" cy="-1326.61" r="1" gradientTransform="matrix(-17.64, 17.64, 17.64, 17.64, -5191.29, 52048.22)" gradientUnits="userSpaceOnUse"><stop offset="0" stop-color="#ecf1ff"/><stop offset="0.26" stop-color="#b6c9ff"/><stop offset="0.88" stop-color="#3f6ceb"/><stop offset="1" stop-color="#618bff"/></radialGradient><linearGradient id="未命名的渐变_22-2" x1="88.34" y1="-3531.38" x2="34.45" y2="-3531.38" xlink:href="#未命名的渐变_22"/><mask id="mask-2" x="34.26" y="12.46" width="54.08" height="85.68" maskUnits="userSpaceOnUse"><g id="mask1_121_353" data-name="mask1 121 353"><path class="cls-2" d="M35.82,69.77A31.64,31.64,0,0,1,61.27,42.52,31.73,31.73,0,0,1,86.79,69.77l1.28,10.59a9.14,9.14,0,0,1,.27,2.2c0,4-2.63,8-7.91,11-10.54,6.09-27.64,6.09-38.19,0-5.27-3-7.91-7-7.91-11h-.07Z"/></g></mask><radialGradient id="未命名的渐变_20-2" cx="-1626.13" cy="-1352.55" r="1" gradientTransform="matrix(-23.5, 23.5, 23.5, 23.5, -6359.48, 70036.46)" xlink:href="#未命名的渐变_20"/><linearGradient id="未命名的渐变_22-3" x1="105.9" y1="-3550.14" x2="65.46" y2="-3550.14" xlink:href="#未命名的渐变_22"/><mask id="mask-3" x="65.32" y="45.68" width="40.57" height="64.29" maskUnits="userSpaceOnUse"><g id="mask2_121_353" data-name="mask2 121 353"><path class="cls-3" d="M66.49,88.67A23.73,23.73,0,0,1,85.58,68.23a23.77,23.77,0,0,1,19.15,20.44l1,8a7.16,7.16,0,0,1,.2,1.65c0,3-2,6-5.94,8.27-7.91,4.57-20.74,4.57-28.65,0-4-2.29-5.93-5.28-5.93-8.27h-.06Z"/></g></mask><radialGradient id="未命名的渐变_20-3" cx="-1623.33" cy="-1326.61" r="1" gradientTransform="matrix(-17.64, 17.64, 17.64, 17.64, -5140.07, 52077.93)" xlink:href="#未命名的渐变_20"/></defs><title>资产图标</title><path class="cls-4" d="M15.27,59A23.73,23.73,0,0,1,34.36,38.52,23.79,23.79,0,0,1,53.51,59l1,7.95a7,7,0,0,1,.2,1.64c0,3-2,6-5.94,8.28-7.91,4.56-20.74,4.56-28.65,0-4-2.29-5.94-5.28-5.94-8.28H14.1Z"/><g class="cls-5"><circle class="cls-6" cx="32.76" cy="32.26" r="16.29"/></g><circle class="cls-7" cx="34.36" cy="31.19" r="16.29"/><path class="cls-8" d="M35.82,69.77A31.64,31.64,0,0,1,61.27,42.52,31.73,31.73,0,0,1,86.79,69.77l1.28,10.59a9.14,9.14,0,0,1,.27,2.2c0,4-2.63,8-7.91,11-10.54,6.09-27.64,6.09-38.19,0-5.27-3-7.91-7-7.91-11h-.07Z"/><g class="cls-9"><circle class="cls-6" cx="59.13" cy="34.18" r="21.71"/></g><circle class="cls-10" cx="61.27" cy="32.75" r="21.71"/><path class="cls-11" d="M66.49,88.67A23.73,23.73,0,0,1,85.58,68.23a23.77,23.77,0,0,1,19.15,20.44l1,8a7.16,7.16,0,0,1,.2,1.65c0,3-2,6-5.94,8.27-7.91,4.57-20.74,4.57-28.65,0-4-2.29-5.93-5.28-5.93-8.27h-.06Z"/><g class="cls-12"><circle class="cls-6" cx="83.98" cy="61.97" r="16.29"/></g><circle class="cls-13" cx="85.58" cy="60.9" r="16.29"/></svg>