<svg id="图层_1" data-name="图层 1" xmlns="http://www.w3.org/2000/svg" xmlns:xlink="http://www.w3.org/1999/xlink" viewBox="0 0 120 120"><defs><style>.cls-1{fill:#474c59;}.cls-1,.cls-5{fill-rule:evenodd;}.cls-2{fill:url(#未命名的渐变_26);}.cls-3{fill:url(#未命名的渐变_25);}.cls-4{fill:url(#未命名的渐变_24);}.cls-5{fill:#7587ba;}</style><linearGradient id="未命名的渐变_26" x1="43.2" y1="20.83" x2="33.88" y2="69.29" gradientTransform="matrix(1, 0, 0, -1, 0, 122)" gradientUnits="userSpaceOnUse"><stop offset="0" stop-color="#cad1e7"/><stop offset="1" stop-color="#b4bdd8"/></linearGradient><linearGradient id="未命名的渐变_25" x1="126.8" y1="-226.75" x2="106.8" y2="-266.75" gradientTransform="matrix(0.87, -0.5, 0, -1, -25.2, -115.6)" gradientUnits="userSpaceOnUse"><stop offset="0" stop-color="#cfd8ef"/><stop offset="1" stop-color="#d5dae9"/></linearGradient><linearGradient id="未命名的渐变_24" x1="68.75" y1="104.5" x2="51.03" y2="63.75" gradientTransform="matrix(1, 0, 0, -1, 0, 122)" gradientUnits="userSpaceOnUse"><stop offset="0" stop-color="#edf1fd"/><stop offset="1" stop-color="#e1e5f1"/></linearGradient></defs><title>资产图标</title><path class="cls-1" d="M76.13,22.25,65.3,16,22,41V91l10.83,6.25,21.65,12.5,43.3-25v-50Z"/><path class="cls-2" d="M22,41l10.83,6.25,21.65,12.5v50L32.83,97.25,22,91Z"/><polygon class="cls-3" points="54.48 59.75 97.78 34.75 97.78 84.75 54.48 109.75 54.48 59.75"/><path class="cls-4" d="M65.3,16l10.83,6.25,21.65,12.5-43.3,25L32.83,47.25,22,41Z"/><path class="cls-5" d="M26.87,50c-.48-.28-.87,0-.87.5v6a1.92,1.92,0,0,0,.87,1.5l.86.5,2.6,1.5c.48.28.87,0,.87-.5v-6a1.92,1.92,0,0,0-.87-1.5l-2.6-1.5Zm0,19.5c-.48-.28-.87,0-.87.5v2a1.92,1.92,0,0,0,.87,1.5l22.51,13c.48.28.87,0,.87-.5V84a1.92,1.92,0,0,0-.87-1.5Zm0,7c-.48-.28-.87,0-.87.5v2a1.92,1.92,0,0,0,.87,1.5l22.51,13c.48.28.87,0,.87-.5V91a1.92,1.92,0,0,0-.87-1.5ZM26,84c0-.55.39-.78.87-.5l22.51,13a1.92,1.92,0,0,1,.87,1.5v2c0,.55-.39.78-.87.5l-22.51-13A1.92,1.92,0,0,1,26,86Z"/></svg>