<svg id="图层_1" data-name="图层 1" xmlns="http://www.w3.org/2000/svg" xmlns:xlink="http://www.w3.org/1999/xlink" viewBox="0 0 120 120"><defs><style>.cls-1{fill:url(#未命名的渐变_12);}.cls-2{fill:url(#未命名的渐变_6);}.cls-3{isolation:isolate;}.cls-4{fill:#3470f6;}</style><linearGradient id="未命名的渐变_12" x1="100" y1="-3532.12" x2="20.27" y2="-3532.12" gradientTransform="matrix(1, 0, 0, -1, 0, -3461.04)" gradientUnits="userSpaceOnUse"><stop offset="0" stop-color="#e8ecf8"/><stop offset="0.22" stop-color="#d9dfee"/><stop offset="0.86" stop-color="#b4bdd8"/><stop offset="1" stop-color="#bec5dc"/></linearGradient><linearGradient id="未命名的渐变_6" x1="58.45" y1="-3468.23" x2="61.55" y2="-3519.09" gradientTransform="matrix(1, 0, 0, -1, 0, -3461.04)" gradientUnits="userSpaceOnUse"><stop offset="0" stop-color="#edf1fd"/><stop offset="1" stop-color="#e1e5f1"/></linearGradient></defs><title>资产图标</title><path class="cls-1" d="M100,32H20V86.47h0c-.25,6.09,3.65,12.22,11.7,16.87,15.62,9,40.94,9,56.56,0,8-4.65,12-10.78,11.7-16.87h0Z"/><path class="cls-2" d="M31.72,16.26c15.62-9,40.94-9,56.56,0s15.62,23.64,0,32.66-40.94,9-56.56,0S16.1,25.28,31.72,16.26Z"/><g class="cls-3"><path class="cls-4" d="M63.88,22.17a.8.8,0,0,1,0,1.52L45.58,34.32a2.88,2.88,0,0,1-2.62,0,.8.8,0,0,1,0-1.52l18.3-10.63A2.88,2.88,0,0,1,63.88,22.17Z"/><path class="cls-4" d="M78.3,21.41c10.18,5.87,10.23,15.4.12,21.27s-26.55,5.87-36.72,0-10.23-15.4-.12-21.27S68.13,15.53,78.3,21.41Zm-34,19.75c8.73,5,22.81,5,31.48,0s8.62-13.2-.1-18.23-22.82-5-31.48,0-8.62,13.19.1,18.23"/><path class="cls-4" d="M74.4,28.24c3.64,2.1,3.66,5.5,0,7.6a14.45,14.45,0,0,1-13.12,0l-3.95-2.28-6.53,3.8a2.88,2.88,0,0,1-2.62,0,.8.8,0,0,1,0-1.52l18.3-10.63a2.88,2.88,0,0,1,2.62,0ZM64,34.32a8.64,8.64,0,0,0,7.86,0C74,33.07,74,31,71.79,29.76l-4-2.27L60,32l4,2.28"/></g></svg>