<svg id="图层_1" data-name="图层 1" xmlns="http://www.w3.org/2000/svg" xmlns:xlink="http://www.w3.org/1999/xlink" viewBox="0 0 120 120"><defs><style>.cls-1{fill:none;}.cls-2{clip-path:url(#clip-path);}.cls-3{fill:url(#未命名的渐变_13);}.cls-4{fill:url(#未命名的渐变_11);}.cls-5{fill:url(#未命名的渐变_11-2);}.cls-6{fill:#7587ba;}.cls-7{fill:url(#未命名的渐变_10);}.cls-8{fill:url(#未命名的渐变_6);}.cls-9{fill:url(#未命名的渐变_11-3);}.cls-10{fill:url(#未命名的渐变_11-4);}.cls-11{fill:url(#未命名的渐变_10-2);}.cls-12{isolation:isolate;}.cls-13{fill:#1f70c1;}</style><clipPath id="clip-path"><rect class="cls-1" width="120" height="120"/></clipPath><linearGradient id="未命名的渐变_13" x1="60" y1="-507.08" x2="60" y2="-585.21" gradientTransform="matrix(1, 0, 0, -1, 0, -483.74)" gradientUnits="userSpaceOnUse"><stop offset="0" stop-color="#9da4b9"/><stop offset="1" stop-color="#808bab"/></linearGradient><linearGradient id="未命名的渐变_11" x1="30.36" y1="-568.11" x2="10.85" y2="-557.96" gradientTransform="matrix(1, 0, 0, -1, 0, -483.74)" gradientUnits="userSpaceOnUse"><stop offset="0" stop-color="#cad1e7"/><stop offset="1" stop-color="#b4bdd8"/></linearGradient><linearGradient id="未命名的渐变_11-2" x1="53.31" y1="-593.12" x2="45.69" y2="-567.63" xlink:href="#未命名的渐变_11"/><linearGradient id="未命名的渐变_10" x1="97.89" y1="-558.84" x2="80.4" y2="-588.5" gradientTransform="matrix(1, 0, 0, -1, 0, -483.74)" gradientUnits="userSpaceOnUse"><stop offset="0" stop-color="#cfd8ef"/><stop offset="1" stop-color="#d5dae9"/></linearGradient><linearGradient id="未命名的渐变_6" x1="74.99" y1="-489.92" x2="44.98" y2="-554.17" gradientTransform="matrix(1, 0, 0, -1, 0, -483.74)" gradientUnits="userSpaceOnUse"><stop offset="0" stop-color="#edf1fd"/><stop offset="1" stop-color="#e1e5f1"/></linearGradient><linearGradient id="未命名的渐变_11-3" x1="30.36" y1="-543.91" x2="10.85" y2="-533.76" xlink:href="#未命名的渐变_11"/><linearGradient id="未命名的渐变_11-4" x1="53.31" y1="-568.92" x2="45.69" y2="-543.42" xlink:href="#未命名的渐变_11"/><linearGradient id="未命名的渐变_10-2" x1="97.89" y1="-534.63" x2="80.4" y2="-564.3" xlink:href="#未命名的渐变_10"/></defs><title>资产图标</title><g class="cls-2"><path class="cls-3" d="M93.89,42.91l12.4,26.73L72.4,89.2,26.11,82,13.7,55.31,47.6,35.75Z"/><path class="cls-4" d="M13.8,55.27l12.34,26.6v20.8L13.8,76.07Z"/><path class="cls-5" d="M26.14,82l46.23,6.84v20.8l-46.23-6.84Z"/><path class="cls-6" d="M30.51,95.81l24.62,3.64v4L30.51,99.79Z"/><path class="cls-7" d="M106.27,69.64,72.37,88.83v20.8l33.9-19.19Z"/><ellipse class="cls-6" cx="101.1" cy="86.99" rx="3.67" ry="2.12" transform="translate(-24.79 131.05) rotate(-60)"/><path class="cls-8" d="M93.89,18.71l12.4,26.72L72.4,65,26.11,57.84,13.7,31.11,47.6,11.54Z"/><path class="cls-9" d="M13.8,31.06,26.14,57.67v20.8L13.8,51.87Z"/><path class="cls-10" d="M26.14,57.79l46.23,6.83v20.8L26.14,78.59Z"/><path class="cls-6" d="M30.51,71.35,55.13,75v4L30.51,75.33Z"/><path class="cls-11" d="M106.27,45.44,72.37,64.62v20.8l33.9-19.18Z"/><ellipse class="cls-6" cx="101.1" cy="62.97" rx="3.67" ry="2.12" transform="translate(-3.99 119.04) rotate(-60)"/></g><g class="cls-12"><polygon class="cls-13" points="54.63 24.86 53.45 25.54 45.28 20.82 46.45 20.14 54.63 24.86"/></g><g class="cls-12"><polygon class="cls-13" points="52.35 26.18 51.19 26.86 43.01 22.14 44.17 21.46 52.35 26.18"/></g><g class="cls-12"><path class="cls-13" d="M64.68,30.66a2.83,2.83,0,0,1,1.6,2.28L54.62,26.21l1.17-.68Z"/></g><g class="cls-12"><path class="cls-13" d="M66.11,34.13c0,.31-.7.89-.74.92l-13-7.52,1.16-.68Z"/></g><g class="cls-12"><polygon class="cls-13" points="57.14 31.58 55.97 32.26 52.43 30.21 53.6 29.53 57.14 31.58"/></g><g class="cls-12"><path class="cls-13" d="M64.37,35.75a6.33,6.33,0,0,1-1.41.54l-3.54-2,1.17-.68Z"/></g><g class="cls-12"><path class="cls-13" d="M61.38,36.66a9,9,0,0,1-2.18.1l-9.05-5.22,1.18-.69Z"/></g><g class="cls-12"><polygon class="cls-13" points="47.8 26.18 46.63 26.86 43.08 24.82 44.25 24.14 47.8 26.18"/></g><g class="cls-12"><polygon class="cls-13" points="45.52 27.5 44.34 28.19 40.8 26.14 41.98 25.46 45.52 27.5"/></g><g class="cls-12"><polygon class="cls-13" points="43.25 28.82 42.08 29.5 38.53 27.46 39.7 26.78 43.25 28.82"/></g><g class="cls-12"><polygon class="cls-13" points="40.97 30.15 39.8 30.83 36.26 28.78 37.43 28.1 40.97 30.15"/></g><g class="cls-12"><polygon class="cls-13" points="41.05 32.83 39.89 33.51 31.7 28.78 32.87 28.1 41.05 32.83"/></g><g class="cls-12"><polygon class="cls-13" points="38.78 34.15 37.6 34.83 29.42 30.1 30.59 29.42 38.78 34.15"/></g><g class="cls-12"><polygon class="cls-13" points="88.43 44.38 87.26 45.06 80.27 41.02 81.86 40.58 88.43 44.38"/></g><g class="cls-12"><polygon class="cls-13" points="86.16 45.7 85 46.38 77.19 41.87 78.74 41.42 86.16 45.7"/></g><g class="cls-12"><polygon class="cls-13" points="76.38 37.42 75.63 38.34 68.57 34.27 69.74 33.59 76.38 37.42"/></g><g class="cls-12"><polygon class="cls-13" points="74.9 39.2 74.14 40.11 66.3 35.58 67.46 34.91 74.9 39.2"/></g><g class="cls-12"><polygon class="cls-13" points="73.41 40.97 72.67 41.9 66.38 38.27 67.55 37.59 73.41 40.97"/></g><g class="cls-12"><polygon class="cls-13" points="81.6 45.7 80.43 46.38 74.11 42.73 75.7 42.29 81.6 45.7"/></g><g class="cls-12"><path class="cls-13" d="M58.1,37.4a1.84,1.84,0,0,1-.18,1.25l-10-5.79,1.17-.69Z"/></g><g class="cls-12"><polygon class="cls-13" points="50.32 35.54 49.15 36.22 45.61 34.18 46.77 33.49 50.32 35.54"/></g><g class="cls-12"><polygon class="cls-13" points="79.33 47.02 78.15 47.7 74.61 45.66 75.26 45.28 74.36 45.52 67.87 41.77 68.3 41.26 67.64 41.64 64.1 39.59 65.28 38.91 71.95 42.76 71.32 43.55 72.67 43.18 79.33 47.02"/></g><g class="cls-12"><polygon class="cls-13" points="66.55 42.28 65.38 42.96 61.83 40.91 63 40.23 66.55 42.28"/></g><g class="cls-12"><polygon class="cls-13" points="64.27 43.6 63.1 44.28 59.56 42.23 60.73 41.55 64.27 43.6"/></g><g class="cls-12"><path class="cls-13" d="M57.31,39.58a3.79,3.79,0,0,1-.94.81L52.6,38.21l1.17-.68Z"/></g><g class="cls-12"><path class="cls-13" d="M55.16,41a5.82,5.82,0,0,1-1.58.44L41,34.14l1.16-.68Z"/></g><g class="cls-12"><path class="cls-13" d="M51.54,41.51a9.11,9.11,0,0,1-3.95-.92L38.7,35.46l1.17-.68Z"/></g><g class="cls-12"><polygon class="cls-13" points="72.89 45.94 71.32 46.39 66.45 43.58 67.19 42.65 72.89 45.94"/></g><g class="cls-12"><polygon class="cls-13" points="69.83 46.8 68.23 47.24 64.97 45.35 65.71 44.43 69.83 46.8"/></g><g class="cls-12"><polygon class="cls-13" points="62.79 48.01 62.79 48.02 62.78 48.01 62.79 48.01"/></g><g class="cls-12"><polygon class="cls-13" points="66.73 47.66 65.17 48.1 63.51 47.14 64.25 46.22 66.73 47.66"/></g><g class="cls-12"><polygon class="cls-13" points="77.05 48.34 75.88 49.02 72.33 46.97 73.5 46.29 77.05 48.34"/></g><g class="cls-12"><polygon class="cls-13" points="74.77 49.66 73.6 50.34 70.06 48.29 71.23 47.61 74.77 49.66"/></g><g class="cls-12"><polygon class="cls-13" points="74.85 52.34 73.68 53.02 67.78 49.61 68.95 48.94 74.85 52.34"/></g><g class="cls-12"><polygon class="cls-13" points="72.58 53.66 71.4 54.34 65.51 50.94 66.68 50.26 72.58 53.66"/></g><g class="cls-12"><polygon class="cls-13" points="61.99 44.92 60.83 45.59 55 42.23 56.16 41.55 61.99 44.92"/></g><g class="cls-12"><polygon class="cls-13" points="63.68 48.53 62.1 48.97 62.02 48.92 62.79 48.02 63.68 48.53"/></g><g class="cls-12"><polygon class="cls-13" points="59.72 46.24 58.55 46.92 52.71 43.55 53.88 42.87 59.72 46.24"/></g></svg>