<svg id="图层_1" data-name="图层 1" xmlns="http://www.w3.org/2000/svg" xmlns:xlink="http://www.w3.org/1999/xlink" viewBox="0 0 120 120"><defs><style>.cls-1{fill:none;}.cls-2{clip-path:url(#clip-path);}.cls-3{fill:url(#未命名的渐变_13);}.cls-4{fill:url(#未命名的渐变_11);}.cls-5{fill:url(#未命名的渐变_11-2);}.cls-6{fill:#7587ba;}.cls-7{fill:url(#未命名的渐变_10);}.cls-8{fill:url(#未命名的渐变_6);}.cls-9{fill:url(#未命名的渐变_11-3);}.cls-10{fill:url(#未命名的渐变_11-4);}.cls-11{fill:url(#未命名的渐变_10-2);}.cls-12{isolation:isolate;}.cls-13{fill:#6e7ca5;}</style><clipPath id="clip-path"><rect class="cls-1" width="120" height="120"/></clipPath><linearGradient id="未命名的渐变_13" x1="60" y1="-507.08" x2="60" y2="-585.21" gradientTransform="matrix(1, 0, 0, -1, 0, -483.74)" gradientUnits="userSpaceOnUse"><stop offset="0" stop-color="#9da4b9"/><stop offset="1" stop-color="#808bab"/></linearGradient><linearGradient id="未命名的渐变_11" x1="30.36" y1="-568.11" x2="10.85" y2="-557.96" gradientTransform="matrix(1, 0, 0, -1, 0, -483.74)" gradientUnits="userSpaceOnUse"><stop offset="0" stop-color="#cad1e7"/><stop offset="1" stop-color="#b4bdd8"/></linearGradient><linearGradient id="未命名的渐变_11-2" x1="53.31" y1="-593.12" x2="45.69" y2="-567.63" xlink:href="#未命名的渐变_11"/><linearGradient id="未命名的渐变_10" x1="97.89" y1="-558.84" x2="80.4" y2="-588.5" gradientTransform="matrix(1, 0, 0, -1, 0, -483.74)" gradientUnits="userSpaceOnUse"><stop offset="0" stop-color="#cfd8ef"/><stop offset="1" stop-color="#d5dae9"/></linearGradient><linearGradient id="未命名的渐变_6" x1="74.99" y1="-489.92" x2="44.98" y2="-554.17" gradientTransform="matrix(1, 0, 0, -1, 0, -483.74)" gradientUnits="userSpaceOnUse"><stop offset="0" stop-color="#edf1fd"/><stop offset="1" stop-color="#e1e5f1"/></linearGradient><linearGradient id="未命名的渐变_11-3" x1="30.36" y1="-543.91" x2="10.85" y2="-533.76" xlink:href="#未命名的渐变_11"/><linearGradient id="未命名的渐变_11-4" x1="53.31" y1="-568.92" x2="45.69" y2="-543.42" xlink:href="#未命名的渐变_11"/><linearGradient id="未命名的渐变_10-2" x1="97.89" y1="-534.63" x2="80.4" y2="-564.3" xlink:href="#未命名的渐变_10"/></defs><title>资产图标</title><g class="cls-2"><path class="cls-3" d="M93.89,42.91l12.4,26.73L72.4,89.2,26.11,82,13.7,55.31,47.6,35.75Z"/><path class="cls-4" d="M13.8,55.27l12.34,26.6v20.8L13.8,76.07Z"/><path class="cls-5" d="M26.14,82l46.23,6.84v20.8l-46.23-6.84Z"/><path class="cls-6" d="M30.51,95.81l24.62,3.64v4L30.51,99.79Z"/><path class="cls-7" d="M106.27,69.64,72.37,88.83v20.8l33.9-19.19Z"/><ellipse class="cls-6" cx="101.1" cy="86.99" rx="3.67" ry="2.12" transform="translate(-24.79 131.05) rotate(-60)"/><path class="cls-8" d="M93.89,18.71l12.4,26.72L72.4,65,26.11,57.84,13.7,31.11,47.6,11.54Z"/><path class="cls-9" d="M13.8,31.06,26.14,57.67v20.8L13.8,51.87Z"/><path class="cls-10" d="M26.14,57.79l46.23,6.83v20.8L26.14,78.59Z"/><path class="cls-6" d="M30.51,71.35,55.13,75v4L30.51,75.33Z"/><path class="cls-11" d="M106.27,45.44,72.37,64.62v20.8l33.9-19.18Z"/><ellipse class="cls-6" cx="101.1" cy="62.97" rx="3.67" ry="2.12" transform="translate(-3.99 119.04) rotate(-60)"/></g><g class="cls-12"><polygon class="cls-13" points="60.11 27.67 56.3 29.88 53.76 28.41 42.31 35.06 44.86 36.53 41.05 38.75 32.1 33.58 35.91 31.37 38.45 32.84 49.9 26.19 47.35 24.72 51.16 22.5 60.11 27.67"/></g><g class="cls-12"><polygon class="cls-13" points="70.34 33.58 66.53 35.79 63.99 34.32 52.55 40.97 55.09 42.44 51.28 44.66 42.34 39.49 46.15 37.28 48.69 38.74 60.13 32.1 57.59 30.63 61.4 28.41 70.34 33.58"/></g><g class="cls-12"><path class="cls-13" d="M81.67,39.23a18.77,18.77,0,0,1,2.27,1.53,16.85,16.85,0,0,1,1.9,1.74l-4.49,2.61A5.75,5.75,0,0,0,80,43.23,9.64,9.64,0,0,0,78,41.66a7.13,7.13,0,0,0-1.15-.55,6.54,6.54,0,0,0-1.16-.33,4,4,0,0,0-1.08-.05,2.27,2.27,0,0,0-.9.28,1,1,0,0,0-.56.7,1.32,1.32,0,0,0,.2.85,5.63,5.63,0,0,0,.68.94l.82,1A10.79,10.79,0,0,1,76,46.17a3.48,3.48,0,0,1,.44,1.55,2.38,2.38,0,0,1-.51,1.45,5.42,5.42,0,0,1-1.71,1.4,9.78,9.78,0,0,1-3.56,1.25,13.44,13.44,0,0,1-3.8,0A17.38,17.38,0,0,1,63,50.94a23.46,23.46,0,0,1-3.51-1.63,16,16,0,0,1-4.62-3.78l4.7-2.74a7.79,7.79,0,0,0,1.49,2.36,10,10,0,0,0,5,2.87,3.06,3.06,0,0,0,2.16-.25.85.85,0,0,0,.52-.76,2.12,2.12,0,0,0-.36-1A9.22,9.22,0,0,0,67.53,45a12.68,12.68,0,0,1-.92-1.09,9,9,0,0,1-1-1.64,2.89,2.89,0,0,1-.26-1.46A2.68,2.68,0,0,1,66,39.43a6.55,6.55,0,0,1,1.71-1.34,9.6,9.6,0,0,1,3.39-1.19,13.51,13.51,0,0,1,3.65,0,16.28,16.28,0,0,1,3.62.85A20.2,20.2,0,0,1,81.67,39.23Z"/></g></svg>