<svg id="图层_1" data-name="图层 1" xmlns="http://www.w3.org/2000/svg" xmlns:xlink="http://www.w3.org/1999/xlink" viewBox="0 0 120 120"><defs><style>.cls-1{fill:url(#未命名的渐变_12);}.cls-2{fill:url(#未命名的渐变_6);}.cls-3{isolation:isolate;}.cls-4{fill:#6287ff;}</style><linearGradient id="未命名的渐变_12" x1="100" y1="-1123.25" x2="20.27" y2="-1123.25" gradientTransform="matrix(1, 0, 0, -1, 0, -1052.17)" gradientUnits="userSpaceOnUse"><stop offset="0" stop-color="#e8ecf8"/><stop offset="0.22" stop-color="#d9dfee"/><stop offset="0.86" stop-color="#b4bdd8"/><stop offset="1" stop-color="#bec5dc"/></linearGradient><linearGradient id="未命名的渐变_6" x1="58.45" y1="-1059.36" x2="61.55" y2="-1110.22" gradientTransform="matrix(1, 0, 0, -1, 0, -1052.17)" gradientUnits="userSpaceOnUse"><stop offset="0" stop-color="#edf1fd"/><stop offset="1" stop-color="#e1e5f1"/></linearGradient></defs><title>资产图标</title><path class="cls-1" d="M100,32H20V86.47h0c-.25,6.09,3.65,12.22,11.7,16.87,15.62,9,40.94,9,56.56,0,8-4.65,12-10.78,11.7-16.87h0Z"/><path class="cls-2" d="M31.72,16.26c15.62-9,40.94-9,56.56,0s15.62,23.64,0,32.66-40.94,9-56.56,0S16.1,25.28,31.72,16.26Z"/><g class="cls-3"><path class="cls-4" d="M81.11,24.32l.07,12-3.62,2.11H43l-3.27,1.9-6.94-4c-1.92-1.1-1.93-2.9,0-4l27.55-16a7.67,7.67,0,0,1,6.92,0Zm-13.79,6,9.54,5.5-.07-11-9.47,5.51"/><path class="cls-4" d="M72.74,41.44a.6.6,0,0,1,.35.6v2.6c0,.43-.63.77-1.38.8H68.27l0-4.2H71.7A2.68,2.68,0,0,1,72.74,41.44Z"/><polygon class="cls-4" points="66.17 41.24 66.19 45.44 45.11 45.44 41.47 43.34 45.09 41.24 66.17 41.24"/></g></svg>