<svg id="图层_1" data-name="图层 1" xmlns="http://www.w3.org/2000/svg" xmlns:xlink="http://www.w3.org/1999/xlink" viewBox="0 0 120 120"><defs><style>.cls-1{fill:url(#未命名的渐变_12);}.cls-2{fill:url(#未命名的渐变_6);}.cls-3{isolation:isolate;}.cls-4{fill:#5e7ce0;}</style><linearGradient id="未命名的渐变_12" x1="100" y1="-1123.25" x2="20.27" y2="-1123.25" gradientTransform="matrix(1, 0, 0, -1, 0, -1052.17)" gradientUnits="userSpaceOnUse"><stop offset="0" stop-color="#e8ecf8"/><stop offset="0.22" stop-color="#d9dfee"/><stop offset="0.86" stop-color="#b4bdd8"/><stop offset="1" stop-color="#bec5dc"/></linearGradient><linearGradient id="未命名的渐变_6" x1="58.45" y1="-1059.36" x2="61.55" y2="-1110.22" gradientTransform="matrix(1, 0, 0, -1, 0, -1052.17)" gradientUnits="userSpaceOnUse"><stop offset="0" stop-color="#edf1fd"/><stop offset="1" stop-color="#e1e5f1"/></linearGradient></defs><title>资产图标</title><path class="cls-1" d="M100,32H20V86.47h0c-.25,6.09,3.65,12.22,11.7,16.87,15.62,9,40.94,9,56.56,0,8-4.65,12-10.78,11.7-16.87h0Z"/><path class="cls-2" d="M31.72,16.26c15.62-9,40.94-9,56.56,0s15.62,23.64,0,32.66-40.94,9-56.56,0S16.1,25.28,31.72,16.26Z"/><g class="cls-3"><path class="cls-4" d="M66.17,27.24a35,35,0,0,1-4.7,2.3l-.36-.05-.37-.06A18.49,18.49,0,0,1,59.52,26,14.49,14.49,0,0,1,66.17,27.24Z"/><path class="cls-4" d="M57,26a12,12,0,0,1,.11,3.58.85.85,0,0,1-.19.06,2.75,2.75,0,0,0-.36.15,44.49,44.49,0,0,1-5.45-1.66l.83-.48A14,14,0,0,1,57,26Z"/><path class="cls-4" d="M68,28.31a4.84,4.84,0,0,1,2.23,3.74c-2.31-.16-4.89-.48-6-.69a.41.41,0,0,0-.18-.32A24.92,24.92,0,0,1,68,28.31Z"/><polygon class="cls-4" points="61.3 31.68 61.21 32.59 59.93 33.12 58.36 32.85 57.8 32 58.63 31.2 60.2 31.04 61.3 31.68"/><path class="cls-4" d="M54.4,31.29l.36.23a.45.45,0,0,1,0,.18,1.8,1.8,0,0,0-.05.19,51.71,51.71,0,0,1-5.51,1.5,3.88,3.88,0,0,1,.8-4A32.83,32.83,0,0,1,54.4,31.29Z"/><path class="cls-4" d="M69.89,33.44a6.38,6.38,0,0,1-2.84,2.94,1.68,1.68,0,0,1-.83.48,14.16,14.16,0,0,1-2.78-3.2.83.83,0,0,0,.19-.18.18.18,0,0,1,.08-.09C64.73,33.33,67.4,33.38,69.89,33.44Z"/><path class="cls-4" d="M56.52,34.24a12.43,12.43,0,0,1-1.45,3.42,15,15,0,0,1-3-1.23,8,8,0,0,1-2-1.71,48.27,48.27,0,0,1,6-.8Z"/><path class="cls-4" d="M60.4,34.78a43.47,43.47,0,0,1,3.8,2.83,18.59,18.59,0,0,1-6.92.47,32.5,32.5,0,0,1,2.47-3.25A3.49,3.49,0,0,0,60.4,34.78Z"/><path class="cls-4" d="M74.28,43.64a3.61,3.61,0,0,1-1.29,1,15.36,15.36,0,0,1-1.66.22L52.44,46a5.56,5.56,0,0,1-1.2.06,5.71,5.71,0,0,1-1-.48l-14-8.07a2.9,2.9,0,0,1-.38-.19c-.18-.1-.37-.24-.37-.34a1.06,1.06,0,0,1,0-.54L37.57,25l.36-.64c0-.21.44-.37.46-.38l.55-.21,16.57-6a6.88,6.88,0,0,1,.92-.32,8.8,8.8,0,0,1,1.19.16l18.1,3.63a14.89,14.89,0,0,1,1.48.54,4.45,4.45,0,0,1,.92,1L84.55,33a5.61,5.61,0,0,1,.28.91c-.19.21-.8.77-.83.8Zm-6-2.57a1.67,1.67,0,0,0,1.27.17c.45-.27.54-.64.18-1a2.8,2.8,0,0,0-.64-.48,4.41,4.41,0,0,1-.85-.59l-.07-.09a1.06,1.06,0,0,1-.39-.93,7.28,7.28,0,0,0,1.28-.64,7.52,7.52,0,0,0,3.58-3.9,6.52,6.52,0,0,1,1.75-.16c.63.06,1,.11,1.24.15a8.31,8.31,0,0,0,1.06.12c.65.06,1.39-.16,1.39-.48a.56.56,0,0,0-.33-.43,2.49,2.49,0,0,0-.88-.26,4.94,4.94,0,0,0-1,0,9,9,0,0,1-1.32,0,4.17,4.17,0,0,1-1.66-.43c.08-1.87-1-3.7-3.16-5.12a2.4,2.4,0,0,1,.83-.91,5.62,5.62,0,0,1,1-.48,4.21,4.21,0,0,0,.8-.38c.56-.32.65-.69.18-1a1.69,1.69,0,0,0-1.65.11,3.11,3.11,0,0,0-.59.43,4.12,4.12,0,0,1-.88.64,3.08,3.08,0,0,1-1.57.48A19.92,19.92,0,0,0,59,24.15l-.08-.08c-.27-.25-.57-.54-.58-.83a3,3,0,0,1,0-.66,1.52,1.52,0,0,0-.08-.67.88.88,0,0,0-.44-.54,1.28,1.28,0,0,0-.77-.16c-.55,0-.92.43-.82.8a4.61,4.61,0,0,0,.17.44,5,5,0,0,1,.3.9,1,1,0,0,1-.28,1,18,18,0,0,0-6.71,2.08,7,7,0,0,0-1.2.81A4.86,4.86,0,0,1,46.9,27a6.07,6.07,0,0,1-1-.47,4.21,4.21,0,0,0-.86-.39,1.78,1.78,0,0,0-1.65.11c-.29.25-.13.5.22.7l.33.16a13.77,13.77,0,0,0,1.34.36,6.8,6.8,0,0,1,1.16.33,3.59,3.59,0,0,1,.74.3,1.76,1.76,0,0,1,.46.39,4.82,4.82,0,0,0-1,5.4h-.19a5.13,5.13,0,0,1-1.47.64c-.59.11-1,.15-1.27.18s-.56.06-.94.14c-.64.16-1,.48-.82.8a.47.47,0,0,0,.19.18,2.11,2.11,0,0,0,1.37.09,5.94,5.94,0,0,0,.89-.25c.29-.09.61-.2,1.23-.34a3.56,3.56,0,0,1,1.75-.05l.1-.06a9.65,9.65,0,0,0,2.78,2.33,15.59,15.59,0,0,0,4,1.57,1.59,1.59,0,0,1-.09.91,3.91,3.91,0,0,1-.58.71,3.22,3.22,0,0,0-.42.52.51.51,0,0,0,.16.8,1.05,1.05,0,0,0,.3.1A1.38,1.38,0,0,0,55,41.66a2.58,2.58,0,0,0,.23-.54,3.09,3.09,0,0,1,.31-.74,2.29,2.29,0,0,1,.83-.8A23.39,23.39,0,0,0,65.68,39a7,7,0,0,1,1,.44,3.47,3.47,0,0,1,.37.26,3,3,0,0,1,.62.73,3.91,3.91,0,0,0,.4.5l.21.15"/></g></svg>