<svg id="图层_1" data-name="图层 1" xmlns="http://www.w3.org/2000/svg" xmlns:xlink="http://www.w3.org/1999/xlink" viewBox="0 0 120 120"><defs><style>.cls-1{fill:url(#未命名的渐变_12);}.cls-2{fill:url(#未命名的渐变_6);}.cls-3{isolation:isolate;}.cls-4{fill:#0083ff;}</style><linearGradient id="未命名的渐变_12" x1="100" y1="-1744.64" x2="20.27" y2="-1744.64" gradientTransform="matrix(1, 0, 0, -1, 0, -1673.57)" gradientUnits="userSpaceOnUse"><stop offset="0" stop-color="#e8ecf8"/><stop offset="0.22" stop-color="#d9dfee"/><stop offset="0.86" stop-color="#b4bdd8"/><stop offset="1" stop-color="#bec5dc"/></linearGradient><linearGradient id="未命名的渐变_6" x1="58.45" y1="-1680.75" x2="61.55" y2="-1731.61" gradientTransform="matrix(1, 0, 0, -1, 0, -1673.57)" gradientUnits="userSpaceOnUse"><stop offset="0" stop-color="#edf1fd"/><stop offset="1" stop-color="#e1e5f1"/></linearGradient></defs><title>资产图标</title><path class="cls-1" d="M100,32H20V86.47h0c-.25,6.09,3.65,12.22,11.7,16.87,15.62,9,40.94,9,56.56,0,8-4.65,12-10.78,11.7-16.87h0Z"/><path class="cls-2" d="M31.72,16.26c15.62-9,40.94-9,56.56,0s15.62,23.64,0,32.66-40.94,9-56.56,0S16.1,25.28,31.72,16.26Z"/><g class="cls-3"><path class="cls-4" d="M62.67,16.44c.81.47.81,1.22,0,1.68l-5.77,3.36,2.91,1.68-8.66,5-8.72-5,8.66-5L54,19.8l5.77-3.35A3.2,3.2,0,0,1,62.67,16.44Z"/></g><g class="cls-3"><path class="cls-4" d="M48.27,29.87l-2.89,1.67a9.64,9.64,0,0,1-7,.69l-6,3.51-2.91-1.68,6-3.51c-1.09-1.32-.72-2.94,1.16-4l2.88-1.68Z"/></g><g class="cls-3"><path class="cls-4" d="M74.3,23.16a.88.88,0,0,1,0,1.67l-5.78,3.36,2.91,1.68-8.66,5-8.72-5,8.66-5,2.91,1.68,5.77-3.35A3.16,3.16,0,0,1,74.3,23.16Z"/></g><g class="cls-3"><path class="cls-4" d="M59.89,36.57,57,38.25a9.64,9.64,0,0,1-7,.69l-6,3.51-2.91-1.68,6-3.51c-1.09-1.32-.72-2.94,1.16-4l2.88-1.67Z"/></g><g class="cls-3"><path class="cls-4" d="M85.92,29.86a.89.89,0,0,1,0,1.68L80.15,34.9l2.91,1.67-8.66,5-8.72-5,8.66-5,2.91,1.68L83,29.86A3.22,3.22,0,0,1,85.92,29.86Z"/></g><g class="cls-3"><path class="cls-4" d="M71.51,43.29,68.63,45a9.67,9.67,0,0,1-7,.69l-6,3.51-2.91-1.68,6-3.51c-1.09-1.32-.72-2.95,1.16-4l2.88-1.68Z"/></g></svg>