<svg id="图层_1" data-name="图层 1" xmlns="http://www.w3.org/2000/svg" xmlns:xlink="http://www.w3.org/1999/xlink" viewBox="0 0 120 120"><defs><style>.cls-1{fill:none;}.cls-2{clip-path:url(#clip-path);}.cls-3{fill:url(#未命名的渐变_13);}.cls-4{fill:url(#未命名的渐变_11);}.cls-5{fill:url(#未命名的渐变_11-2);}.cls-6{fill:#7587ba;}.cls-7{fill:url(#未命名的渐变_10);}.cls-8{fill:url(#未命名的渐变_6);}.cls-9{fill:url(#未命名的渐变_11-3);}.cls-10{fill:url(#未命名的渐变_11-4);}.cls-11{fill:url(#未命名的渐变_10-2);}.cls-12{isolation:isolate;}.cls-13{fill:#567bff;}</style><clipPath id="clip-path"><rect class="cls-1" width="120" height="120"/></clipPath><linearGradient id="未命名的渐变_13" x1="60" y1="-507.08" x2="60" y2="-585.21" gradientTransform="matrix(1, 0, 0, -1, 0, -483.74)" gradientUnits="userSpaceOnUse"><stop offset="0" stop-color="#9da4b9"/><stop offset="1" stop-color="#808bab"/></linearGradient><linearGradient id="未命名的渐变_11" x1="30.36" y1="-568.11" x2="10.85" y2="-557.96" gradientTransform="matrix(1, 0, 0, -1, 0, -483.74)" gradientUnits="userSpaceOnUse"><stop offset="0" stop-color="#cad1e7"/><stop offset="1" stop-color="#b4bdd8"/></linearGradient><linearGradient id="未命名的渐变_11-2" x1="53.31" y1="-593.12" x2="45.69" y2="-567.63" xlink:href="#未命名的渐变_11"/><linearGradient id="未命名的渐变_10" x1="97.89" y1="-558.84" x2="80.4" y2="-588.5" gradientTransform="matrix(1, 0, 0, -1, 0, -483.74)" gradientUnits="userSpaceOnUse"><stop offset="0" stop-color="#cfd8ef"/><stop offset="1" stop-color="#d5dae9"/></linearGradient><linearGradient id="未命名的渐变_6" x1="74.99" y1="-489.92" x2="44.98" y2="-554.17" gradientTransform="matrix(1, 0, 0, -1, 0, -483.74)" gradientUnits="userSpaceOnUse"><stop offset="0" stop-color="#edf1fd"/><stop offset="1" stop-color="#e1e5f1"/></linearGradient><linearGradient id="未命名的渐变_11-3" x1="30.36" y1="-543.91" x2="10.85" y2="-533.76" xlink:href="#未命名的渐变_11"/><linearGradient id="未命名的渐变_11-4" x1="53.31" y1="-568.92" x2="45.69" y2="-543.42" xlink:href="#未命名的渐变_11"/><linearGradient id="未命名的渐变_10-2" x1="97.89" y1="-534.63" x2="80.4" y2="-564.3" xlink:href="#未命名的渐变_10"/></defs><title>资产图标</title><g class="cls-2"><path class="cls-3" d="M93.89,42.91l12.4,26.73L72.4,89.2,26.11,82,13.7,55.31,47.6,35.75Z"/><path class="cls-4" d="M13.8,55.27l12.34,26.6v20.8L13.8,76.07Z"/><path class="cls-5" d="M26.14,82l46.23,6.84v20.8l-46.23-6.84Z"/><path class="cls-6" d="M30.51,95.81l24.62,3.64v4L30.51,99.79Z"/><path class="cls-7" d="M106.27,69.64,72.37,88.83v20.8l33.9-19.19Z"/><ellipse class="cls-6" cx="101.1" cy="86.99" rx="3.67" ry="2.12" transform="translate(-24.79 131.05) rotate(-60)"/><path class="cls-8" d="M93.89,18.71l12.4,26.72L72.4,65,26.11,57.84,13.7,31.11,47.6,11.54Z"/><path class="cls-9" d="M13.8,31.06,26.14,57.67v20.8L13.8,51.87Z"/><path class="cls-10" d="M26.14,57.79l46.23,6.83v20.8L26.14,78.59Z"/><path class="cls-6" d="M30.51,71.35,55.13,75v4L30.51,75.33Z"/><path class="cls-11" d="M106.27,45.44,72.37,64.62v20.8l33.9-19.18Z"/><ellipse class="cls-6" cx="101.1" cy="62.97" rx="3.67" ry="2.12" transform="translate(-3.99 119.04) rotate(-60)"/></g><g class="cls-12"><path class="cls-13" d="M68.54,21.83c2,1.14,2,3,0,4.16a8,8,0,0,1-6.42.36L57.7,28.93c2.61,1.83,3,4.38,1,6.39l12.93,2.54a5.11,5.11,0,0,1,1.52-1.3,11.4,11.4,0,0,1,10.3,0c2.84,1.64,2.85,4.32,0,6a11.38,11.38,0,0,1-10.29,0c-1.67-1-2.37-2.29-2.08-3.55L57.57,36.28a5.6,5.6,0,0,1-.48.3,12.15,12.15,0,0,1-2.87,1.16L58.8,45.4a11.44,11.44,0,0,1,7.9.93c2.84,1.64,2.86,4.32,0,6a11.38,11.38,0,0,1-10.29,0c-2.84-1.65-2.85-4.32,0-6A5.26,5.26,0,0,1,57.1,46l-4.71-7.89A15.54,15.54,0,0,1,43.88,37l-4.46,2.59c1.33,1.16,1.13,2.72-.6,3.72a7.92,7.92,0,0,1-7.19,0c-2-1.14-2-3,0-4.16A8,8,0,0,1,38,38.75l4.46-2.59c-3.21-2.24-3-5.56.61-7.65s9.31-2.22,13.21-.38l4.44-2.58c-1.34-1.16-1.13-2.71.6-3.72A8,8,0,0,1,68.54,21.83Z"/></g></svg>