<svg id="图层_1" data-name="图层 1" xmlns="http://www.w3.org/2000/svg" xmlns:xlink="http://www.w3.org/1999/xlink" viewBox="0 0 120 120"><defs><style>.cls-1{fill:url(#未命名的渐变_12);}.cls-2{fill:url(#未命名的渐变_13);}.cls-3{fill:url(#未命名的渐变_12-2);}.cls-4{fill:url(#未命名的渐变_13-2);}.cls-5{fill:url(#未命名的渐变_12-3);}.cls-6{fill:url(#未命名的渐变_6);}.cls-7{isolation:isolate;}.cls-8{fill:#3480af;}</style><linearGradient id="未命名的渐变_12" x1="100" y1="35.19" x2="20.27" y2="35.19" gradientTransform="matrix(1, 0, 0, -1, 0, 122)" gradientUnits="userSpaceOnUse"><stop offset="0" stop-color="#e8ecf8"/><stop offset="0.22" stop-color="#d9dfee"/><stop offset="0.86" stop-color="#b4bdd8"/><stop offset="1" stop-color="#bec5dc"/></linearGradient><linearGradient id="未命名的渐变_13" x1="40" y1="86.24" x2="79.92" y2="17.1" gradientTransform="matrix(1, 0, 0, -1, 0, 122)" gradientUnits="userSpaceOnUse"><stop offset="0" stop-color="#9da4b9"/><stop offset="1" stop-color="#808bab"/></linearGradient><linearGradient id="未命名的渐变_12-2" x1="100" y1="54.29" x2="20.27" y2="54.29" xlink:href="#未命名的渐变_12"/><linearGradient id="未命名的渐变_13-2" x1="40" y1="105.34" x2="79.92" y2="36.2" xlink:href="#未命名的渐变_13"/><linearGradient id="未命名的渐变_12-3" x1="100" y1="73.39" x2="20.27" y2="73.39" xlink:href="#未命名的渐变_12"/><linearGradient id="未命名的渐变_6" x1="58.45" y1="115.22" x2="61.55" y2="64.36" gradientTransform="matrix(1, 0, 0, -1, 0, 122)" gradientUnits="userSpaceOnUse"><stop offset="0" stop-color="#edf1fd"/><stop offset="1" stop-color="#e1e5f1"/></linearGradient></defs><title>资产图标</title><path class="cls-1" d="M20,86.27h0V69.85H32.87c15.3-8.17,39-8.17,54.26,0H100V86.27h0c.25,6.09-3.65,12.22-11.7,16.87-15.62,9-40.94,9-56.56,0C23.67,98.49,19.77,92.36,20,86.27Z"/><path class="cls-2" d="M31.72,54.06c15.62-9,40.94-9,56.56,0s15.62,23.64,0,32.66-40.94,9-56.56,0S16.1,63.08,31.72,54.06Z"/><path class="cls-3" d="M20,67.17h0V50.74H32.87c15.3-8.16,39-8.16,54.26,0H100V67.17h0c.25,6.09-3.65,12.22-11.7,16.87-15.62,9-40.94,9-56.56,0C23.67,79.39,19.77,73.26,20,67.17Z"/><path class="cls-4" d="M31.72,35c15.62-9,40.94-9,56.56,0s15.62,23.64,0,32.66-40.94,9-56.56,0S16.1,44,31.72,35Z"/><path class="cls-5" d="M20,48.07h0V31.64H32.87c15.3-8.16,39-8.16,54.26,0H100V48.07h0c.25,6.09-3.65,12.22-11.7,16.87-15.62,9-40.94,9-56.56,0C23.67,60.29,19.77,54.16,20,48.07Z"/><path class="cls-6" d="M31.72,15.86c15.62-9,40.94-9,56.56,0s15.62,23.64,0,32.66-40.94,9-56.56,0S16.1,24.88,31.72,15.86Z"/><g class="cls-7"><path class="cls-8" d="M65.23,23.1c.62.36,1.3.91,1.14,1.37-.09,1.06-2,1.67-2.91,1.57h-.14c.29-.53.29-1.09.59-1.62a10.94,10.94,0,0,1,.64-1.65A4.51,4.51,0,0,1,65.23,23.1Z"/><path class="cls-8" d="M65.13,13.22c1.63.95,3.3,2.8,3.45,3.92a14,14,0,0,1,.13,1.7,14.91,14.91,0,0,1,2.08,1c3.77,2.17,4.94,5.44,3.48,9.74A36.27,36.27,0,0,1,69,40.29a23.17,23.17,0,0,1,1.93,4.31c.81,2.44.61,3.34.39,3.81a1,1,0,0,1-.43.43,2.65,2.65,0,0,1-2.39,0l-4.12-2.38q-.12,1.14-.18,2.28c0,.6-.85,1-1.79,1a2.33,2.33,0,0,1-1.09-.28.82.82,0,0,1-.5-.75q.13-2.25.45-4.5a.88.88,0,0,1,.48-.61,2.62,2.62,0,0,1,2.39,0l3.7,2.14c-.06-.22-.14-.47-.23-.74a21.47,21.47,0,0,0-2-4.41.61.61,0,0,1,.07-.75c1.92-2.3,3.71-5.87,5.31-10.61,1.23-3.64.38-6.28-2.58-8a13,13,0,0,0-2.21-1,1.52,1.52,0,0,1-.34-.15.84.84,0,0,1-.5-.72,13,13,0,0,0-.11-2.06c-.09-.67-1.4-2-2.32-2.6a13.34,13.34,0,0,0-1.51,4.38.58.58,0,0,1-.15.29,14.21,14.21,0,0,1-3.59,3.32c-.31.18-1,.81-1.39,2.81,0,.33-.38.61-.87.76l-6,1.92c-3.45,1.09-5.44,4.06-5.58,5.29A32.49,32.49,0,0,0,50,30.69a2.73,2.73,0,0,1,2.05-.1,1.82,1.82,0,0,1,.28.13c.44.26.61.64.42,1a47.49,47.49,0,0,1-3.42,5c-2.1,2.83-1.86,3.81-1.66,4.1.27.48-.11,1-.89,1.2a2.67,2.67,0,0,1-1.91-.2,1.34,1.34,0,0,1-.34-.28c-.81-1.18-.27-3,1.7-5.6.37-.49.71-1,1-1.38-2.65,1.06-4.08,1.14-5.2.85a3,3,0,0,1-.72-.28,1.63,1.63,0,0,1-.86-1.32c-.17-2,2.59-5.85,7.3-7.35L53,24.78a4.94,4.94,0,0,1,2.25-3.48,11.79,11.79,0,0,0,2.83-2.64c1.13-5,2.35-6,4.19-6.15a4.74,4.74,0,0,1,2.41.48Z"/></g></svg>