<svg id="图层_1" data-name="图层 1" xmlns="http://www.w3.org/2000/svg" xmlns:xlink="http://www.w3.org/1999/xlink" viewBox="0 0 120 120"><defs><style>.cls-1{fill:url(#未命名的渐变_14);}.cls-2{fill:url(#未命名的渐变_6);}.cls-3{isolation:isolate;}.cls-4{fill:#5691f7;}</style><linearGradient id="未命名的渐变_14" x1="104.35" y1="-1124.48" x2="15.63" y2="-1124.48" gradientTransform="matrix(1, 0, 0, -1, 0, -1052.17)" gradientUnits="userSpaceOnUse"><stop offset="0" stop-color="#d1d8ef"/><stop offset="0.4" stop-color="#d8e1fb"/><stop offset="0.61" stop-color="#b5bed9"/><stop offset="1" stop-color="#b4bdd8"/></linearGradient><linearGradient id="未命名的渐变_6" x1="58.28" y1="-1058.5" x2="61.72" y2="-1114.9" gradientTransform="matrix(1, 0, 0, -1, 0, -1052.17)" gradientUnits="userSpaceOnUse"><stop offset="0" stop-color="#edf1fd"/><stop offset="1" stop-color="#e1e5f1"/></linearGradient></defs><title>资产图标</title><path class="cls-1" d="M104.34,34.5H15.63v50h0c0,4.39,6.12,7.93,18.37,15s18.37,10.61,26,10.61,13.73-3.54,26-10.61,18.37-10.61,18.37-15a2.62,2.62,0,0,0,0-.28Z"/><path class="cls-2" d="M34,19.5C46.27,12.43,52.39,8.89,60,8.89S73.73,12.43,86,19.5s18.37,10.61,18.37,15S98.23,42.43,86,49.5,67.61,60.11,60,60.11,46.27,56.57,34,49.5s-18.37-10.61-18.37-15S21.77,26.57,34,19.5Z"/><g class="cls-3"><path class="cls-4" d="M55.09,16.43,55,28.92l-22.85.85a2.88,2.88,0,0,1,.62-.5L54.29,16.78A3.59,3.59,0,0,1,55.09,16.43Z"/><path class="cls-4" d="M87.53,33.28a1.71,1.71,0,0,1,.45.38l-21.63.09-2.81,0-5.53,0-.12-3.2-.06-1.62.08-12.54a2.67,2.67,0,0,1,.67.26Z"/><path class="cls-4" d="M87.78,35.3a2.46,2.46,0,0,1-.6.47l-21.5,12.5a4.54,4.54,0,0,1-.86.36l1.41-13.24Z"/><path class="cls-4" d="M63.43,35.36,62,48.72a2.58,2.58,0,0,1-.64-.25L32.44,31.76a1.63,1.63,0,0,1-.44-.37l23.07-.85.17,4.73Z"/></g></svg>