<svg id="图层_1" data-name="图层 1" xmlns="http://www.w3.org/2000/svg" xmlns:xlink="http://www.w3.org/1999/xlink" viewBox="0 0 120 120"><defs><style>.cls-1{fill:url(#未命名的渐变_12);}.cls-2{fill:url(#未命名的渐变_6);}.cls-3{isolation:isolate;}.cls-4{fill:#5691f7;}</style><linearGradient id="未命名的渐变_12" x1="100" y1="-1744.64" x2="20.27" y2="-1744.64" gradientTransform="matrix(1, 0, 0, -1, 0, -1673.57)" gradientUnits="userSpaceOnUse"><stop offset="0" stop-color="#e8ecf8"/><stop offset="0.22" stop-color="#d9dfee"/><stop offset="0.86" stop-color="#b4bdd8"/><stop offset="1" stop-color="#bec5dc"/></linearGradient><linearGradient id="未命名的渐变_6" x1="58.45" y1="-1680.75" x2="61.55" y2="-1731.61" gradientTransform="matrix(1, 0, 0, -1, 0, -1673.57)" gradientUnits="userSpaceOnUse"><stop offset="0" stop-color="#edf1fd"/><stop offset="1" stop-color="#e1e5f1"/></linearGradient></defs><title>资产图标</title><path class="cls-1" d="M100,32H20V86.47h0c-.25,6.09,3.65,12.22,11.7,16.87,15.62,9,40.94,9,56.56,0,8-4.65,12-10.78,11.7-16.87h0Z"/><path class="cls-2" d="M31.72,16.26c15.62-9,40.94-9,56.56,0s15.62,23.64,0,32.66-40.94,9-56.56,0S16.1,25.28,31.72,16.26Z"/><g class="cls-3"><path class="cls-4" d="M79.58,20.35a1,1,0,0,1,.42.42l2.94,6.09c.16.33,0,.69-.42.94L75,32.18a2.55,2.55,0,0,1-1.62.25L62.83,30.75a2.11,2.11,0,0,1-.72-.25,1,1,0,0,1-.43-.42L58.75,24c-.16-.33,0-.69.42-.94l7.54-4.38a2.61,2.61,0,0,1,1.62-.25l10.52,1.69A2.16,2.16,0,0,1,79.58,20.35Z"/><path class="cls-4" d="M54.74,23.88a1.12,1.12,0,0,1,.42.42l2.94,6.09c.15.34,0,.7-.43.94l-7.54,4.38a2.52,2.52,0,0,1-1.61.25L38,34.28a2.16,2.16,0,0,1-.73-.24,1,1,0,0,1-.42-.43l-2.93-6.09c-.16-.33,0-.69.42-.94l7.53-4.38A2.59,2.59,0,0,1,43.49,22L54,23.64A2.16,2.16,0,0,1,54.74,23.88Z"/><path class="cls-4" d="M73.57,34.75a1.12,1.12,0,0,1,.42.42l2.94,6.09c.16.34,0,.7-.43.94L69,46.58a2.55,2.55,0,0,1-1.62.25L56.82,45.15a2.16,2.16,0,0,1-.73-.24,1.06,1.06,0,0,1-.42-.42l-2.94-6.1c-.15-.33,0-.69.43-.93l7.53-4.38a2.57,2.57,0,0,1,1.62-.25l10.53,1.68A2.16,2.16,0,0,1,73.57,34.75Z"/></g></svg>