<svg id="图层_1" data-name="图层 1" xmlns="http://www.w3.org/2000/svg" xmlns:xlink="http://www.w3.org/1999/xlink" viewBox="0 0 120 120"><defs><style>.cls-1{fill:url(#未命名的渐变_12);}.cls-2{fill:url(#未命名的渐变_13);}.cls-3{fill:url(#未命名的渐变_12-2);}.cls-4{fill:url(#未命名的渐变_13-2);}.cls-5{fill:url(#未命名的渐变_12-3);}.cls-6{fill:url(#未命名的渐变_9);}.cls-7{isolation:isolate;}.cls-8{fill:red;}</style><linearGradient id="未命名的渐变_12" x1="100" y1="35.19" x2="20.27" y2="35.19" gradientTransform="matrix(1, 0, 0, -1, 0, 122)" gradientUnits="userSpaceOnUse"><stop offset="0" stop-color="#e8ecf8"/><stop offset="0.22" stop-color="#d9dfee"/><stop offset="0.86" stop-color="#b4bdd8"/><stop offset="1" stop-color="#bec5dc"/></linearGradient><linearGradient id="未命名的渐变_13" x1="40" y1="86.24" x2="79.92" y2="17.1" gradientTransform="matrix(1, 0, 0, -1, 0, 122)" gradientUnits="userSpaceOnUse"><stop offset="0" stop-color="#9da4b9"/><stop offset="1" stop-color="#808bab"/></linearGradient><linearGradient id="未命名的渐变_12-2" x1="100" y1="54.29" x2="20.27" y2="54.29" xlink:href="#未命名的渐变_12"/><linearGradient id="未命名的渐变_13-2" x1="40" y1="105.34" x2="79.92" y2="36.2" xlink:href="#未命名的渐变_13"/><linearGradient id="未命名的渐变_12-3" x1="100" y1="73.39" x2="20.27" y2="73.39" xlink:href="#未命名的渐变_12"/><linearGradient id="未命名的渐变_9" x1="58.45" y1="115.22" x2="61.55" y2="64.36" gradientTransform="matrix(1, 0, 0, -1, 0, 122)" gradientUnits="userSpaceOnUse"><stop offset="0" stop-color="#edf1fd"/><stop offset="1" stop-color="#e1e5f1"/></linearGradient></defs><title>资产图标</title><path class="cls-1" d="M20,86.27h0V69.85H32.87c15.3-8.17,39-8.17,54.26,0H100V86.27h0c.25,6.09-3.65,12.22-11.7,16.87-15.62,9-40.94,9-56.56,0C23.67,98.49,19.77,92.36,20,86.27Z"/><path class="cls-2" d="M31.72,54.06c15.62-9,40.94-9,56.56,0s15.62,23.64,0,32.66-40.94,9-56.56,0S16.1,63.08,31.72,54.06Z"/><path class="cls-3" d="M20,67.17h0V50.74H32.87c15.3-8.16,39-8.16,54.26,0H100V67.17h0c.25,6.09-3.65,12.22-11.7,16.87-15.62,9-40.94,9-56.56,0C23.67,79.39,19.77,73.26,20,67.17Z"/><path class="cls-4" d="M31.72,35c15.62-9,40.94-9,56.56,0s15.62,23.64,0,32.66-40.94,9-56.56,0S16.1,44,31.72,35Z"/><path class="cls-5" d="M20,48.07h0V31.64H32.87c15.3-8.16,39-8.16,54.26,0H100V48.07h0c.25,6.09-3.65,12.22-11.7,16.87-15.62,9-40.94,9-56.56,0C23.67,60.29,19.77,54.16,20,48.07Z"/><path class="cls-6" d="M31.72,15.86c15.62-9,40.94-9,56.56,0s15.62,23.64,0,32.66-40.94,9-56.56,0S16.1,24.88,31.72,15.86Z"/><g class="cls-7"><path class="cls-8" d="M45,19.06c1.7,1,1.71,2.57,0,3.55a6.78,6.78,0,0,1-6.14,0l-3.58-2.07c-1.7-1-1.7-2.56,0-3.55a6.76,6.76,0,0,1,6.13,0Zm-5.12,2.88a4.41,4.41,0,0,0,4,0,1.22,1.22,0,0,0,0-2.3l-3.42-2a4.4,4.4,0,0,0-4,.05,1.21,1.21,0,0,0,0,2.26l3.42,2"/></g><g class="cls-7"><path class="cls-8" d="M53.85,24.19a1.26,1.26,0,0,1,0,2.37,4.54,4.54,0,0,1-4.14,0l-.54-.31.39,2.52-1.71-1L47.38,24l3.34,1.93a2.16,2.16,0,0,0,2,0,.61.61,0,0,0,0-1.15l-3.92-2.26-5,2.93-1.18-.69,6.11-3.55Z"/></g><g class="cls-7"><path class="cls-8" d="M60.48,27.94c.3.18.44.41.36.64l-2.06,5.54-1.4-.81.43-1L54.6,30.45l.39-1,3.16,1.82,1-2.52-7.89,1-1.4-.8,9.52-1.22A1.86,1.86,0,0,1,60.48,27.94Z"/><path class="cls-8" d="M71.61,34.44l-1.77.22-3.48-2,0,0a4.34,4.34,0,0,0-3.94,0c-1.11.62-1.15,1.65-.07,2.3l4.35,2.5-1.78.23-3.65-2.11,0,0c-1.69-1-1.71-2.55-.05-3.53a6.76,6.76,0,0,1,6.13,0Z"/></g><g class="cls-7"><path class="cls-8" d="M73.43,35.49l-5,2.93,5.51,3.18-1.77.22-5.4-3.11a.44.44,0,0,1-.26-.35.4.4,0,0,1,.24-.34l5.52-3.21Z"/><path class="cls-8" d="M86,42.75,84.24,43l-3.48-2a4.5,4.5,0,0,0-3.36-.27L83.16,44l-1.78.22-5.06-2.92c-.61.63-.41,1.43.48,1.94l4.27,2.47L79.29,46l-3.65-2.11c-1.65-1-1.66-2.54,0-3.51a6.76,6.76,0,0,1,6.13,0Z"/></g></svg>