<svg id="图层_1" data-name="图层 1" xmlns="http://www.w3.org/2000/svg" xmlns:xlink="http://www.w3.org/1999/xlink" viewBox="0 0 120 120"><defs><style>.cls-1{fill:url(#未命名的渐变_21);}.cls-2{fill:url(#未命名的渐变_12);}.cls-3{mask:url(#mask);}.cls-4{fill:#b8c0da;}.cls-5{fill:url(#未命名的渐变_23);}</style><linearGradient id="未命名的渐变_21" x1="89.71" y1="-3540.07" x2="30.13" y2="-3540.07" gradientTransform="matrix(1, 0, 0, -1, 0, -3461.04)" gradientUnits="userSpaceOnUse"><stop offset="0" stop-color="#d9dfee"/><stop offset="0.49" stop-color="#c7cee3"/><stop offset="1" stop-color="#b4bdd8"/></linearGradient><linearGradient id="未命名的渐变_12" x1="92.18" y1="-3540.07" x2="30.13" y2="-3540.07" gradientTransform="matrix(1, 0, 0, -1, 0, -3461.04)" gradientUnits="userSpaceOnUse"><stop offset="0" stop-color="#e8ecf8"/><stop offset="0.22" stop-color="#d9dfee"/><stop offset="0.86" stop-color="#b4bdd8"/><stop offset="1" stop-color="#bec5dc"/></linearGradient><mask id="mask" x="29.92" y="12.4" width="62.26" height="98.64" maskUnits="userSpaceOnUse"><g id="mask0_102_147" data-name="mask0 102 147"><path class="cls-1" d="M31.71,78.37A36.42,36.42,0,0,1,61,47,36.52,36.52,0,0,1,90.39,78.37l1.48,12.2a10.35,10.35,0,0,1,.31,2.52c0,4.6-3,9.19-9.11,12.69-12.14,7-31.82,7-44,0C33,102.28,30,97.69,30,93.09h-.08Z"/></g></mask><radialGradient id="未命名的渐变_23" cx="-1494.88" cy="-1364.49" r="1" gradientTransform="matrix(-27.06, 27.06, 27.06, 27.06, -3456.55, 77400.94)" gradientUnits="userSpaceOnUse"><stop offset="0" stop-color="#fff"/><stop offset="0.26" stop-color="#e8ecf9"/><stop offset="0.88" stop-color="#aeb6cf"/><stop offset="1" stop-color="#c0c8de"/></radialGradient></defs><title>资产图标</title><path class="cls-2" d="M31.71,78.37A36.42,36.42,0,0,1,61,47,36.52,36.52,0,0,1,90.39,78.37l1.48,12.2a10.35,10.35,0,0,1,.31,2.52c0,4.6-3,9.19-9.11,12.69-12.14,7-31.82,7-44,0C33,102.28,30,97.69,30,93.09h-.08Z"/><g class="cls-3"><circle class="cls-4" cx="58.55" cy="37.4" r="25"/></g><circle class="cls-5" cx="61.01" cy="35.75" r="25"/></svg>