<svg id="图层_1" data-name="图层 1" xmlns="http://www.w3.org/2000/svg" xmlns:xlink="http://www.w3.org/1999/xlink" viewBox="0 0 120 120"><defs><style>.cls-1{fill:url(#未命名的渐变_12);}.cls-2{fill:url(#未命名的渐变_6);}.cls-3{isolation:isolate;}.cls-4{fill:#5691f7;}</style><linearGradient id="未命名的渐变_12" x1="100" y1="-1744.64" x2="20.27" y2="-1744.64" gradientTransform="matrix(1, 0, 0, -1, 0, -1673.57)" gradientUnits="userSpaceOnUse"><stop offset="0" stop-color="#e8ecf8"/><stop offset="0.22" stop-color="#d9dfee"/><stop offset="0.86" stop-color="#b4bdd8"/><stop offset="1" stop-color="#bec5dc"/></linearGradient><linearGradient id="未命名的渐变_6" x1="58.45" y1="-1680.75" x2="61.55" y2="-1731.61" gradientTransform="matrix(1, 0, 0, -1, 0, -1673.57)" gradientUnits="userSpaceOnUse"><stop offset="0" stop-color="#edf1fd"/><stop offset="1" stop-color="#e1e5f1"/></linearGradient></defs><title>资产图标</title><path class="cls-1" d="M100,32H20V86.47h0c-.25,6.09,3.65,12.22,11.7,16.87,15.62,9,40.94,9,56.56,0,8-4.65,12-10.78,11.7-16.87h0Z"/><path class="cls-2" d="M31.72,16.26c15.62-9,40.94-9,56.56,0s15.62,23.64,0,32.66-40.94,9-56.56,0S16.1,25.28,31.72,16.26Z"/><g class="cls-3"><path class="cls-4" d="M77.6,22.36a4.7,4.7,0,0,1,1.82,2.22l2.19,4.69c.74,1.56,1.47,3.13,2.21,4.69,1,2.16.65,2.79-2,4.41L75.89,41.8,70,45.24c-2.73,1.57-3.84,1.72-7.6,1.18l-8.11-1.26-8.1-1.26a11.18,11.18,0,0,1-3.77-1,4.67,4.67,0,0,1-1.82-2.21L38.38,36l-2.19-4.69c-1-2.16-.66-2.79,2-4.4l5.91-3.44L50,20c2.72-1.58,3.85-1.72,7.6-1.18,2.7.42,5.41.83,8.1,1.26l8.11,1.25A11.5,11.5,0,0,1,77.6,22.36Z"/></g></svg>