<svg id="图层_1" data-name="图层 1" xmlns="http://www.w3.org/2000/svg" xmlns:xlink="http://www.w3.org/1999/xlink" viewBox="0 0 120 120"><defs><style>.cls-1{fill:url(#未命名的渐变_21);}.cls-2{fill:url(#未命名的渐变_22);}.cls-3{mask:url(#mask);}.cls-4{fill:#3f6beb;}.cls-5{fill:url(#未命名的渐变_20);}</style><linearGradient id="未命名的渐变_21" x1="88.66" y1="-3539.17" x2="29.08" y2="-3539.17" gradientTransform="matrix(1, 0, 0, -1, 0, -3461.04)" gradientUnits="userSpaceOnUse"><stop offset="0" stop-color="#d9dfee"/><stop offset="0.49" stop-color="#c7cee3"/><stop offset="1" stop-color="#b4bdd8"/></linearGradient><linearGradient id="未命名的渐变_22" x1="91.13" y1="-3539.17" x2="29.08" y2="-3539.17" gradientTransform="matrix(1, 0, 0, -1, 0, -3461.04)" gradientUnits="userSpaceOnUse"><stop offset="0" stop-color="#97b2ff"/><stop offset="0.22" stop-color="#7a9cfa"/><stop offset="0.86" stop-color="#3c69ea"/><stop offset="1" stop-color="#618bff"/></linearGradient><mask id="mask" x="28.87" y="11.5" width="62.26" height="98.64" maskUnits="userSpaceOnUse"><g id="mask0_121_351" data-name="mask0 121 351"><path class="cls-1" d="M30.66,77.47A36.41,36.41,0,0,1,60,46.11,36.5,36.5,0,0,1,89.34,77.47l1.48,12.2a10.37,10.37,0,0,1,.31,2.53c0,4.59-3,9.18-9.11,12.69-12.14,7-31.82,7-44,0C32,101.38,29,96.79,29,92.2h-.08Z"/></g></mask><radialGradient id="未命名的渐变_20" cx="-1359.42" cy="-1367.66" r="1" gradientTransform="matrix(-27.06, 27.06, 27.06, 27.06, 293.62, 73820.42)" gradientUnits="userSpaceOnUse"><stop offset="0" stop-color="#ecf1ff"/><stop offset="0.26" stop-color="#b6c9ff"/><stop offset="0.88" stop-color="#3f6ceb"/><stop offset="1" stop-color="#618bff"/></radialGradient></defs><title>资产图标</title><path class="cls-2" d="M30.66,77.47A36.41,36.41,0,0,1,60,46.11,36.5,36.5,0,0,1,89.34,77.47l1.48,12.2a10.37,10.37,0,0,1,.31,2.53c0,4.59-3,9.18-9.11,12.69-12.14,7-31.82,7-44,0C32,101.38,29,96.79,29,92.2h-.08Z"/><g class="cls-3"><circle class="cls-4" cx="57.5" cy="36.5" r="25"/></g><circle class="cls-5" cx="59.96" cy="34.86" r="25"/></svg>