<svg id="图层_1" data-name="图层 1" xmlns="http://www.w3.org/2000/svg" xmlns:xlink="http://www.w3.org/1999/xlink" viewBox="0 0 120 120"><defs><style>.cls-1{fill:url(#未命名的渐变_12);}.cls-2{fill:url(#未命名的渐变_13);}.cls-3{fill:url(#未命名的渐变_12-2);}.cls-4{fill:url(#未命名的渐变_13-2);}.cls-5{fill:url(#未命名的渐变_12-3);}.cls-6{fill:url(#未命名的渐变_6);}.cls-7{isolation:isolate;}.cls-8{fill:#306092;}</style><linearGradient id="未命名的渐变_12" x1="100" y1="35.19" x2="20.27" y2="35.19" gradientTransform="matrix(1, 0, 0, -1, 0, 122)" gradientUnits="userSpaceOnUse"><stop offset="0" stop-color="#e8ecf8"/><stop offset="0.22" stop-color="#d9dfee"/><stop offset="0.86" stop-color="#b4bdd8"/><stop offset="1" stop-color="#bec5dc"/></linearGradient><linearGradient id="未命名的渐变_13" x1="40" y1="86.24" x2="79.92" y2="17.1" gradientTransform="matrix(1, 0, 0, -1, 0, 122)" gradientUnits="userSpaceOnUse"><stop offset="0" stop-color="#9da4b9"/><stop offset="1" stop-color="#808bab"/></linearGradient><linearGradient id="未命名的渐变_12-2" x1="100" y1="54.29" x2="20.27" y2="54.29" xlink:href="#未命名的渐变_12"/><linearGradient id="未命名的渐变_13-2" x1="40" y1="105.34" x2="79.92" y2="36.2" xlink:href="#未命名的渐变_13"/><linearGradient id="未命名的渐变_12-3" x1="100" y1="73.39" x2="20.27" y2="73.39" xlink:href="#未命名的渐变_12"/><linearGradient id="未命名的渐变_6" x1="58.45" y1="115.22" x2="61.55" y2="64.36" gradientTransform="matrix(1, 0, 0, -1, 0, 122)" gradientUnits="userSpaceOnUse"><stop offset="0" stop-color="#edf1fd"/><stop offset="1" stop-color="#e1e5f1"/></linearGradient></defs><title>资产图标</title><path class="cls-1" d="M20,86.27h0V69.85H32.87c15.3-8.17,39-8.17,54.26,0H100V86.27h0c.25,6.09-3.65,12.22-11.7,16.87-15.62,9-40.94,9-56.56,0C23.67,98.49,19.77,92.36,20,86.27Z"/><path class="cls-2" d="M31.72,54.06c15.62-9,40.94-9,56.56,0s15.62,23.64,0,32.66-40.94,9-56.56,0S16.1,63.08,31.72,54.06Z"/><path class="cls-3" d="M20,67.17h0V50.74H32.87c15.3-8.16,39-8.16,54.26,0H100V67.17h0c.25,6.09-3.65,12.22-11.7,16.87-15.62,9-40.94,9-56.56,0C23.67,79.39,19.77,73.26,20,67.17Z"/><path class="cls-4" d="M31.72,35c15.62-9,40.94-9,56.56,0s15.62,23.64,0,32.66-40.94,9-56.56,0S16.1,44,31.72,35Z"/><path class="cls-5" d="M20,48.07h0V31.64H32.87c15.3-8.16,39-8.16,54.26,0H100V48.07h0c.25,6.09-3.65,12.22-11.7,16.87-15.62,9-40.94,9-56.56,0C23.67,60.29,19.77,54.16,20,48.07Z"/><path class="cls-6" d="M31.72,15.86c15.62-9,40.94-9,56.56,0s15.62,23.64,0,32.66-40.94,9-56.56,0S16.1,24.88,31.72,15.86Z"/><g class="cls-7"><path class="cls-8" d="M51.09,34.6a.83.83,0,0,1,.22.24.59.59,0,0,1-.09.63,1.11,1.11,0,0,1-.76.39,8.22,8.22,0,0,1-4-.49A5.67,5.67,0,0,1,45.7,35a5.6,5.6,0,0,1-1.2-.9,1.54,1.54,0,0,1-.33-.44s0-.06,0-.1a6.41,6.41,0,0,1,.91.27,9.64,9.64,0,0,0,2.87.79c.78,0,1.33-.06,2.44-.09.47,0,.62,0,.7.08Z"/><path class="cls-8" d="M71.33,36.19c-1.13.61-2,1.38-3,2a8.39,8.39,0,0,1-2.93,1.2c.08-.15.16-.3.27-.47a4.67,4.67,0,0,0,.4-.74c.15-.32.35-.72.58-1.15a10.84,10.84,0,0,1,1.89-2.63,4,4,0,0,1,2.59-1.27,4.78,4.78,0,0,1,2.52.73q.56.33,1,.69C73.73,35.14,72.64,35.48,71.33,36.19Zm1.78-1.74h0a.14.14,0,0,0,.06-.16.86.86,0,0,0-.13-.17,1.46,1.46,0,0,0-.24-.17l-.08,0h0l-.27-.13a4,4,0,0,0-.73-.22,1.55,1.55,0,0,0-.31,0,.57.57,0,0,0-.25.08.24.24,0,0,0-.1.17.38.38,0,0,0,0,.21.67.67,0,0,0,.34.39l.12.06a2.26,2.26,0,0,0,.91.15,1.58,1.58,0,0,0,.38,0,.66.66,0,0,0,.26-.08"/><path class="cls-8" d="M80.62,28.18c2.27,1.34,4.35,3.3,3.81,6-.07.33-.65.91-1.75,1.52a28,28,0,0,1-4.56,1.94,69.35,69.35,0,0,1-13,3c0-.08,0-.15,0-.23a10.33,10.33,0,0,0,4.27-1.56c1.11-.71,1.94-1.46,2.88-2,1.29-.7,2.51-1,3.78-1.82a.91.91,0,0,0,.26-.12,1.61,1.61,0,0,0,.29-.24,5.52,5.52,0,0,0,.65-.77,7.21,7.21,0,0,0,1.17-2.66,5.69,5.69,0,0,0-.93-4.44,20.32,20.32,0,0,1,2.86,1.31Z"/><path class="cls-8" d="M73,24.23l.17.11c3.73,2.22,4.28,4.75,3.87,6.74A6.72,6.72,0,0,1,76,33.53a2.55,2.55,0,0,1-.32.38c-.29-.2-.57-.39-.86-.55a6.84,6.84,0,0,0-3.71-1A5.57,5.57,0,0,0,67.34,34a11.39,11.39,0,0,0-2,2.8c-.24.45-.43.86-.59,1.18s-.22.43-.34.64a3.93,3.93,0,0,0-.64,1.54c0,.17-.08.33-.12.5a3.61,3.61,0,0,0-.53-.14,4.13,4.13,0,0,0-1.59,0,4.89,4.89,0,0,0-1.8.72c-.92.46-6,2.8-7.88,3.56a8.75,8.75,0,0,1-3.17.75,9.56,9.56,0,0,1-3.44-.73,7.88,7.88,0,0,1-1.1-.5c-.74-.43-1-.85-1-1.24a2.06,2.06,0,0,1,.55-1.46,4.81,4.81,0,0,1,.91-.78c.49-.36,1.15-.81,1.92-1.29q2.7-1.7,5.59-3.27a.53.53,0,0,0,.16-.13,1.89,1.89,0,0,0,.32-.31,1,1,0,0,0,.1-1.29,1.54,1.54,0,0,0-.52-.5L52,34a.92.92,0,0,0-.23-.09q1-.33,2-.6c1.89-.5,5.09-.75,8.91-4.2.8-.71.86-1.46.4-2.05a3.11,3.11,0,0,0-1-.78,8.14,8.14,0,0,0-1.3-.59A16,16,0,0,0,58,24.94a21.68,21.68,0,0,1,4.36-1.66,17.21,17.21,0,0,1,5.24-.59A11.83,11.83,0,0,1,73,24.23Z"/><path class="cls-8" d="M70.89,44.32c.11.45-.35,1-.86,1.28a3.71,3.71,0,0,1-1.32.35,13.18,13.18,0,0,1-4.47-.34A15.17,15.17,0,0,1,59.94,44l-.49-.3-.27-.17a5.89,5.89,0,0,0-.58.24c-3.61,2-6.27,3-8.86,3.24a13.53,13.53,0,0,1-6.29-1,7.54,7.54,0,0,1-1.24-.58c-1.34-.77-2-1.72-1.86-2.52A3.71,3.71,0,0,1,41.46,41a14.82,14.82,0,0,1,3.67-2.79l1.41-.89a9.72,9.72,0,0,1-1.72-.53A8.56,8.56,0,0,1,42,35a2.73,2.73,0,0,1-.62-.82,1.18,1.18,0,0,1-.18-.89,6.69,6.69,0,0,1-2.81-.66l-.13-.07a2.41,2.41,0,0,1-1.35-2.08c0-1.47,1-3,2.25-4.66a43.44,43.44,0,0,1,4.43-4.65,29.6,29.6,0,0,1,3.57-2.93,17.86,17.86,0,0,1,9.4-3A15.85,15.85,0,0,1,64.17,17c.24.12.48.26.71.39a17.83,17.83,0,0,1,4.67,3.87A15.66,15.66,0,0,1,75,23.12l.19.11a20,20,0,0,1,2.33,1.63A24.88,24.88,0,0,1,82.42,27l.24.15c2.65,1.56,5.24,4.06,4.58,7.29-.21,1-1.26,1.77-2.59,2.52a30.85,30.85,0,0,1-5.09,2.18A71.67,71.67,0,0,1,67.09,42a13.45,13.45,0,0,0,2,.92,7.15,7.15,0,0,1,1.06.44A1.38,1.38,0,0,1,70.89,44.32Zm-1.75.6c.25-.14.39-.33.36-.54a.81.81,0,0,0-.41-.47,5.73,5.73,0,0,0-.72-.31,18.09,18.09,0,0,1-2.45-1.11,3.4,3.4,0,0,1-1-.83.61.61,0,0,1-.11-.21,70.86,70.86,0,0,0,14.09-3.13,29.74,29.74,0,0,0,4.83-2c1.21-.69,2-1.34,2.16-2,.62-3-1.82-5.25-4.34-6.7l-.12-.07a23.46,23.46,0,0,0-3.5-1.59c-.46-.16-.94-.32-1.43-.46a14,14,0,0,0-2.26-1.66l-.17-.1a13.77,13.77,0,0,0-5.39-1.72,16.31,16.31,0,0,0-4.68-4c-.22-.13-.45-.26-.69-.38A13.84,13.84,0,0,0,56.66,16a15.85,15.85,0,0,0-8.39,2.75,28.73,28.73,0,0,0-3.43,2.82,42.43,42.43,0,0,0-4.33,4.55c-1.25,1.59-2.17,3.1-2.13,4.31a1.73,1.73,0,0,0,.94,1.5,6,6,0,0,0,3.16.5c3.09-.16,5.45-.2,5.92-.21a4,4,0,0,0,1.47,1.47,13.55,13.55,0,0,1-1.8.11,7.82,7.82,0,0,1-2.25-.65A6,6,0,0,0,44,32.67a2.2,2.2,0,0,0-.82.1.89.89,0,0,0-.49.38.73.73,0,0,0,.07.73,2.56,2.56,0,0,0,.49.63,7,7,0,0,0,1.4,1.05,7.46,7.46,0,0,0,1,.48,9.89,9.89,0,0,0,3.48.69c-1.28.73-2.52,1.47-3.74,2.23-.78.5-1.46.95-2,1.34a5.54,5.54,0,0,0-1.11,1,2.62,2.62,0,0,0-.65,1.86,2.68,2.68,0,0,0,1.52,1.77,8.16,8.16,0,0,0,1.28.59,11.77,11.77,0,0,0,4.23.86,10.83,10.83,0,0,0,4-.9c1.68-.69,5.2-2.29,7-3.12a5.21,5.21,0,0,0,1.25.93,14.51,14.51,0,0,0,3.89,1.53,11.94,11.94,0,0,0,3.68.31,2.24,2.24,0,0,0,.71-.17"/><path class="cls-8" d="M62.91,18.49l.55.34a16.35,16.35,0,0,1,3.5,3,19.75,19.75,0,0,0-5.16.69A24.85,24.85,0,0,0,55.85,25c-.38.22-.85.57-1.63,1a27.92,27.92,0,0,1-3.12,1.63c-2,.87-3.14,2.29-3,3.76q-2.91,0-5.8.21a4,4,0,0,1-2-.25,1.05,1.05,0,0,1-.55-.95c0-.93.78-2.41,2-3.94A41.65,41.65,0,0,1,46.06,22a31.36,31.36,0,0,1,3.28-2.71,14,14,0,0,1,7.37-2.48,12,12,0,0,1,5.61,1.37Z"/><path class="cls-8" d="M61.46,28.62c-3.65,3.3-6.05,3.3-8.3,3.9-.78.2-1.52.39-2.17.62-2.2-1.27-2-3.58,1-4.86a26.78,26.78,0,0,0,3.29-1.72c.76-.46,1.25-.8,1.47-.93h.06a8.08,8.08,0,0,1,.86.11,15,15,0,0,1,2.42.61,6.57,6.57,0,0,1,1,.47l0,0a2.28,2.28,0,0,1,.63.5C62,27.71,62.06,28.08,61.46,28.62Zm-.26-.38a.28.28,0,0,0,.17-.2.28.28,0,0,0,0-.2,1.29,1.29,0,0,0-.41-.45l-.23-.16-.08,0a2,2,0,0,0-.45-.19.89.89,0,0,0-.58,0,.44.44,0,0,0-.21.19.54.54,0,0,0-.06.25.66.66,0,0,0,.29.56l.1.07a1.69,1.69,0,0,0,.74.22,2.88,2.88,0,0,0,.41,0,1.28,1.28,0,0,0,.35-.07"/><path class="cls-8" d="M63.34,41.52a1.57,1.57,0,0,0,.21.46,4.18,4.18,0,0,0,1.36,1.09,18.91,18.91,0,0,0,2.68,1.22A14,14,0,0,1,65.24,44a13.54,13.54,0,0,1-3.3-1.29.41.41,0,0,0-.11-.07,4.31,4.31,0,0,1-.94-.68.67.67,0,0,1-.12-.19,3.35,3.35,0,0,1,1.15-.5,1.6,1.6,0,0,1,.69,0C62.83,41.35,63,41.43,63.34,41.52Z"/></g></svg>