<svg id="图层_1" data-name="图层 1" xmlns="http://www.w3.org/2000/svg" xmlns:xlink="http://www.w3.org/1999/xlink" viewBox="0 0 120 120"><defs><style>.cls-1{fill:url(#未命名的渐变_12);}.cls-2{fill:url(#未命名的渐变_6);}.cls-3{isolation:isolate;}.cls-4{fill:#5691f7;}</style><linearGradient id="未命名的渐变_12" x1="100" y1="-3532.12" x2="20.27" y2="-3532.12" gradientTransform="matrix(1, 0, 0, -1, 0, -3461.04)" gradientUnits="userSpaceOnUse"><stop offset="0" stop-color="#e8ecf8"/><stop offset="0.22" stop-color="#d9dfee"/><stop offset="0.86" stop-color="#b4bdd8"/><stop offset="1" stop-color="#bec5dc"/></linearGradient><linearGradient id="未命名的渐变_6" x1="58.45" y1="-3468.23" x2="61.55" y2="-3519.09" gradientTransform="matrix(1, 0, 0, -1, 0, -3461.04)" gradientUnits="userSpaceOnUse"><stop offset="0" stop-color="#edf1fd"/><stop offset="1" stop-color="#e1e5f1"/></linearGradient></defs><title>资产图标</title><path class="cls-1" d="M100,32H20V86.47h0c-.25,6.09,3.65,12.22,11.7,16.87,15.62,9,40.94,9,56.56,0,8-4.65,12-10.78,11.7-16.87h0Z"/><path class="cls-2" d="M31.72,16.26c15.62-9,40.94-9,56.56,0s15.62,23.64,0,32.66-40.94,9-56.56,0S16.1,25.28,31.72,16.26Z"/><g class="cls-3"><path class="cls-4" d="M86.17,32.09a3.52,3.52,0,0,1-2,2.51L65.72,45.31a4.43,4.43,0,0,1-2.29.48L52,45.65a6.19,6.19,0,0,1-1.26-.16,4.54,4.54,0,0,1-.9-.4L34.19,36a4.08,4.08,0,0,1-1.27-1.12,2.43,2.43,0,0,1-.5-1.37,2.59,2.59,0,0,1,.43-1.44,4,4,0,0,1,1.49-1.33L55.85,18.26A9.12,9.12,0,0,1,60.25,17a8.35,8.35,0,0,1,4.44,1.17L84.08,29.38C85.57,30.24,86.27,31.14,86.17,32.09ZM75.62,34.25a2.12,2.12,0,0,0,1.1-.28.75.75,0,0,0,.46-.62.78.78,0,0,0-.46-.63L59.26,22.64a2.21,2.21,0,0,0-1.08-.26,2.13,2.13,0,0,0-1.08.26c-.32.19-.49.4-.48.65s.15.45.45.62L74.53,34a2.07,2.07,0,0,0,1.09.26M67,36.78A2.16,2.16,0,0,0,68,36.52a.73.73,0,0,0,.44-.63q0-.36-.45-.63l-15.3-8.83a2.37,2.37,0,0,0-2.16,0,.66.66,0,0,0,0,1.25l15.3,8.83a2.06,2.06,0,0,0,1.08.27M56.07,38.05a2.09,2.09,0,0,0,1.08-.27.76.76,0,0,0,.47-.63.83.83,0,0,0-.48-.62L46.21,30.22A2.25,2.25,0,0,0,45.15,30a2.11,2.11,0,0,0-1.1.27.76.76,0,0,0-.45.63.75.75,0,0,0,.46.62L55,37.78a2.06,2.06,0,0,0,1.08.27"/></g></svg>