<svg id="图层_1" data-name="图层 1" xmlns="http://www.w3.org/2000/svg" xmlns:xlink="http://www.w3.org/1999/xlink" viewBox="0 0 120 120"><defs><style>.cls-1{fill:none;}.cls-2{clip-path:url(#clip-path);}.cls-3{fill:url(#未命名的渐变_13);}.cls-4{fill:url(#未命名的渐变_11);}.cls-5{fill:url(#未命名的渐变_11-2);}.cls-6{fill:#7587ba;}.cls-7{fill:url(#未命名的渐变_10);}.cls-8{fill:url(#未命名的渐变_6);}.cls-9{fill:url(#未命名的渐变_11-3);}.cls-10{fill:url(#未命名的渐变_11-4);}.cls-11{fill:url(#未命名的渐变_10-2);}.cls-12{isolation:isolate;}.cls-13{fill:#f60;}</style><clipPath id="clip-path"><rect class="cls-1" width="120" height="120"/></clipPath><linearGradient id="未命名的渐变_13" x1="60" y1="-507.08" x2="60" y2="-585.21" gradientTransform="matrix(1, 0, 0, -1, 0, -483.74)" gradientUnits="userSpaceOnUse"><stop offset="0" stop-color="#9da4b9"/><stop offset="1" stop-color="#808bab"/></linearGradient><linearGradient id="未命名的渐变_11" x1="30.36" y1="-568.11" x2="10.85" y2="-557.96" gradientTransform="matrix(1, 0, 0, -1, 0, -483.74)" gradientUnits="userSpaceOnUse"><stop offset="0" stop-color="#cad1e7"/><stop offset="1" stop-color="#b4bdd8"/></linearGradient><linearGradient id="未命名的渐变_11-2" x1="53.31" y1="-593.12" x2="45.69" y2="-567.63" xlink:href="#未命名的渐变_11"/><linearGradient id="未命名的渐变_10" x1="97.89" y1="-558.84" x2="80.4" y2="-588.5" gradientTransform="matrix(1, 0, 0, -1, 0, -483.74)" gradientUnits="userSpaceOnUse"><stop offset="0" stop-color="#cfd8ef"/><stop offset="1" stop-color="#d5dae9"/></linearGradient><linearGradient id="未命名的渐变_6" x1="74.99" y1="-489.92" x2="44.98" y2="-554.17" gradientTransform="matrix(1, 0, 0, -1, 0, -483.74)" gradientUnits="userSpaceOnUse"><stop offset="0" stop-color="#edf1fd"/><stop offset="1" stop-color="#e1e5f1"/></linearGradient><linearGradient id="未命名的渐变_11-3" x1="30.36" y1="-543.91" x2="10.85" y2="-533.76" xlink:href="#未命名的渐变_11"/><linearGradient id="未命名的渐变_11-4" x1="53.31" y1="-568.92" x2="45.69" y2="-543.42" xlink:href="#未命名的渐变_11"/><linearGradient id="未命名的渐变_10-2" x1="97.89" y1="-534.63" x2="80.4" y2="-564.3" xlink:href="#未命名的渐变_10"/></defs><title>资产图标</title><g class="cls-2"><path class="cls-3" d="M93.89,42.91l12.4,26.73L72.4,89.2,26.11,82,13.7,55.31,47.6,35.75Z"/><path class="cls-4" d="M13.8,55.27l12.34,26.6v20.8L13.8,76.07Z"/><path class="cls-5" d="M26.14,82l46.23,6.84v20.8l-46.23-6.84Z"/><path class="cls-6" d="M30.51,95.81l24.62,3.64v4L30.51,99.79Z"/><path class="cls-7" d="M106.27,69.64,72.37,88.83v20.8l33.9-19.19Z"/><ellipse class="cls-6" cx="101.1" cy="86.99" rx="3.67" ry="2.12" transform="translate(-24.79 131.05) rotate(-60)"/><path class="cls-8" d="M93.89,18.71l12.4,26.72L72.4,65,26.11,57.84,13.7,31.11,47.6,11.54Z"/><path class="cls-9" d="M13.8,31.06,26.14,57.67v20.8L13.8,51.87Z"/><path class="cls-10" d="M26.14,57.79l46.23,6.83v20.8L26.14,78.59Z"/><path class="cls-6" d="M30.51,71.35,55.13,75v4L30.51,75.33Z"/><path class="cls-11" d="M106.27,45.44,72.37,64.62v20.8l33.9-19.18Z"/><ellipse class="cls-6" cx="101.1" cy="62.97" rx="3.67" ry="2.12" transform="translate(-3.99 119.04) rotate(-60)"/></g><g class="cls-12"><path class="cls-13" d="M74.5,43.08c.81.47.82,1.22,0,1.69L59.36,53.58a3.18,3.18,0,0,1-2.91,0l-26-15a.89.89,0,0,1,0-1.69l27.5-16a3.16,3.16,0,0,1,2.9,0L64,22.72a.9.9,0,0,1,0,1.69l-9.52,5.53a.85.85,0,0,0-.09,1.53l2.37,1.37a3.39,3.39,0,0,0,2.72,0L69,27.29a3.24,3.24,0,0,1,2.91,0l3.16,1.83c.81.47.81,1.22,0,1.68l-9.42,5.48c-.75.43-.83,1.12-.19,1.59ZM59.94,46.72l3-1.72a.89.89,0,0,0,0-1.68l-3.16-1.83a3.21,3.21,0,0,0-2.91,0l-3,1.72a.9.9,0,0,0,0,1.69L57,46.72a3.19,3.19,0,0,0,2.9,0"/></g></svg>