<svg id="图层_1" data-name="图层 1" xmlns="http://www.w3.org/2000/svg" xmlns:xlink="http://www.w3.org/1999/xlink" viewBox="0 0 120 120"><defs><style>.cls-1{fill:url(#未命名的渐变);}.cls-2{fill:url(#未命名的渐变_18);}.cls-3{fill:#d6e0ff;fill-rule:evenodd;}.cls-4{fill:url(#未命名的渐变-2);}.cls-5{fill:url(#未命名的渐变_15);}.cls-6{isolation:isolate;}.cls-7{fill:#fff;}</style><linearGradient id="未命名的渐变" x1="104.36" y1="-1137.99" x2="15.63" y2="-1137.99" gradientTransform="matrix(1, 0, 0, -1, 0, -1052.17)" gradientUnits="userSpaceOnUse"><stop offset="0" stop-color="#82a2ff"/><stop offset="0.4" stop-color="#7c9eff"/><stop offset="0.61" stop-color="#3e6bec"/><stop offset="1" stop-color="#6c93ff"/></linearGradient><linearGradient id="未命名的渐变_18" x1="37.82" y1="-1075.26" x2="82.18" y2="-1152.08" gradientTransform="matrix(1, 0, 0, -1, 0, -1052.17)" gradientUnits="userSpaceOnUse"><stop offset="0" stop-color="#5983f8"/><stop offset="1" stop-color="#3258c2"/></linearGradient><linearGradient id="未命名的渐变-2" x1="104.35" y1="-1111.23" x2="15.63" y2="-1111.23" xlink:href="#未命名的渐变"/><linearGradient id="未命名的渐变_15" x1="58.28" y1="-1058.5" x2="61.72" y2="-1114.9" gradientTransform="matrix(1, 0, 0, -1, 0, -1052.17)" gradientUnits="userSpaceOnUse"><stop offset="0" stop-color="#88a7ff"/><stop offset="1" stop-color="#a3bbff"/></linearGradient></defs><title>资产图标</title><path class="cls-1" d="M104.34,61.5H15.62v23h0c0,4.39,6.12,7.93,18.37,15s18.37,10.61,26,10.61,13.73-3.54,26-10.61,18.37-10.61,18.37-15a2.72,2.72,0,0,0,0-.28Z"/><path class="cls-2" d="M34,46.5c12.25-7.07,18.37-10.61,26-10.61S73.73,39.43,86,46.5s18.37,10.61,18.37,15S98.23,69.43,86,76.5,67.61,87.11,60,87.11,46.27,83.57,34,76.5s-18.37-10.61-18.37-15S21.77,53.57,34,46.5Z"/><path class="cls-3" d="M22.86,73.25c-.48-.28-.87,0-.87.5v14a1.92,1.92,0,0,0,.87,1.5l1.3.75c.47.28.86,0,.86-.5v-14a1.94,1.94,0,0,0-.86-1.5Zm5,3.25c-.48-.28-.87,0-.87.5V91a1.92,1.92,0,0,0,.87,1.5l1.3.75c.47.28.86,0,.86-.5v-14a1.94,1.94,0,0,0-.86-1.5ZM32,79.88c0-.56.39-.78.87-.5l1.3.75a1.91,1.91,0,0,1,.86,1.5v14c0,.55-.39.77-.86.5l-1.3-.75a1.92,1.92,0,0,1-.87-1.5ZM37.86,82c-.48-.28-.87,0-.87.5v14a1.92,1.92,0,0,0,.87,1.5l1.3.75c.47.28.86,0,.86-.5v-14a1.94,1.94,0,0,0-.86-1.5Z"/><path class="cls-4" d="M104.34,34.5H15.62V58h0c0,4.39,6.12,7.93,18.37,15S52.39,83.61,60,83.61,73.73,80.07,86,73s18.37-10.61,18.37-15a2.62,2.62,0,0,0,0-.28Z"/><path class="cls-5" d="M34,19.5C46.27,12.43,52.39,8.89,60,8.89S73.73,12.43,86,19.5s18.37,10.61,18.37,15S98.23,42.43,86,49.5,67.61,60.11,60,60.11,46.27,56.57,34,49.5s-18.37-10.61-18.37-15S21.77,26.57,34,19.5Z"/><path class="cls-3" d="M57.4,15.5a5.74,5.74,0,0,0,5.2,0c1.43-.83,1.43-2.17,0-3a5.74,5.74,0,0,0-5.2,0C56,13.33,56,14.67,57.4,15.5ZM22.42,36a5.74,5.74,0,0,0,5.2,0c1.44-.83,1.44-2.17,0-3a5.74,5.74,0,0,0-5.2,0C21,33.83,21,35.17,22.42,36Zm71.25,0a5.74,5.74,0,0,0,5.2,0c1.44-.83,1.44-2.17,0-3a5.74,5.74,0,0,0-5.2,0C92.24,33.83,92.24,35.17,93.67,36ZM62.6,55.25a5.74,5.74,0,0,1-5.2,0c-1.43-.83-1.43-2.17,0-3a5.74,5.74,0,0,1,5.2,0C64,53.08,64,54.42,62.6,55.25Z"/><g class="cls-6"><path class="cls-7" d="M68.36,42l1.16,5.58c0,.11-.14.19-.32.19l-9.68-.63a.47.47,0,0,1-.21-.06.27.27,0,0,1-.08-.07c0-.07,0-.15.09-.21L62,45.21l-3.37-1.94c-3-1.8-4.26-4.33-3.43-6.77a20.32,20.32,0,0,1-11.67-2l-3.87-2.23L37,33.87a.51.51,0,0,1-.22.06.49.49,0,0,1-.28-.06.19.19,0,0,1-.09-.11l-1.15-5.59A.36.36,0,0,1,35.6,28l9.64.65a.53.53,0,0,1,.18.05.14.14,0,0,1,0,.27l-2.68,1.56,3.36,1.94.2.12a13.47,13.47,0,0,0,8.28,1.34c3.05-.44,5.42-1.82,6.17-3.58s-.1-3.4-2.11-4.65l-3.78-2.18L52.19,25a.43.43,0,0,1-.21,0,.47.47,0,0,1-.27,0,.19.19,0,0,1-.1-.12l-1.16-5.58a.41.41,0,0,1,.4-.19l9.6.64a.39.39,0,0,1,.18,0,.14.14,0,0,1,0,.27L58,21.65l3.36,1.94.26.14c3.15,1.82,4.53,4.43,3.68,6.92a20.33,20.33,0,0,1,11.69,2l3.37,2L83,33a.52.52,0,0,1,.23,0,.57.57,0,0,1,.24,0,.27.27,0,0,1,.1.12l1.16,5.58c0,.11-.14.19-.32.19l-9.67-.63a.58.58,0,0,1-.21-.06.16.16,0,0,1-.1-.16s0-.08.1-.11l2.67-1.56-3.37-1.94a13.49,13.49,0,0,0-12,.07c-3.25,1.89-3.29,5-.08,7l3.37,1.95,2.68-1.56a.55.55,0,0,1,.47,0A.27.27,0,0,1,68.36,42Z"/></g></svg>