<svg id="图层_1" data-name="图层 1" xmlns="http://www.w3.org/2000/svg" xmlns:xlink="http://www.w3.org/1999/xlink" viewBox="0 0 120 120"><defs><style>.cls-1{fill:url(#未命名的渐变_12);}.cls-2{fill:url(#未命名的渐变_13);}.cls-3{fill:url(#未命名的渐变_12-2);}.cls-4{fill:url(#未命名的渐变_13-2);}.cls-5{fill:url(#未命名的渐变_12-3);}.cls-6{fill:url(#未命名的渐变_6);}.cls-7{isolation:isolate;}.cls-8{fill:#cc2b11;}</style><linearGradient id="未命名的渐变_12" x1="100" y1="35.19" x2="20.27" y2="35.19" gradientTransform="matrix(1, 0, 0, -1, 0, 122)" gradientUnits="userSpaceOnUse"><stop offset="0" stop-color="#e8ecf8"/><stop offset="0.22" stop-color="#d9dfee"/><stop offset="0.86" stop-color="#b4bdd8"/><stop offset="1" stop-color="#bec5dc"/></linearGradient><linearGradient id="未命名的渐变_13" x1="40" y1="86.24" x2="79.92" y2="17.1" gradientTransform="matrix(1, 0, 0, -1, 0, 122)" gradientUnits="userSpaceOnUse"><stop offset="0" stop-color="#9da4b9"/><stop offset="1" stop-color="#808bab"/></linearGradient><linearGradient id="未命名的渐变_12-2" x1="100" y1="54.29" x2="20.27" y2="54.29" xlink:href="#未命名的渐变_12"/><linearGradient id="未命名的渐变_13-2" x1="40" y1="105.34" x2="79.92" y2="36.2" xlink:href="#未命名的渐变_13"/><linearGradient id="未命名的渐变_12-3" x1="100" y1="73.39" x2="20.27" y2="73.39" xlink:href="#未命名的渐变_12"/><linearGradient id="未命名的渐变_6" x1="58.45" y1="115.22" x2="61.55" y2="64.36" gradientTransform="matrix(1, 0, 0, -1, 0, 122)" gradientUnits="userSpaceOnUse"><stop offset="0" stop-color="#edf1fd"/><stop offset="1" stop-color="#e1e5f1"/></linearGradient></defs><title>资产图标</title><path class="cls-1" d="M20,86.27h0V69.85H32.87c15.3-8.17,39-8.17,54.26,0H100V86.27h0c.25,6.09-3.65,12.22-11.7,16.87-15.62,9-40.94,9-56.56,0C23.67,98.49,19.77,92.36,20,86.27Z"/><path class="cls-2" d="M31.72,54.06c15.62-9,40.94-9,56.56,0s15.62,23.64,0,32.66-40.94,9-56.56,0S16.1,63.08,31.72,54.06Z"/><path class="cls-3" d="M20,67.17h0V50.74H32.87c15.3-8.16,39-8.16,54.26,0H100V67.17h0c.25,6.09-3.65,12.22-11.7,16.87-15.62,9-40.94,9-56.56,0C23.67,79.39,19.77,73.26,20,67.17Z"/><path class="cls-4" d="M31.72,35c15.62-9,40.94-9,56.56,0s15.62,23.64,0,32.66-40.94,9-56.56,0S16.1,44,31.72,35Z"/><path class="cls-5" d="M20,48.07h0V31.64H32.87c15.3-8.16,39-8.16,54.26,0H100V48.07h0c.25,6.09-3.65,12.22-11.7,16.87-15.62,9-40.94,9-56.56,0C23.67,60.29,19.77,54.16,20,48.07Z"/><path class="cls-6" d="M31.72,15.86c15.62-9,40.94-9,56.56,0s15.62,23.64,0,32.66-40.94,9-56.56,0S16.1,24.88,31.72,15.86Z"/><g class="cls-7"><path class="cls-8" d="M76.51,28.09c8.29,7.29,12.75,12.82,9.5,14-1.47.52-3.07.09-6.45-1.28,0,0-5.24-2.19-7.09-2.92-1.37-.55-2.76-1.06-4.19-1.55-9.92,7.19-17.19,9.68-22,6.91-1-.61-2.08-1.25-3.09-1.94l-.19,0L42.81,41c-7.05-4.87-12.51-11.24-9-13.29C35,27,37,27,39.65,27.24a86,86,0,0,1,11.46,2.33c10.3-1.7,14.79-4.35,14-8-1.63-1.36-2.07-2.15-1.44-3,1-1.26,3.91-.78,8.13.54a31.13,31.13,0,0,1,5.48,2.19,2.54,2.54,0,0,1,1.08.93c.31.8-.37,2.56-2,5.6Zm-40.66.8a.49.49,0,0,0-.25.19c4.5,1.66,8.52,3.05,12.09,4.18a32.29,32.29,0,0,0,5.47-1.44c-1-.27-1.94-.53-2.93-.78a82.64,82.64,0,0,0-10.9-2.23,7.73,7.73,0,0,0-3.48.08M48.14,42.13c2.44,1.41,7,.24,13.47-3.82A44.11,44.11,0,0,1,57,37.55c-1,.42-2,.79-3.05,1.13-1.69.56-4.37,1.22-8.08,2,.75.5,1.5,1,2.25,1.41M44,39.39q6.09-1.29,8.57-2.11l1.32-.46c-2.19-.56-4.33-1.17-6.45-1.84-2.19.38-4.71.7-7.57,1A46.68,46.68,0,0,0,44,39.39m37,.1a26.35,26.35,0,0,0,3.35,1.18,1.3,1.3,0,0,0-.12-.71,11.59,11.59,0,0,0-1.84-2.84,50.76,50.76,0,0,0-4.16-4.49c-1.25.28-2.56.52-3.88.76a65.37,65.37,0,0,1,4.26,5.08v0l2.39,1m-12.8-18,3.56,2.72c.87.68,1.7,1.33,2.51,2,1-2,1.47-3.21,1.39-3.6,0,0,0,0,0,0l-.13-.08a12.09,12.09,0,0,0-1.16-.55,39.06,39.06,0,0,0-3.72-1.38,28.46,28.46,0,0,0-3.72-.94,4.15,4.15,0,0,0-.71-.08c.1.3.68.88,2,1.93m2.08,10.88a30.56,30.56,0,0,0-2.61-2.24,68.29,68.29,0,0,1-7.57,2l3.36,1c2.3-.18,4.58-.43,6.82-.73m-6.54-4.6a35.06,35.06,0,0,1-8.83,2.81l1.4.39a49.37,49.37,0,0,0,9.53-2.12l-.39-.23a15.13,15.13,0,0,0-1.71-.85M35.73,31a15.32,15.32,0,0,0,2.62,3.44q2.77-.27,5.52-.61C41.34,33,38.64,32.1,35.73,31m20.8,4.7a19.57,19.57,0,0,0,3.37-2l-1.32-.39c-.87-.27-1.76-.52-2.6-.76A23.63,23.63,0,0,1,51,34.28c1.79.52,3.62,1,5.49,1.46m16.86-7.57c-1.11.4-2.22.8-3.37,1.18A37.42,37.42,0,0,1,73,32c1.31-.22,2.6-.46,3.83-.72q-1.65-1.55-3.41-3.06m-5.17-.1c1.15-.38,2.32-.79,3.57-1.25-.71-.58-1.45-1.16-2.2-1.73L67.77,23.7a6,6,0,0,1-2.21,2.93,18.24,18.24,0,0,1,1.82.93l.84.51m-.6,6.25c2.3.74,4.54,1.55,6.71,2.41-.81-1-1.68-2-2.6-2.92q-2,.28-4.11.51m-5.19.18a18,18,0,0,1-2.88,1.85,29.17,29.17,0,0,0,4.05.47l0,.21c.72-.48,1.44-1,2.23-1.54-.9-.28-1.81-.55-2.73-.8a5.36,5.36,0,0,1-.64-.19"/></g></svg>