<svg id="图层_1" data-name="图层 1" xmlns="http://www.w3.org/2000/svg" xmlns:xlink="http://www.w3.org/1999/xlink" viewBox="0 0 120 120"><defs><style>.cls-1{fill:url(#未命名的渐变);}.cls-2{fill:url(#未命名的渐变_18);}.cls-3{fill:#d6e0ff;fill-rule:evenodd;}.cls-4{fill:url(#未命名的渐变-2);}.cls-5{fill:url(#未命名的渐变_15);}.cls-6{isolation:isolate;}.cls-7{fill:#fff;}</style><linearGradient id="未命名的渐变" x1="104.36" y1="-2369.81" x2="15.63" y2="-2369.81" gradientTransform="matrix(1, 0, 0, -1, 0, -2284)" gradientUnits="userSpaceOnUse"><stop offset="0" stop-color="#82a2ff"/><stop offset="0.4" stop-color="#7c9eff"/><stop offset="0.61" stop-color="#3e6bec"/><stop offset="1" stop-color="#6c93ff"/></linearGradient><linearGradient id="未命名的渐变_18" x1="37.82" y1="-2307.09" x2="82.18" y2="-2383.91" gradientTransform="matrix(1, 0, 0, -1, 0, -2284)" gradientUnits="userSpaceOnUse"><stop offset="0" stop-color="#5983f8"/><stop offset="1" stop-color="#3258c2"/></linearGradient><linearGradient id="未命名的渐变-2" x1="104.35" y1="-2343.05" x2="15.63" y2="-2343.05" xlink:href="#未命名的渐变"/><linearGradient id="未命名的渐变_15" x1="58.28" y1="-2290.32" x2="61.72" y2="-2346.73" gradientTransform="matrix(1, 0, 0, -1, 0, -2284)" gradientUnits="userSpaceOnUse"><stop offset="0" stop-color="#88a7ff"/><stop offset="1" stop-color="#a3bbff"/></linearGradient></defs><title>资产图标</title><path class="cls-1" d="M104.34,61.5H15.63v23h0c0,4.39,6.12,7.93,18.37,15s18.37,10.61,26,10.61,13.73-3.54,26-10.61,18.37-10.61,18.37-15a2.72,2.72,0,0,0,0-.28Z"/><path class="cls-2" d="M34,46.5c12.25-7.07,18.37-10.61,26-10.61S73.73,39.43,86,46.5s18.37,10.61,18.37,15S98.23,69.43,86,76.5,67.61,87.11,60,87.11,46.27,83.57,34,76.5s-18.37-10.61-18.37-15S21.77,53.57,34,46.5Z"/><path class="cls-3" d="M22.86,73.25c-.48-.28-.87,0-.87.5v14a1.92,1.92,0,0,0,.87,1.5l1.3.75c.47.28.86,0,.86-.5v-14a1.94,1.94,0,0,0-.86-1.5Zm5,3.25c-.48-.28-.87,0-.87.5V91a1.92,1.92,0,0,0,.87,1.5l1.3.75c.47.28.86,0,.86-.5v-14a1.94,1.94,0,0,0-.86-1.5ZM32,79.88c0-.56.39-.78.87-.5l1.3.75a1.91,1.91,0,0,1,.86,1.5v14c0,.55-.39.77-.86.5l-1.3-.75a1.92,1.92,0,0,1-.87-1.5ZM37.86,82c-.48-.28-.87,0-.87.5v14a1.92,1.92,0,0,0,.87,1.5l1.3.75c.47.28.86,0,.86-.5v-14a1.94,1.94,0,0,0-.86-1.5Z"/><path class="cls-4" d="M104.34,34.5H15.63V58h0c0,4.39,6.12,7.93,18.37,15S52.39,83.61,60,83.61,73.73,80.07,86,73s18.37-10.61,18.37-15a2.62,2.62,0,0,0,0-.28Z"/><path class="cls-5" d="M34,19.5C46.27,12.43,52.39,8.89,60,8.89S73.73,12.43,86,19.5s18.37,10.61,18.37,15S98.23,42.43,86,49.5,67.61,60.11,60,60.11,46.27,56.57,34,49.5s-18.37-10.61-18.37-15S21.77,26.57,34,19.5Z"/><path class="cls-3" d="M57.4,15.5a5.74,5.74,0,0,0,5.2,0c1.43-.83,1.43-2.17,0-3a5.74,5.74,0,0,0-5.2,0C56,13.33,56,14.67,57.4,15.5ZM22.42,36a5.74,5.74,0,0,0,5.2,0c1.44-.83,1.44-2.17,0-3a5.74,5.74,0,0,0-5.2,0C21,33.83,21,35.17,22.42,36Zm71.25,0a5.74,5.74,0,0,0,5.2,0c1.44-.83,1.44-2.17,0-3a5.74,5.74,0,0,0-5.2,0C92.24,33.83,92.24,35.17,93.67,36ZM62.6,55.25a5.74,5.74,0,0,1-5.2,0c-1.43-.83-1.43-2.17,0-3a5.74,5.74,0,0,1,5.2,0C64,53.08,64,54.42,62.6,55.25Z"/><g class="cls-6"><path class="cls-7" d="M86.28,34.53c.63.55.51,1.28-.31,1.73l-15.43,9a11.38,11.38,0,0,1-3.6,1.35,34.08,34.08,0,0,1-4.79.6c-1.77.09-3.56.09-5.33,0s-3.53-.25-5.27-.47a46.48,46.48,0,0,1-4.65-.78,23.32,23.32,0,0,1-3.59-1l-.66-.38a9.78,9.78,0,0,1-1.73-2,14.66,14.66,0,0,1-1.43-2.74,14,14,0,0,1-.8-3.11,9.61,9.61,0,0,1-.1-3.12,7.32,7.32,0,0,1,.93-2.83,5.82,5.82,0,0,1,2.25-2.17l15.42-9a3.65,3.65,0,0,1,3-.18l15.57,6.11Zm-19,9.21,4.91-2.85L60.81,34.3,73.33,27l-.16-.1L59.79,21.45,49.21,27.6l11.55,6.67L45.7,43a30.93,30.93,0,0,0,3.22.9c1.25.31,2.53.55,3.84.75s2.7.35,4.08.45a33.84,33.84,0,0,0,4,.06,23.59,23.59,0,0,0,3.61-.43,9.18,9.18,0,0,0,2.83-1"/></g></svg>