<svg id="图层_1" data-name="图层 1" xmlns="http://www.w3.org/2000/svg" xmlns:xlink="http://www.w3.org/1999/xlink" viewBox="0 0 120 120"><defs><style>.cls-1{fill:url(#未命名的渐变);}.cls-2{fill:url(#未命名的渐变_2);}.cls-3{fill:#d6e0ff;fill-rule:evenodd;}.cls-4{fill:url(#未命名的渐变-2);}.cls-5{fill:url(#未命名的渐变_4);}.cls-6{isolation:isolate;}.cls-7{fill:#fff;}</style><linearGradient id="未命名的渐变" x1="104.36" y1="36.19" x2="15.63" y2="36.19" gradientTransform="matrix(1, 0, 0, -1, 0, 122)" gradientUnits="userSpaceOnUse"><stop offset="0" stop-color="#82a2ff"/><stop offset="0.4" stop-color="#7c9eff"/><stop offset="0.61" stop-color="#3e6bec"/><stop offset="1" stop-color="#6c93ff"/></linearGradient><linearGradient id="未命名的渐变_2" x1="37.82" y1="98.91" x2="82.18" y2="22.09" gradientTransform="matrix(1, 0, 0, -1, 0, 122)" gradientUnits="userSpaceOnUse"><stop offset="0" stop-color="#5983f8"/><stop offset="1" stop-color="#3258c2"/></linearGradient><linearGradient id="未命名的渐变-2" x1="104.35" y1="62.95" x2="15.63" y2="62.95" xlink:href="#未命名的渐变"/><linearGradient id="未命名的渐变_4" x1="58.28" y1="115.68" x2="61.72" y2="59.27" gradientTransform="matrix(1, 0, 0, -1, 0, 122)" gradientUnits="userSpaceOnUse"><stop offset="0" stop-color="#88a7ff"/><stop offset="1" stop-color="#a3bbff"/></linearGradient></defs><title>资产图标</title><path class="cls-1" d="M104.34,61.5H15.63v23h0c0,4.39,6.12,7.93,18.37,15s18.37,10.61,26,10.61,13.73-3.54,26-10.61,18.37-10.61,18.37-15a2.72,2.72,0,0,0,0-.28Z"/><path class="cls-2" d="M34,46.5c12.25-7.07,18.37-10.61,26-10.61S73.73,39.43,86,46.5s18.37,10.61,18.37,15S98.23,69.43,86,76.5,67.61,87.11,60,87.11,46.27,83.57,34,76.5s-18.37-10.61-18.37-15S21.77,53.57,34,46.5Z"/><path class="cls-3" d="M22.86,73.25c-.48-.28-.87,0-.87.5v14a1.92,1.92,0,0,0,.87,1.5l1.3.75c.47.28.86,0,.86-.5v-14a1.94,1.94,0,0,0-.86-1.5Zm5,3.25c-.48-.28-.87,0-.87.5V91a1.92,1.92,0,0,0,.87,1.5l1.3.75c.47.28.86,0,.86-.5v-14a1.94,1.94,0,0,0-.86-1.5ZM32,79.88c0-.56.39-.78.87-.5l1.3.75a1.91,1.91,0,0,1,.86,1.5v14c0,.55-.39.77-.86.5l-1.3-.75a1.92,1.92,0,0,1-.87-1.5ZM37.86,82c-.48-.28-.87,0-.87.5v14a1.92,1.92,0,0,0,.87,1.5l1.3.75c.47.28.86,0,.86-.5v-14a1.94,1.94,0,0,0-.86-1.5Z"/><path class="cls-4" d="M104.34,34.5H15.63V58h0c0,4.39,6.12,7.93,18.37,15S52.39,83.61,60,83.61,73.73,80.07,86,73s18.37-10.61,18.37-15a2.62,2.62,0,0,0,0-.28Z"/><path class="cls-5" d="M34,19.5C46.27,12.43,52.39,8.89,60,8.89S73.73,12.43,86,19.5s18.37,10.61,18.37,15S98.23,42.43,86,49.5,67.61,60.11,60,60.11,46.27,56.57,34,49.5s-18.37-10.61-18.37-15S21.77,26.57,34,19.5Z"/><path class="cls-3" d="M57.4,15.5a5.74,5.74,0,0,0,5.2,0c1.43-.83,1.43-2.17,0-3a5.74,5.74,0,0,0-5.2,0C56,13.33,56,14.67,57.4,15.5ZM22.42,36a5.74,5.74,0,0,0,5.2,0c1.44-.83,1.44-2.17,0-3a5.74,5.74,0,0,0-5.2,0C21,33.83,21,35.17,22.42,36Zm71.25,0a5.74,5.74,0,0,0,5.2,0c1.44-.83,1.44-2.17,0-3a5.74,5.74,0,0,0-5.2,0C92.24,33.83,92.24,35.17,93.67,36ZM62.6,55.25a5.74,5.74,0,0,1-5.2,0c-1.43-.83-1.43-2.17,0-3a5.74,5.74,0,0,1,5.2,0C64,53.08,64,54.42,62.6,55.25Z"/><g class="cls-6"><path class="cls-7" d="M79.82,25c1.43.82,1.43,2.18,0,3L75.3,30.67a5.75,5.75,0,0,1-5.19,0l-7.82-4.52c-1.43-.83-1.44-2.18,0-3l4.53-2.63a5.72,5.72,0,0,1,5.19,0Zm-4.21,2.06a2.13,2.13,0,0,0,2,0,.59.59,0,0,0,0-1.12l-2-1.14a2.16,2.16,0,0,0-2,0,.6.6,0,0,0,0,1.13l2,1.13"/></g><g class="cls-6"><path class="cls-7" d="M64.58,29.73a.59.59,0,0,1,0,1.12l-1,.57,6.85,3.95a.6.6,0,0,1,0,1.13l-1.29.75a2.16,2.16,0,0,1-2,0,.6.6,0,0,1,0-1.13l.33-.19L53.2,27.66l-.32.19a2.16,2.16,0,0,1-2,0,.6.6,0,0,1,0-1.13L52.22,26a2.13,2.13,0,0,1,2,0l7.49,4.32,1-.56A2.16,2.16,0,0,1,64.58,29.73Z"/></g><g class="cls-6"><path class="cls-7" d="M53.23,31.42c1.43.83,1.44,2.18,0,3l-4.53,2.63a5.75,5.75,0,0,1-5.19,0l-7.81-4.51c-1.43-.83-1.44-2.19,0-3l4.53-2.63a5.72,5.72,0,0,1,5.19,0ZM49,33.49a2.16,2.16,0,0,0,1.95,0,.6.6,0,0,0,0-1.13l-2-1.13a2.14,2.14,0,0,0-1.94,0,.6.6,0,0,0,0,1.13l2,1.13"/></g><g class="cls-6"><path class="cls-7" d="M68.86,40.45c1.43.82,1.45,2.17,0,3l-4.53,2.64a5.78,5.78,0,0,1-5.19,0l-7.82-4.52c-1.44-.83-1.44-2.18,0-3l4.53-2.63a5.74,5.74,0,0,1,5.2,0Zm-4.21,2.06a2.13,2.13,0,0,0,1.95,0c.54-.31.54-.81,0-1.12l-2-1.13a2.1,2.1,0,0,0-2,0c-.53.31-.53.81,0,1.13l2,1.12"/></g></svg>