<svg id="图层_1" data-name="图层 1" xmlns="http://www.w3.org/2000/svg" xmlns:xlink="http://www.w3.org/1999/xlink" viewBox="0 0 120 120"><defs><style>.cls-1{fill:url(#未命名的渐变_12);}.cls-2{fill:url(#未命名的渐变_6);}.cls-3{isolation:isolate;}.cls-4{fill:#3470f6;}</style><linearGradient id="未命名的渐变_12" x1="100" y1="-3532.12" x2="20.27" y2="-3532.12" gradientTransform="matrix(1, 0, 0, -1, 0, -3461.04)" gradientUnits="userSpaceOnUse"><stop offset="0" stop-color="#e8ecf8"/><stop offset="0.22" stop-color="#d9dfee"/><stop offset="0.86" stop-color="#b4bdd8"/><stop offset="1" stop-color="#bec5dc"/></linearGradient><linearGradient id="未命名的渐变_6" x1="58.45" y1="-3468.23" x2="61.55" y2="-3519.09" gradientTransform="matrix(1, 0, 0, -1, 0, -3461.04)" gradientUnits="userSpaceOnUse"><stop offset="0" stop-color="#edf1fd"/><stop offset="1" stop-color="#e1e5f1"/></linearGradient></defs><title>资产图标</title><path class="cls-1" d="M100,32H20V86.47h0c-.25,6.09,3.65,12.22,11.7,16.87,15.62,9,40.94,9,56.56,0,8-4.65,12-10.78,11.7-16.87h0Z"/><path class="cls-2" d="M31.72,16.26c15.62-9,40.94-9,56.56,0s15.62,23.64,0,32.66-40.94,9-56.56,0S16.1,25.28,31.72,16.26Z"/><g class="cls-3"><path class="cls-4" d="M68.67,18.84A5.65,5.65,0,0,0,67,20.4a34.32,34.32,0,0,0-14.2,0,5,5,0,0,0-1.7-1.5A37.36,37.36,0,0,1,64,18.09,29.42,29.42,0,0,1,68.67,18.84Z"/></g><g class="cls-3"><path class="cls-4" d="M49.68,19.45c3,1.71,3,4.49,0,6.2a11.78,11.78,0,0,1-10.69,0c-3-1.72-3-4.49,0-6.2A11.78,11.78,0,0,1,49.68,19.45Zm-8.52,5a6.66,6.66,0,0,0,6,0c1.66-1,1.65-2.53,0-3.49a6.66,6.66,0,0,0-6,0c-1.67,1-1.66,2.54,0,3.51"/></g><g class="cls-3"><path class="cls-4" d="M80.78,19.38c3,1.71,3,4.49,0,6.19a11.72,11.72,0,0,1-10.69,0c-3-1.7-3-4.48,0-6.19A11.78,11.78,0,0,1,80.78,19.38Zm-8.21,4.78a6.66,6.66,0,0,0,6,0c1.66-1,1.65-2.53,0-3.5a6.63,6.63,0,0,0-6,0c-1.67,1-1.66,2.53,0,3.5"/></g><g class="cls-3"><path class="cls-4" d="M81.58,26.29A9.17,9.17,0,0,1,83,29a8.18,8.18,0,0,1-1.16,7.69,10.37,10.37,0,0,0-3-1,7.07,7.07,0,0,0,1-6.44,9.65,9.65,0,0,0-1-2A10.6,10.6,0,0,0,81.58,26.29Z"/></g><g class="cls-3"><path class="cls-4" d="M80.77,37.4c3,1.71,3,4.49,0,6.19a11.78,11.78,0,0,1-10.6.06l-.09-.06c-2.92-1.68-3-4.42-.13-6.14a11.8,11.8,0,0,1,10.7-.1Zm-8.61,4.9a6.63,6.63,0,0,0,6,0c1.66-1,1.65-2.53,0-3.5a6.63,6.63,0,0,0-6,0c-1.67,1-1.66,2.53,0,3.5"/></g><g class="cls-3"><path class="cls-4" d="M40.81,27.48a7.11,7.11,0,0,0-.78,6,6.82,6.82,0,0,0,.95,2,10.43,10.43,0,0,0-2.69,1,8.88,8.88,0,0,1-1.37-2.71,8.16,8.16,0,0,1,1.2-7.33A12.93,12.93,0,0,0,40.81,27.48Z"/></g><g class="cls-3"><path class="cls-4" d="M50,43.51a2.1,2.1,0,0,1-.42.24,12.05,12.05,0,0,1-10.3-.22c-2.83-1.64-3-4.25-.4-6a4,4,0,0,1,.46-.26,10.45,10.45,0,0,1,2.71-1,11.89,11.89,0,0,1,7.89,1.06c2.05,1.21,2.74,3,1.77,4.59A4.9,4.9,0,0,1,50,43.51Zm-8.15-1a6.63,6.63,0,0,0,6-.19c1.72-1,1.71-2.62,0-3.62a6.89,6.89,0,0,0-6.25,0l-.16.09c-1.66,1-1.65,2.53,0,3.49l.21.13a1,1,0,0,0,.17.1"/></g><g class="cls-3"><path class="cls-4" d="M66.93,42.53a6.23,6.23,0,0,0,1.73,1.59A40.59,40.59,0,0,1,56,44.89a36.84,36.84,0,0,1-4.66-.8,5.65,5.65,0,0,0,1.75-1.58,26,26,0,0,0,3.35.54A34.79,34.79,0,0,0,66.93,42.53Z"/></g></svg>