<svg id="图层_1" data-name="图层 1" xmlns="http://www.w3.org/2000/svg" xmlns:xlink="http://www.w3.org/1999/xlink" viewBox="0 0 120 120"><defs><style>.cls-1{fill:none;}.cls-2{clip-path:url(#clip-path);}.cls-3{fill:url(#未命名的渐变_13);}.cls-4{fill:url(#未命名的渐变_11);}.cls-5{fill:url(#未命名的渐变_11-2);}.cls-6{fill:#7587ba;}.cls-7{fill:url(#未命名的渐变_10);}.cls-8{fill:url(#未命名的渐变_6);}.cls-9{fill:url(#未命名的渐变_11-3);}.cls-10{fill:url(#未命名的渐变_11-4);}.cls-11{fill:url(#未命名的渐变_10-2);}.cls-12{isolation:isolate;}.cls-13{fill:#ffab19;}</style><clipPath id="clip-path"><rect class="cls-1" width="120" height="120"/></clipPath><linearGradient id="未命名的渐变_13" x1="60" y1="-507.08" x2="60" y2="-585.21" gradientTransform="matrix(1, 0, 0, -1, 0, -483.74)" gradientUnits="userSpaceOnUse"><stop offset="0" stop-color="#9da4b9"/><stop offset="1" stop-color="#808bab"/></linearGradient><linearGradient id="未命名的渐变_11" x1="30.36" y1="-568.11" x2="10.85" y2="-557.96" gradientTransform="matrix(1, 0, 0, -1, 0, -483.74)" gradientUnits="userSpaceOnUse"><stop offset="0" stop-color="#cad1e7"/><stop offset="1" stop-color="#b4bdd8"/></linearGradient><linearGradient id="未命名的渐变_11-2" x1="53.31" y1="-593.12" x2="45.69" y2="-567.63" xlink:href="#未命名的渐变_11"/><linearGradient id="未命名的渐变_10" x1="97.89" y1="-558.84" x2="80.4" y2="-588.5" gradientTransform="matrix(1, 0, 0, -1, 0, -483.74)" gradientUnits="userSpaceOnUse"><stop offset="0" stop-color="#cfd8ef"/><stop offset="1" stop-color="#d5dae9"/></linearGradient><linearGradient id="未命名的渐变_6" x1="74.99" y1="-489.92" x2="44.98" y2="-554.17" gradientTransform="matrix(1, 0, 0, -1, 0, -483.74)" gradientUnits="userSpaceOnUse"><stop offset="0" stop-color="#edf1fd"/><stop offset="1" stop-color="#e1e5f1"/></linearGradient><linearGradient id="未命名的渐变_11-3" x1="30.36" y1="-543.91" x2="10.85" y2="-533.76" xlink:href="#未命名的渐变_11"/><linearGradient id="未命名的渐变_11-4" x1="53.31" y1="-568.92" x2="45.69" y2="-543.42" xlink:href="#未命名的渐变_11"/><linearGradient id="未命名的渐变_10-2" x1="97.89" y1="-534.63" x2="80.4" y2="-564.3" xlink:href="#未命名的渐变_10"/></defs><title>资产图标</title><g class="cls-2"><path class="cls-3" d="M93.89,42.91l12.4,26.73L72.4,89.2,26.11,82,13.7,55.31,47.6,35.75Z"/><path class="cls-4" d="M13.8,55.27l12.34,26.6v20.8L13.8,76.07Z"/><path class="cls-5" d="M26.14,82l46.23,6.84v20.8l-46.23-6.84Z"/><path class="cls-6" d="M30.51,95.81l24.62,3.64v4L30.51,99.79Z"/><path class="cls-7" d="M106.27,69.64,72.37,88.83v20.8l33.9-19.19Z"/><ellipse class="cls-6" cx="101.1" cy="86.99" rx="3.67" ry="2.12" transform="translate(-24.79 131.05) rotate(-60)"/><path class="cls-8" d="M93.89,18.71l12.4,26.72L72.4,65,26.11,57.84,13.7,31.11,47.6,11.54Z"/><path class="cls-9" d="M13.8,31.06,26.14,57.67v20.8L13.8,51.87Z"/><path class="cls-10" d="M26.14,57.79l46.23,6.83v20.8L26.14,78.59Z"/><path class="cls-6" d="M30.51,71.35,55.13,75v4L30.51,75.33Z"/><path class="cls-11" d="M106.27,45.44,72.37,64.62v20.8l33.9-19.18Z"/><ellipse class="cls-6" cx="101.1" cy="62.97" rx="3.67" ry="2.12" transform="translate(-3.99 119.04) rotate(-60)"/></g><g class="cls-12"><path class="cls-13" d="M60,24.94a3.59,3.59,0,0,1,1.67,3.7A10.93,10.93,0,0,1,59,27.5c-1.23-.7-2.09-1.52-1.94-2a2.71,2.71,0,0,1,.76-.54,11.27,11.27,0,0,0-1.51-1.06A8.9,8.9,0,0,0,51,22.78a9.51,9.51,0,0,0-4.91,1.67A7,7,0,0,0,44,27.26h-.34l-.6,0a7.09,7.09,0,0,1,2.28-3.1,11,11,0,0,1,11.47-.64c.51.3,1,.79,1.62,1.23a2.06,2.06,0,0,1,1.1-.05A1.54,1.54,0,0,1,60,24.94Z"/><path class="cls-13" d="M62.56,31l-.16.1c-.26.25-4.56,6.4-.37,11.17l.43.55,1.36.09c-.07,1.82-.23,4.78-.39,5.47,1.1.64,2.21,1.67,2.05,2.56a1.65,1.65,0,0,1-.67,1.18l-.34.1-4-2.32C57,43.5,53.34,38.24,47.2,34a27.37,27.37,0,0,0-2.48-1.63,9.81,9.81,0,0,0-2.3-1,12.39,12.39,0,0,0-5.1-.69,9.5,9.5,0,0,0-5.17,1.62l-.34.3-4.18-2.41L28,30c.68-.39,6.8-1.28,13.59-1.48.42,0,.85,0,1.27,0l.94-.05A69.08,69.08,0,0,1,62.56,31Z"/><path class="cls-13" d="M43.69,33.18a25.13,25.13,0,0,1,2.24,1.47l.17.09a2.71,2.71,0,0,0-.84,1.58,4.84,4.84,0,0,1,1.15.45,1.56,1.56,0,0,1,.72.73.74.74,0,0,1-.41.84l-.34.19-3.07-1.77a18.87,18.87,0,0,1-.88-4.23C42.86,32.72,43.28,33,43.69,33.18Z"/><path class="cls-13" d="M87.74,34.65c-.43.73-3.3,2.7-4.06,3.14a26.67,26.67,0,0,1-8.74,3.4l-.59.05c-.34.1-.68.1-1,.2l-.76.14a38.82,38.82,0,0,1-8.67.2c-3.77-4.33.16-9.9.37-10.19a24.24,24.24,0,0,1,3.55-2.75,19.5,19.5,0,0,1,5.59-2.46c.78,1.23,1.47,3,.28,4.08a31.35,31.35,0,0,1,4,1.94,27.94,27.94,0,0,1,3,2.05C82.63,33.86,86.2,34.25,87.74,34.65Z"/></g></svg>