<svg id="图层_1" data-name="图层 1" xmlns="http://www.w3.org/2000/svg" xmlns:xlink="http://www.w3.org/1999/xlink" viewBox="0 0 120 120"><defs><style>.cls-1{fill:none;}.cls-2{clip-path:url(#clip-path);}.cls-3{fill:url(#未命名的渐变_13);}.cls-4{fill:url(#未命名的渐变_11);}.cls-5{fill:url(#未命名的渐变_11-2);}.cls-6{fill:#7587ba;}.cls-7{fill:url(#未命名的渐变_10);}.cls-8{fill:url(#未命名的渐变_6);}.cls-9{fill:url(#未命名的渐变_11-3);}.cls-10{fill:url(#未命名的渐变_11-4);}.cls-11{fill:url(#未命名的渐变_10-2);}.cls-12{isolation:isolate;}.cls-13{fill:#33a9dd;}</style><clipPath id="clip-path"><rect class="cls-1" width="120" height="120"/></clipPath><linearGradient id="未命名的渐变_13" x1="60" y1="-507.08" x2="60" y2="-585.21" gradientTransform="matrix(1, 0, 0, -1, 0, -483.74)" gradientUnits="userSpaceOnUse"><stop offset="0" stop-color="#9da4b9"/><stop offset="1" stop-color="#808bab"/></linearGradient><linearGradient id="未命名的渐变_11" x1="30.36" y1="-568.11" x2="10.85" y2="-557.96" gradientTransform="matrix(1, 0, 0, -1, 0, -483.74)" gradientUnits="userSpaceOnUse"><stop offset="0" stop-color="#cad1e7"/><stop offset="1" stop-color="#b4bdd8"/></linearGradient><linearGradient id="未命名的渐变_11-2" x1="53.31" y1="-593.12" x2="45.69" y2="-567.63" xlink:href="#未命名的渐变_11"/><linearGradient id="未命名的渐变_10" x1="97.89" y1="-558.84" x2="80.4" y2="-588.5" gradientTransform="matrix(1, 0, 0, -1, 0, -483.74)" gradientUnits="userSpaceOnUse"><stop offset="0" stop-color="#cfd8ef"/><stop offset="1" stop-color="#d5dae9"/></linearGradient><linearGradient id="未命名的渐变_6" x1="74.99" y1="-489.92" x2="44.98" y2="-554.17" gradientTransform="matrix(1, 0, 0, -1, 0, -483.74)" gradientUnits="userSpaceOnUse"><stop offset="0" stop-color="#edf1fd"/><stop offset="1" stop-color="#e1e5f1"/></linearGradient><linearGradient id="未命名的渐变_11-3" x1="30.36" y1="-543.91" x2="10.85" y2="-533.76" xlink:href="#未命名的渐变_11"/><linearGradient id="未命名的渐变_11-4" x1="53.31" y1="-568.92" x2="45.69" y2="-543.42" xlink:href="#未命名的渐变_11"/><linearGradient id="未命名的渐变_10-2" x1="97.89" y1="-534.63" x2="80.4" y2="-564.3" xlink:href="#未命名的渐变_10"/></defs><title>资产图标</title><g class="cls-2"><path class="cls-3" d="M93.89,42.91l12.4,26.73L72.4,89.2,26.11,82,13.7,55.31,47.6,35.75Z"/><path class="cls-4" d="M13.8,55.27l12.34,26.6v20.8L13.8,76.07Z"/><path class="cls-5" d="M26.14,82l46.23,6.84v20.8l-46.23-6.84Z"/><path class="cls-6" d="M30.51,95.81l24.62,3.64v4L30.51,99.79Z"/><path class="cls-7" d="M106.27,69.64,72.37,88.83v20.8l33.9-19.19Z"/><ellipse class="cls-6" cx="101.1" cy="86.99" rx="3.67" ry="2.12" transform="translate(-24.79 131.05) rotate(-60)"/><path class="cls-8" d="M93.89,18.71l12.4,26.72L72.4,65,26.11,57.84,13.7,31.11,47.6,11.54Z"/><path class="cls-9" d="M13.8,31.06,26.14,57.67v20.8L13.8,51.87Z"/><path class="cls-10" d="M26.14,57.79l46.23,6.83v20.8L26.14,78.59Z"/><path class="cls-6" d="M30.51,71.35,55.13,75v4L30.51,75.33Z"/><path class="cls-11" d="M106.27,45.44,72.37,64.62v20.8l33.9-19.18Z"/><ellipse class="cls-6" cx="101.1" cy="62.97" rx="3.67" ry="2.12" transform="translate(-3.99 119.04) rotate(-60)"/></g><g class="cls-12"><path class="cls-13" d="M70.81,27.25a41.21,41.21,0,0,0-11.35,3.51,41.64,41.64,0,0,0-11.39-3.51A33.76,33.76,0,0,1,70.81,27.25Z"/><path class="cls-13" d="M74.06,28.78c1.38.79-.09,3.71-4.88,7.38-1.19-.82-2.45-1.61-3.76-2.36s-2.67-1.48-4.09-2.17C67.66,28.84,72.69,28,74.06,28.78Z"/><path class="cls-13" d="M57.6,31.63a60.21,60.21,0,0,0-7.8,4.53c-4.84-3.67-6.33-6.59-5-7.38S51.25,28.84,57.6,31.63Z"/><path class="cls-13" d="M76.71,30.65c4.56,4,4.58,9.18.08,13.18-.66-1.89-3-4.26-6.11-6.59C73.78,34.91,76.08,32.54,76.71,30.65Z"/><path class="cls-13" d="M42.21,30.65c.65,1.89,3,4.26,6.1,6.59-3.1,2.33-5.39,4.7-6,6.59C37.73,39.83,37.7,34.65,42.21,30.65Z"/><path class="cls-13" d="M78.85,26c10.76,6.22,10.82,16.29.13,22.5s-28.08,6.21-38.84,0S29.32,32.2,40,26,68.09,19.78,78.85,26ZM42.71,47c9.33,5.39,24.41,5.39,33.68,0s9.21-14.12-.12-19.5-24.4-5.39-33.67,0-9.22,14.12.11,19.5"/><path class="cls-13" d="M63.77,34.76c1.37.79,2.69,1.62,3.93,2.48-1.15.8-2.45,1.64-3.9,2.48S60.91,41.33,59.52,42c-1.39-.67-2.83-1.43-4.29-2.28s-2.78-1.67-3.94-2.48c1.23-.86,2.54-1.69,3.91-2.48s2.88-1.61,4.27-2.27C61,33.21,62.39,34,63.77,34.76Z"/><path class="cls-13" d="M69.19,38.32c4.83,3.67,6.32,6.59,5,7.38s-6.4-.06-12.76-2.85A60.21,60.21,0,0,0,69.19,38.32Z"/><path class="cls-13" d="M57.66,42.85c-6.32,2.79-11.35,3.65-12.73,2.85S45,42,49.82,38.32q1.78,1.23,3.75,2.36C54.88,41.44,56.25,42.16,57.66,42.85Z"/><path class="cls-13" d="M70.92,47.23a33.78,33.78,0,0,1-22.75,0,41.06,41.06,0,0,0,11.36-3.51A41.64,41.64,0,0,0,70.92,47.23Z"/></g></svg>