<svg id="图层_1" data-name="图层 1" xmlns="http://www.w3.org/2000/svg" xmlns:xlink="http://www.w3.org/1999/xlink" viewBox="0 0 120 120"><defs><style>.cls-1{fill:none;}.cls-2{clip-path:url(#clip-path);}.cls-3{fill:url(#未命名的渐变_13);}.cls-4{fill:url(#未命名的渐变_11);}.cls-5{fill:url(#未命名的渐变_11-2);}.cls-6{fill:#7587ba;}.cls-7{fill:url(#未命名的渐变_10);}.cls-8{fill:url(#未命名的渐变_6);}.cls-9{fill:url(#未命名的渐变_11-3);}.cls-10{fill:url(#未命名的渐变_11-4);}.cls-11{fill:url(#未命名的渐变_10-2);}.cls-12{isolation:isolate;}.cls-13{fill:#3bcf8d;}</style><clipPath id="clip-path"><rect class="cls-1" width="120" height="120"/></clipPath><linearGradient id="未命名的渐变_13" x1="60" y1="-507.08" x2="60" y2="-585.21" gradientTransform="matrix(1, 0, 0, -1, 0, -483.74)" gradientUnits="userSpaceOnUse"><stop offset="0" stop-color="#9da4b9"/><stop offset="1" stop-color="#808bab"/></linearGradient><linearGradient id="未命名的渐变_11" x1="30.36" y1="-568.11" x2="10.85" y2="-557.96" gradientTransform="matrix(1, 0, 0, -1, 0, -483.74)" gradientUnits="userSpaceOnUse"><stop offset="0" stop-color="#cad1e7"/><stop offset="1" stop-color="#b4bdd8"/></linearGradient><linearGradient id="未命名的渐变_11-2" x1="53.31" y1="-593.12" x2="45.69" y2="-567.63" xlink:href="#未命名的渐变_11"/><linearGradient id="未命名的渐变_10" x1="97.89" y1="-558.84" x2="80.4" y2="-588.5" gradientTransform="matrix(1, 0, 0, -1, 0, -483.74)" gradientUnits="userSpaceOnUse"><stop offset="0" stop-color="#cfd8ef"/><stop offset="1" stop-color="#d5dae9"/></linearGradient><linearGradient id="未命名的渐变_6" x1="74.99" y1="-489.92" x2="44.98" y2="-554.17" gradientTransform="matrix(1, 0, 0, -1, 0, -483.74)" gradientUnits="userSpaceOnUse"><stop offset="0" stop-color="#edf1fd"/><stop offset="1" stop-color="#e1e5f1"/></linearGradient><linearGradient id="未命名的渐变_11-3" x1="30.36" y1="-543.91" x2="10.85" y2="-533.76" xlink:href="#未命名的渐变_11"/><linearGradient id="未命名的渐变_11-4" x1="53.31" y1="-568.92" x2="45.69" y2="-543.42" xlink:href="#未命名的渐变_11"/><linearGradient id="未命名的渐变_10-2" x1="97.89" y1="-534.63" x2="80.4" y2="-564.3" xlink:href="#未命名的渐变_10"/></defs><title>资产图标</title><g class="cls-2"><path class="cls-3" d="M93.89,42.91l12.4,26.73L72.4,89.2,26.11,82,13.7,55.31,47.6,35.75Z"/><path class="cls-4" d="M13.8,55.27l12.34,26.6v20.8L13.8,76.07Z"/><path class="cls-5" d="M26.14,82l46.23,6.84v20.8l-46.23-6.84Z"/><path class="cls-6" d="M30.51,95.81l24.62,3.64v4L30.51,99.79Z"/><path class="cls-7" d="M106.27,69.64,72.37,88.83v20.8l33.9-19.19Z"/><ellipse class="cls-6" cx="101.1" cy="86.99" rx="3.67" ry="2.12" transform="translate(-24.79 131.05) rotate(-60)"/><path class="cls-8" d="M93.89,18.71l12.4,26.72L72.4,65,26.11,57.84,13.7,31.11,47.6,11.54Z"/><path class="cls-9" d="M13.8,31.06,26.14,57.67v20.8L13.8,51.87Z"/><path class="cls-10" d="M26.14,57.79l46.23,6.83v20.8L26.14,78.59Z"/><path class="cls-6" d="M30.51,71.35,55.13,75v4L30.51,75.33Z"/><path class="cls-11" d="M106.27,45.44,72.37,64.62v20.8l33.9-19.18Z"/><ellipse class="cls-6" cx="101.1" cy="62.97" rx="3.67" ry="2.12" transform="translate(-3.99 119.04) rotate(-60)"/></g><g class="cls-12"><path class="cls-13" d="M66.77,37.78a5.22,5.22,0,0,1,.48.33,1.2,1.2,0,0,1,.53,1,1.38,1.38,0,0,1-.47.94,3,3,0,0,1-1.3.61,3.74,3.74,0,0,1-1.85,0,2.61,2.61,0,0,1-.69-.27,2.35,2.35,0,0,1-.79-.75,1.06,1.06,0,0,1-.06-1.36,2.21,2.21,0,0,1,1.12-.74,4.13,4.13,0,0,1,1.3-.15,4.78,4.78,0,0,1,1.15.18A2.61,2.61,0,0,1,66.77,37.78Z"/><path class="cls-13" d="M71.33,43l.29.2c.4.33.56.67.46,1a1.83,1.83,0,0,1-.47.82,4,4,0,0,1-.9.61,3.43,3.43,0,0,1-1.57.3,2.21,2.21,0,0,1-1.06-.28,1.26,1.26,0,0,1-.4-.32,1.09,1.09,0,0,1-.23-1.12,1.93,1.93,0,0,1,.8-.93,3.24,3.24,0,0,1,1.17-.47,3.16,3.16,0,0,1,.85-.09A1.88,1.88,0,0,1,71.33,43Z"/><path class="cls-13" d="M59.93,34.63a24.36,24.36,0,0,1,2.7,1.8,3.21,3.21,0,0,0-1.39.81,2.07,2.07,0,0,0-.54.95,2.43,2.43,0,0,0,.61,1.92,4.06,4.06,0,0,0,1.14,1,7.58,7.58,0,0,0,1.31.58,5.23,5.23,0,0,0,2.16.23,4.58,4.58,0,0,0,1.89-.61l.51.7a3.26,3.26,0,0,0-1.89,1.33,2.5,2.5,0,0,0-.35,1.65,2.2,2.2,0,0,0,1.16,1.59,4.14,4.14,0,0,0,3.25.32,8.33,8.33,0,0,1,0,2.53l-.17.92a5.86,5.86,0,0,1-1.4.23q-.9.06-1.8.06l-.1-.47a19.78,19.78,0,0,0-4.16-7.54,34.29,34.29,0,0,0-9.22-7.69,35.28,35.28,0,0,0-11.12-4.11l-3.05-.6-.85.78c-.93-.27-1.58-.44-1.93-.51a2,2,0,0,1-.47-.12A8.76,8.76,0,0,0,38,28.81l1.19-1.21A56.12,56.12,0,0,1,48,29.42a49.82,49.82,0,0,1,9.92,4l-5.7-.24,6,4.23,1.2-.46-3.51-2.55Z"/><path class="cls-13" d="M72,29.25A30.75,30.75,0,0,1,81.13,37q3.28,4.61,3,8.5a6.11,6.11,0,0,1-4.3,5.45,15.9,15.9,0,0,1-4.79.73,26.17,26.17,0,0,1-4.45-.35,5.2,5.2,0,0,0,.6-.12l.6-.23.2-.4a9.82,9.82,0,0,0,.23-1.13A8,8,0,0,0,72,46.53L72,46.15A3.53,3.53,0,0,0,73.06,45a2.4,2.4,0,0,0,.32-1,2.32,2.32,0,0,0-.26-.89,2.13,2.13,0,0,0-.83-.89A3.49,3.49,0,0,0,71,41.74a7.7,7.7,0,0,0-1.18-.1,8.9,8.9,0,0,0-1-1.24,3.76,3.76,0,0,0,.24-.38,1.85,1.85,0,0,0-.23-2,3.51,3.51,0,0,0-1-.89,5.4,5.4,0,0,0-1.09-.45,9.48,9.48,0,0,0-2.43-.41,18.5,18.5,0,0,0-2-1.48l2.7.11-5.52-4-1.1.46,3.21,2.26-1.2-.06-.2-.11a52,52,0,0,0-11-4.67q-3.06-.88-5.58-1.4c-1.69-.34-3.1-.56-4.23-.68l-1.2-.17-.85.95A3.93,3.93,0,0,1,37,24.53a4.29,4.29,0,0,1,2.44-2.38q4.14-1.59,11.12-.39a70.17,70.17,0,0,1,11.39,2.77,54.23,54.23,0,0,1,10,4.64Z"/><path class="cls-13" d="M52.92,35.76a27,27,0,0,1,5.41,4q6,5.81,7.13,10.44c.48,2.68-.07,3.56-1.67,2.64s-3.3-2.89-4.94-5.77a43.51,43.51,0,0,0-9.48-9.74q-6.55-5.22-7.31-5.72A39.1,39.1,0,0,1,52.92,35.76Z"/></g></svg>